<svg xmlns="http://www.w3.org/2000/svg" viewBox="0 0 20.93 20.93"><defs><style>.cls-1{fill:#39b54a;}.cls-2{fill:#fff;}</style></defs><g id="Camada_2" data-name="Camada 2"><g id="Camada_1-2" data-name="Camada 1"><rect class="cls-1" width="20.93" height="20.93" rx="9.5"/><path class="cls-2" d="M14,6.08a.8.8,0,0,0-.8.8.8.8,0,0,0,1.6,0A.8.8,0,0,0,14,6.08Z"/><path class="cls-2" d="M10.48,7.1a3.35,3.35,0,1,0,3.35,3.35A3.35,3.35,0,0,0,10.48,7.1Zm0,5.49a2.14,2.14,0,1,1,2.14-2.14A2.14,2.14,0,0,1,10.48,12.59Z"/><path class="cls-2" d="M13.14,17.24H7.72a4.08,4.08,0,0,1-4.08-4.08V7.74A4.08,4.08,0,0,1,7.72,3.66h5.42a4.08,4.08,0,0,1,4.07,4.08v5.42A4.08,4.08,0,0,1,13.14,17.24ZM7.72,4.94a2.8,2.8,0,0,0-2.81,2.8v5.42A2.81,2.81,0,0,0,7.72,16h5.42a2.81,2.81,0,0,0,2.8-2.8V7.74a2.8,2.8,0,0,0-2.8-2.8Z"/></g></g></svg>