<svg xmlns="http://www.w3.org/2000/svg" viewBox="0 0 20.42 20.42"><defs><style>.cls-1{fill:#39b54a;}.cls-2{fill:#fff;}</style></defs><g id="Camada_2" data-name="Camada 2"><g id="Camada_1-2" data-name="Camada 1"><circle class="cls-1" cx="10.21" cy="10.21" r="10.21"/><path class="cls-2" d="M17.19,9.26a7,7,0,0,0-13.93,0h0v1.3h0a7,7,0,0,0,13.93,0h0V9.26Zm-1.31,0H13.25a12.4,12.4,0,0,0-1-4.66A5.7,5.7,0,0,1,15.88,9.26Zm-5.65,6.35c-.55,0-1.59-1.78-1.72-5h3.43C11.82,13.83,10.78,15.61,10.23,15.61ZM8.51,9.26c.13-3.27,1.17-5,1.72-5s1.59,1.77,1.71,5ZM8.19,4.6a12.4,12.4,0,0,0-1,4.66H4.57A5.73,5.73,0,0,1,8.19,4.6Zm-3.62,6H7.21a12.41,12.41,0,0,0,1,4.67A5.73,5.73,0,0,1,4.57,10.56Zm7.7,4.67a12.41,12.41,0,0,0,1-4.67h2.63A5.7,5.7,0,0,1,12.27,15.23Z"/></g></g></svg>