<svg xmlns="http://www.w3.org/2000/svg" viewBox="0 0 20.62 20.62"><defs><style>.cls-1{fill:#39b54a;}.cls-2{fill:#fff;}</style></defs><g id="Camada_2" data-name="Camada 2"><g id="Camada_1-2" data-name="Camada 1"><rect class="cls-1" width="20.62" height="20.62" rx="9.36"/><path class="cls-2" d="M17.21,6.07a5.81,5.81,0,0,1-1.37.39c.22,0,.55-.44.68-.6A2.47,2.47,0,0,0,17,5S17,5,17,5a.11.11,0,0,0-.08,0,6.7,6.7,0,0,1-1.61.62.12.12,0,0,1-.12,0L15,5.41a3,3,0,0,0-.78-.48A2.73,2.73,0,0,0,13,4.74a3,3,0,0,0-1.14.32,2.92,2.92,0,0,0-.92.75,2.76,2.76,0,0,0-.58,2.27c0,.06,0,.07-.06.06A8.58,8.58,0,0,1,4.79,5.31c-.07-.07-.1-.07-.16,0a2.84,2.84,0,0,0,.48,3.33l.34.3a2.86,2.86,0,0,1-1.07-.3c-.06,0-.09,0-.1,0A1.15,1.15,0,0,0,4.3,9a2.83,2.83,0,0,0,1.75,2.27,1.65,1.65,0,0,0,.36.11,3.27,3.27,0,0,1-1,0c-.08,0-.11,0-.08.09a3,3,0,0,0,2.21,1.85l.3,0,0,0c-.24.38-1.1.66-1.51.8A5.23,5.23,0,0,1,4,14.53H3.79s0,.06,0,.09.31.19.47.28a7.06,7.06,0,0,0,1.54.61,8.17,8.17,0,0,0,7.92-1.85A8.32,8.32,0,0,0,16,7.6c0-.09.1-.14.16-.19a4.79,4.79,0,0,0,1.08-1.12.33.33,0,0,0,.07-.21h0S17.26,6,17.21,6.07Z"/></g></g></svg>