<svg xmlns="http://www.w3.org/2000/svg" viewBox="0 0 386.14 101.52"><defs><style>.cls-1{fill:#423d38;}.cls-2{fill:#e6291a;}.cls-3{fill:#f7931e;}.cls-4{fill:#39b54a;}.cls-5{fill:#182c93;}.cls-6{fill:#fff;}</style></defs><g id="Camada_2" data-name="Camada 2"><g id="Camada_1-2" data-name="Camada 1"><path class="cls-1" d="M187.33,27.1V21.2a1.56,1.56,0,0,0-1.61-1.77,1.58,1.58,0,0,0-1.63,1.77v5.9h-2.43V17.35H184v.9a3.3,3.3,0,0,1,2.43-1,3.16,3.16,0,0,1,2.31.87,3.62,3.62,0,0,1,1,2.77V27.1Z"/><path class="cls-1" d="M199.13,26a4.1,4.1,0,0,1-3,1.19,4,4,0,0,1-3-1.19c-.88-.94-1.1-2-1.1-3.81s.22-2.84,1.1-3.78a4.41,4.41,0,0,1,6,0c.88.94,1.1,2,1.1,3.78S200,25.1,199.13,26Zm-1.89-6.16a1.55,1.55,0,0,0-1.15-.43,1.53,1.53,0,0,0-1.12.43,3.29,3.29,0,0,0-.56,2.35,3.33,3.33,0,0,0,.56,2.38,1.53,1.53,0,0,0,1.12.43,1.55,1.55,0,0,0,1.15-.43,3.33,3.33,0,0,0,.56-2.38A3.29,3.29,0,0,0,197.24,19.86Z"/><path class="cls-1" d="M207.85,20a1.59,1.59,0,0,0-1.29-.58A1.62,1.62,0,0,0,205,21.22V27.1h-2.44V17.35h2.38v.93a3.3,3.3,0,0,1,2.45-1.05,3,3,0,0,1,2.31.92Z"/><path class="cls-1" d="M215.9,27.1v-.92a2.92,2.92,0,0,1-2.41,1,3.24,3.24,0,0,1-2.38-.88c-.94-.95-1-2.47-1-4.12s.07-3.14,1-4.1a3.23,3.23,0,0,1,2.36-.88,2.91,2.91,0,0,1,2.37,1V13.77h2.44V27.1Zm-1.72-7.67c-1.46,0-1.65,1.21-1.65,2.78s.19,2.81,1.65,2.81,1.66-1.23,1.66-2.81S215.64,19.43,214.18,19.43Z"/><path class="cls-1" d="M222.92,23a2,2,0,0,0,2.13,2.17,2.74,2.74,0,0,0,2.21-.91l1.48,1.44a4.57,4.57,0,0,1-3.7,1.53c-2.31,0-4.52-1-4.52-5,0-3.18,1.73-5,4.25-5,2.72,0,4.25,1.95,4.25,4.72v1Zm3.48-2.71a1.69,1.69,0,0,0-1.63-1,1.71,1.71,0,0,0-1.63,1,2.53,2.53,0,0,0-.22,1.05h3.71A2.38,2.38,0,0,0,226.4,20.27Z"/><path class="cls-1" d="M234.47,27.21a5.31,5.31,0,0,1-4.16-1.4l1.59-1.59a3.56,3.56,0,0,0,2.61.92c.84,0,1.72-.29,1.72-1,0-.48-.24-.82-1-.89l-1.57-.15c-1.73-.17-2.81-.94-2.81-2.74,0-2,1.78-3.11,3.76-3.11a5.25,5.25,0,0,1,3.73,1.15l-1.5,1.51a3.38,3.38,0,0,0-2.27-.65c-1,0-1.38.45-1.38.93s.28.77,1,.85l1.54.15c1.92.18,2.9,1.19,2.9,2.86C238.61,26.18,236.77,27.21,234.47,27.21Z"/><path class="cls-1" d="M243.51,27.1a2.65,2.65,0,0,1-2.83-2.79V19.48h-1V17.63h1V14.74h2.44v2.89h1.72v1.85h-1.72v4.68c0,.56.26.88.84.88h.88V27.1Z"/><path class="cls-1" d="M248.86,23A2,2,0,0,0,251,25.15a2.75,2.75,0,0,0,2.21-.91l1.48,1.44A4.6,4.6,0,0,1,251,27.21c-2.3,0-4.51-1-4.51-5,0-3.18,1.72-5,4.25-5,2.71,0,4.25,1.95,4.25,4.72v1Zm3.49-2.71a1.71,1.71,0,0,0-1.63-1,1.69,1.69,0,0,0-1.63,1,2.38,2.38,0,0,0-.23,1.05h3.71A2.38,2.38,0,0,0,252.35,20.27Z"/><path class="cls-1" d="M266.69,27.1v-.86a2.72,2.72,0,0,1-2.25,1,3.15,3.15,0,0,1-2.36-.93c-.77-.83-.88-1.82-.88-3.5s.11-2.64.86-3.47a3.14,3.14,0,0,1,2.36-.95,2.76,2.76,0,0,1,2.21.92v-.85a2.29,2.29,0,0,0-2.53-2.56h-2.32a2.29,2.29,0,0,0-2.53,2.56v5.41a2,2,0,0,0,.83,1.86l-1.69,1.68a3.86,3.86,0,0,1-1.48-3.4v-5.6a4.69,4.69,0,0,1,1.16-3.54,4.65,4.65,0,0,1,3.52-1.14h2.7a4.67,4.67,0,0,1,3.52,1.14A4.66,4.66,0,0,1,269,18.38V27.1Zm-1.61-6.72c-1.2,0-1.54.92-1.54,2.4s.34,2.41,1.54,2.41,1.55-.93,1.55-2.41S266.27,20.38,265.08,20.38Z"/><path class="cls-1" d="M278.55,26.33a3.22,3.22,0,0,1-2.35.88,2.85,2.85,0,0,1-2.36-1v4.44H271.4V17.35h2.36v.91a3,3,0,0,1,2.44-1,3.26,3.26,0,0,1,2.35.88c.94,1,1,2.48,1,4.1S279.49,25.38,278.55,26.33Zm-3.07-6.9c-1.46,0-1.64,1.21-1.64,2.78S274,25,275.48,25s1.65-1.23,1.65-2.81S276.94,19.43,275.48,19.43Z"/><path class="cls-1" d="M285.52,28.67a3.49,3.49,0,0,1-.73,1.26,2.82,2.82,0,0,1-2.1.75h-.95V28.49h.56a1,1,0,0,0,1.21-.88l.42-1.2-3.34-9.06h2.57l2,6,1.95-6h2.56Z"/><path class="cls-1" d="M294.18,27.1a2.64,2.64,0,0,1-2.82-2.79V19.48h-1V17.63h1V14.74h2.43v2.89h1.72v1.85h-1.72v4.68c0,.56.26.88.84.88h.88V27.1Z"/><path class="cls-1" d="M303.39,27.1V21.2a1.62,1.62,0,1,0-3.23,0v5.9h-2.44V13.77h2.44v4.48a3.1,3.1,0,0,1,2.37-1,3.16,3.16,0,0,1,2.31.87,3.62,3.62,0,0,1,1,2.77V27.1Z"/><path class="cls-1" d="M315.19,26a4.1,4.1,0,0,1-3,1.19,4.05,4.05,0,0,1-3-1.19c-.88-.94-1.1-2-1.1-3.81s.22-2.84,1.1-3.78a4.41,4.41,0,0,1,6.05,0c.88.94,1.1,2,1.1,3.78S316.09,25.1,315.19,26Zm-1.89-6.16a1.71,1.71,0,0,0-2.27,0,3.29,3.29,0,0,0-.56,2.35,3.33,3.33,0,0,0,.56,2.38,1.71,1.71,0,0,0,2.27,0,3.33,3.33,0,0,0,.56-2.38A3.29,3.29,0,0,0,313.3,19.86Z"/><path class="cls-1" d="M324.29,27.1V21.2a1.63,1.63,0,1,0-3.24,0v5.9h-2.44V17.35H321v.9a3.33,3.33,0,0,1,2.43-1,3.16,3.16,0,0,1,2.31.87,3.62,3.62,0,0,1,1,2.77V27.1Z"/><path class="cls-1" d="M329.25,27.1V24.33H332V27.1Z"/><path class="cls-1" d="M341.41,26a4.43,4.43,0,0,1-6,0c-.88-.94-1.11-2-1.11-3.81s.23-2.84,1.11-3.78a4.05,4.05,0,0,1,3-1.2,4,4,0,0,1,3,1.2c.88.94,1.11,2,1.11,3.78S342.31,25.1,341.41,26Zm-1.89-6.16a1.53,1.53,0,0,0-1.14-.43,1.51,1.51,0,0,0-1.12.43,3.24,3.24,0,0,0-.56,2.35,3.28,3.28,0,0,0,.56,2.38,1.51,1.51,0,0,0,1.12.43,1.53,1.53,0,0,0,1.14-.43,3.28,3.28,0,0,0,.56-2.38A3.24,3.24,0,0,0,339.52,19.86Z"/><path class="cls-1" d="M350.14,20a1.63,1.63,0,0,0-2.87,1.21V27.1h-2.43V17.35h2.38v.93a3.3,3.3,0,0,1,2.45-1.05,3,3,0,0,1,2.3.92Z"/><path class="cls-1" d="M356.17,30.79a4.57,4.57,0,0,1-3.54-1.27L354.14,28a2.48,2.48,0,0,0,1.91.75,1.85,1.85,0,0,0,2-2v-1a2.87,2.87,0,0,1-2.32,1,3.24,3.24,0,0,1-2.32-.86c-.92-.92-1-2.17-1-3.88s.08-2.94,1-3.85a3.25,3.25,0,0,1,2.34-.87,2.86,2.86,0,0,1,2.37,1v-.91h2.36v9.4A4,4,0,0,1,356.17,30.79Zm.24-11.36c-1.44,0-1.59,1.23-1.59,2.52s.15,2.55,1.59,2.55S358,23.24,358,22,357.85,19.43,356.41,19.43Z"/><path class="cls-1" d="M363.09,27.1V24.33h2.79V27.1Z"/><path class="cls-1" d="M375.67,26.33a3.22,3.22,0,0,1-2.36.88,2.92,2.92,0,0,1-2.43-1v.92h-2.36V13.77H371v4.44a2.88,2.88,0,0,1,2.36-1,3.23,3.23,0,0,1,2.36.88c.94,1,1,2.48,1,4.1S376.61,25.38,375.67,26.33Zm-3.07-6.9c-1.46,0-1.65,1.21-1.65,2.78S371.14,25,372.6,25s1.65-1.23,1.65-2.81S374.06,19.43,372.6,19.43Z"/><path class="cls-1" d="M384.3,20a1.59,1.59,0,0,0-1.29-.58,1.62,1.62,0,0,0-1.57,1.79V27.1H379V17.35h2.38v.93a3.32,3.32,0,0,1,2.45-1.05,3,3,0,0,1,2.31.92Z"/><path class="cls-1" d="M193.1,60.66h-1.94l.18-.88a2.73,2.73,0,0,1-2.11,1,2.42,2.42,0,0,1-2.62-2.52,8.73,8.73,0,0,1,.22-1.78c.32-1.59.6-2.7,1.54-3.52a3.15,3.15,0,0,1,2.21-.77,2.17,2.17,0,0,1,2,1l.17-.86H195l-1.39,6.93c2.23-.13,3.41-2.1,3.41-4.19,0-3.15-2.25-5.15-5.62-5.15a6.65,6.65,0,0,0-6.79,6.7c0,4.16,2.62,6.67,6.89,6.67h1.4l-.3,1.55h-1.42c-5.11,0-8.47-3.43-8.47-8.22a8.38,8.38,0,0,1,8.69-8.39c4.44,0,7.42,2.85,7.42,6.84A5.58,5.58,0,0,1,193.1,60.66Zm-2.17-6.53a1.51,1.51,0,0,0-1,.37,3.43,3.43,0,0,0-.88,2,6.42,6.42,0,0,0-.11,1.16,1,1,0,0,0,1.07,1.2,1.47,1.47,0,0,0,1-.4,3.45,3.45,0,0,0,.85-2,6.43,6.43,0,0,0,.13-1.14A1.06,1.06,0,0,0,190.93,54.13Z"/><path class="cls-1" d="M208.25,60.59a3.3,3.3,0,0,1-2.36.88,2.85,2.85,0,0,1-2.36-1v4.44H201.1V51.6h2.35v.92a3,3,0,0,1,2.44-1,3.3,3.3,0,0,1,2.36.88c.93,1,1,2.47,1,4.1S209.18,59.63,208.25,60.59Zm-3.07-6.91c-1.46,0-1.65,1.22-1.65,2.79s.19,2.81,1.65,2.81,1.64-1.24,1.64-2.81S206.64,53.68,205.18,53.68Z"/><path class="cls-1" d="M215.21,62.93a3.53,3.53,0,0,1-.73,1.25,2.82,2.82,0,0,1-2.1.75h-.95V62.74H212a1.06,1.06,0,0,0,1.22-.88l.41-1.2-3.33-9.06h2.56l2,6,1.95-6h2.57Z"/><path class="cls-1" d="M223.88,61.35a2.64,2.64,0,0,1-2.83-2.79V53.73h-1V51.88h1V49h2.43v2.88h1.73v1.85h-1.73v4.69a.76.76,0,0,0,.85.87h.88v2.06Z"/><path class="cls-1" d="M233.09,61.35V55.46a1.63,1.63,0,1,0-3.24,0v5.89h-2.43V48h2.43V52.5a3.11,3.11,0,0,1,2.38-1,3.17,3.17,0,0,1,2.3.86,3.6,3.6,0,0,1,1,2.77v6.23Z"/><path class="cls-1" d="M244.88,60.27a4.41,4.41,0,0,1-6,0c-.88-.94-1.1-2-1.1-3.8s.22-2.85,1.1-3.78a4,4,0,0,1,3-1.2,4,4,0,0,1,3,1.2c.88.93,1.11,2,1.11,3.78S245.78,59.35,244.88,60.27ZM243,54.11a1.71,1.71,0,0,0-2.27,0,3.33,3.33,0,0,0-.56,2.36,3.36,3.36,0,0,0,.56,2.38,1.71,1.71,0,0,0,2.27,0,3.31,3.31,0,0,0,.56-2.38A3.28,3.28,0,0,0,243,54.11Z"/><path class="cls-1" d="M254,61.35V55.46a1.63,1.63,0,1,0-3.24,0v5.89h-2.43V51.6h2.37v.9a3.33,3.33,0,0,1,2.44-1,3.17,3.17,0,0,1,2.3.86,3.6,3.6,0,0,1,1,2.77v6.23Z"/><path class="cls-1" d="M264.71,61.35V55.46a1.63,1.63,0,1,0-3.24,0v5.89H259V51.6h2.38v.9a3.32,3.32,0,0,1,2.43-1,3.2,3.2,0,0,1,2.31.86,3.64,3.64,0,0,1,1,2.77v6.23Z"/><path class="cls-1" d="M276.5,60.27a4.06,4.06,0,0,1-3,1.2,4,4,0,0,1-3-1.2c-.88-.94-1.1-2-1.1-3.8s.22-2.85,1.1-3.78a4.41,4.41,0,0,1,6.05,0c.88.93,1.1,2,1.1,3.78S277.4,59.35,276.5,60.27Zm-1.89-6.16a1.71,1.71,0,0,0-2.27,0,3.33,3.33,0,0,0-.56,2.36,3.36,3.36,0,0,0,.56,2.38,1.71,1.71,0,0,0,2.27,0,3.36,3.36,0,0,0,.56-2.38A3.33,3.33,0,0,0,274.61,54.11Z"/><path class="cls-1" d="M285.22,54.26a1.59,1.59,0,0,0-1.29-.58,1.62,1.62,0,0,0-1.57,1.8v5.87h-2.44V51.6h2.38v.94a3.28,3.28,0,0,1,2.45-1,2.94,2.94,0,0,1,2.31.92Z"/><path class="cls-1" d="M293.27,61.35v-.91a2.91,2.91,0,0,1-2.41,1,3.28,3.28,0,0,1-2.38-.88c-.94-1-1-2.47-1-4.12s.07-3.15,1-4.1a3.25,3.25,0,0,1,2.36-.88,2.94,2.94,0,0,1,2.38,1V48h2.43V61.35Zm-1.72-7.67c-1.46,0-1.65,1.22-1.65,2.79s.19,2.81,1.65,2.81,1.67-1.24,1.67-2.81S293,53.68,291.55,53.68Z"/><path class="cls-1" d="M300.29,57.24a2,2,0,0,0,2.14,2.17,2.77,2.77,0,0,0,2.21-.92l1.48,1.44a4.61,4.61,0,0,1-3.71,1.54c-2.31,0-4.51-1-4.51-5,0-3.18,1.72-5,4.25-5,2.71,0,4.25,1.95,4.25,4.72v1Zm3.48-2.72a1.81,1.81,0,0,0-3.25,0,2.41,2.41,0,0,0-.23,1H304A2.41,2.41,0,0,0,303.77,54.52Z"/><path class="cls-1" d="M311.84,61.47a5.3,5.3,0,0,1-4.15-1.41l1.59-1.59a3.49,3.49,0,0,0,2.6.92c.84,0,1.72-.28,1.72-1,0-.49-.24-.83-1-.9L311,57.33c-1.72-.17-2.81-.94-2.81-2.73,0-2.05,1.78-3.11,3.76-3.11a5.25,5.25,0,0,1,3.73,1.14l-1.5,1.52a3.32,3.32,0,0,0-2.26-.66c-1,0-1.39.45-1.39.94s.28.76,1,.84l1.54.15c1.93.19,2.9,1.2,2.9,2.86C316,60.44,314.14,61.47,311.84,61.47Z"/><path class="cls-1" d="M320.88,61.35a2.64,2.64,0,0,1-2.82-2.79V53.73h-1V51.88h1V49h2.43v2.88h1.72v1.85h-1.72v4.69c0,.56.26.87.84.87h.88v2.06Z"/><path class="cls-1" d="M326.24,57.24a2,2,0,0,0,2.13,2.17,2.76,2.76,0,0,0,2.21-.92l1.48,1.44a4.6,4.6,0,0,1-3.71,1.54c-2.3,0-4.51-1-4.51-5,0-3.18,1.72-5,4.25-5,2.71,0,4.25,1.95,4.25,4.72v1Zm3.48-2.72a1.82,1.82,0,0,0-3.26,0,2.27,2.27,0,0,0-.22,1h3.7A2.41,2.41,0,0,0,329.72,54.52Z"/><path class="cls-1" d="M184,99.33h-2.28l5.33-16.1h2.29Z"/><path class="cls-1" d="M196,92.93h-2.56v5h-2.6V84.62H196a4.16,4.16,0,1,1,0,8.31Zm-.13-6h-2.43v3.65h2.43a1.83,1.83,0,1,0,0-3.65Z"/><path class="cls-1" d="M206.21,99.52a3.39,3.39,0,0,1-.73,1.25,2.82,2.82,0,0,1-2.09.75h-1V99.33H203a1.05,1.05,0,0,0,1.22-.88l.41-1.2-3.33-9.06h2.57l2,6,2-6h2.56Z"/><path class="cls-1" d="M214.88,98a2.65,2.65,0,0,1-2.83-2.79V90.33h-1V88.47h1V85.59h2.44v2.88h1.72v1.86h-1.72V95c0,.56.26.88.84.88h.88V98Z"/><path class="cls-1" d="M224.09,98v-5.9a1.63,1.63,0,1,0-3.24,0V98h-2.43V84.62h2.43v4.47a3.4,3.4,0,0,1,4.68-.15,3.61,3.61,0,0,1,1,2.77V98Z"/><path class="cls-1" d="M235.88,96.86a4.4,4.4,0,0,1-6,0c-.88-.94-1.11-2-1.11-3.8s.23-2.85,1.11-3.78a4,4,0,0,1,3-1.2,4,4,0,0,1,3,1.2c.89.93,1.11,2,1.11,3.78S236.78,95.94,235.88,96.86ZM234,90.7a1.53,1.53,0,0,0-1.14-.43,1.51,1.51,0,0,0-1.12.43,3.28,3.28,0,0,0-.56,2.36,3.31,3.31,0,0,0,.56,2.38,1.51,1.51,0,0,0,1.12.43,1.53,1.53,0,0,0,1.14-.43,3.31,3.31,0,0,0,.57-2.38A3.28,3.28,0,0,0,234,90.7Z"/><path class="cls-1" d="M245,98v-5.9a1.57,1.57,0,0,0-1.61-1.78,1.59,1.59,0,0,0-1.63,1.78V98h-2.43V88.19h2.38v.9a3.33,3.33,0,0,1,2.43-1,3.16,3.16,0,0,1,2.3.86,3.61,3.61,0,0,1,1,2.77V98Z"/><path class="cls-1" d="M258.11,98l-5.28-8.19V98h-2.61V84.62h2.33l5.28,8.16V84.62h2.6V98Z"/><path class="cls-1" d="M270.09,96.86a4.07,4.07,0,0,1-3,1.2,4,4,0,0,1-3-1.2c-.88-.94-1.11-2-1.11-3.8s.23-2.85,1.11-3.78a4.41,4.41,0,0,1,6,0c.88.93,1.1,2,1.1,3.78S271,95.94,270.09,96.86ZM268.2,90.7a1.57,1.57,0,0,0-1.15-.43,1.51,1.51,0,0,0-1.12.43,3.28,3.28,0,0,0-.56,2.36,3.31,3.31,0,0,0,.56,2.38,1.51,1.51,0,0,0,1.12.43,1.57,1.57,0,0,0,1.15-.43,3.36,3.36,0,0,0,.56-2.38A3.33,3.33,0,0,0,268.2,90.7Z"/><path class="cls-1" d="M278.81,90.85a1.59,1.59,0,0,0-1.29-.58,1.62,1.62,0,0,0-1.57,1.8V98h-2.44V88.19h2.38v.94a3.3,3.3,0,0,1,2.45-1,2.91,2.91,0,0,1,2.3.92Z"/><path class="cls-1" d="M286.86,98V97a2.93,2.93,0,0,1-2.42,1,3.27,3.27,0,0,1-2.37-.88c-.94-1-1-2.47-1-4.12s.07-3.15,1-4.1a3.23,3.23,0,0,1,2.36-.88,2.9,2.9,0,0,1,2.37,1V84.62h2.44V98Zm-1.72-7.68c-1.46,0-1.65,1.22-1.65,2.79s.19,2.81,1.65,2.81,1.66-1.24,1.66-2.81S286.6,90.27,285.14,90.27Z"/><path class="cls-1" d="M293.88,93.83A2,2,0,0,0,296,96a2.76,2.76,0,0,0,2.21-.92l1.48,1.44A4.6,4.6,0,0,1,296,98.06c-2.3,0-4.51-1-4.51-5,0-3.18,1.73-5,4.25-5,2.72,0,4.25,2,4.25,4.72v1Zm3.48-2.72a1.69,1.69,0,0,0-1.63-1,1.71,1.71,0,0,0-1.63,1,2.56,2.56,0,0,0-.22,1h3.71A2.41,2.41,0,0,0,297.36,91.11Z"/><path class="cls-1" d="M305.43,98.06a5.32,5.32,0,0,1-4.16-1.41l1.59-1.59a3.52,3.52,0,0,0,2.61.92c.84,0,1.72-.28,1.72-1,0-.49-.24-.83-1-.9l-1.57-.15c-1.73-.17-2.81-.94-2.81-2.73,0-2,1.78-3.11,3.76-3.11a5.25,5.25,0,0,1,3.73,1.14l-1.5,1.52a3.33,3.33,0,0,0-2.27-.66c-1,0-1.38.45-1.38.94s.28.77,1,.84l1.53.15c1.93.19,2.91,1.2,2.91,2.87C309.57,97,307.73,98.06,305.43,98.06Z"/><path class="cls-1" d="M314.47,98a2.65,2.65,0,0,1-2.83-2.79V90.33h-1V88.47h1V85.59h2.44v2.88h1.72v1.86h-1.72V95c0,.56.26.88.84.88h.88V98Z"/><path class="cls-1" d="M319.82,93.83A2,2,0,0,0,322,96a2.77,2.77,0,0,0,2.21-.92l1.48,1.44a4.61,4.61,0,0,1-3.71,1.54c-2.31,0-4.51-1-4.51-5,0-3.18,1.72-5,4.25-5,2.71,0,4.25,2,4.25,4.72v1Zm3.48-2.72a1.81,1.81,0,0,0-3.25,0,2.41,2.41,0,0,0-.23,1h3.71A2.41,2.41,0,0,0,323.3,91.11Z"/><path class="cls-2" d="M25.19,18.75a1.34,1.34,0,0,1-.35-.06l-.16-.06a.57.57,0,0,1-.18-.12,1,1,0,0,1-.21-.32l-.22-.48a.71.71,0,0,1-.07-.32l-.06-.66v-.42l0-.19,0-.21,0-.35v-.74l0-.32v-.26l0-.19,0-.24,0-.21v-.1l0-.27,0-.42,0-.29V12l-.05-.37v-.23l0-.16,0-.19a1.27,1.27,0,0,0,0-.32l0-.29,0-.19,0-.15V9.94l0-.32V9.31l0-.37V8.48l0-.31,0-.11,0-.21V7.69l0-.4,0-.34,0-.43,0-.42,0-.32v-.5L23.86,5l0-.1,0-.19V4.45l0-.13a1.27,1.27,0,0,1,0-.32V4a1.25,1.25,0,0,0,0-.21,1.27,1.27,0,0,0,0-.22l0-.08,0-.31V3.1a1.66,1.66,0,0,0,0-.24l0-.24,0-.31,0-.19,0-.5A1,1,0,0,1,24,1.17L24.1,1l.11-.16c0-.09.17-.19.39-.32l.11,0,.53-.21a.78.78,0,0,1,.35,0H26a1.48,1.48,0,0,1,.34,0l.64.21.32.08.79.24.4.11.64.24.18.1.24.16.29.24.27.19a.41.41,0,0,1,.18.13l.19.21.18.16.19.21.37.51.11.16a2.22,2.22,0,0,1,.21.34l.05.21.11.24a1.1,1.1,0,0,1,.08.19l.08.29.1.4L32,5a1.8,1.8,0,0,1,.06.24l0,.32,0,.77,0,.58,0,.19,0,.31,0,.38a1.64,1.64,0,0,1,0,.23l-.11.3-.08.37L31.79,9l-.13.37-.19.4-.4.69-.21.37-.18.24-.1.08-.06.05-.24.19-.32.29-.64.48-.34.21-.37.21-.77.32-.34.13-.4.13c-.25.09-.4.35-.45.77l0,.24,0,.27v1.14l0,.26a.76.76,0,0,1,0,.14.57.57,0,0,0,0,.18l0,.13a.27.27,0,0,1,0,.15.49.49,0,0,0,0,.12l-.05.66-.08.56a1.07,1.07,0,0,1-.19.48l-.1.18-.22.11-.14,0-.15,0-.45.08Zm1.7-8.54a1,1,0,0,0,.39-.08l.27-.11.26-.13L28,9.78,28.85,9,29,8.78l.11-.22.1-.31.13-.59a1.22,1.22,0,0,0,0-.32V7.11l0-.4,0-.19v-.1a.82.82,0,0,0,0-.27l0-.18-.05-.38V5.52l-.05-.16L29,4.64a1,1,0,0,0-.24-.37l-.11-.08L28.48,4l-.16-.1-.53-.35-.08,0s-.06-.06-.08-.06l-.06,0-.68-.24-.14.08c-.07,0-.12.21-.16.48l0,.23,0,.24,0,.21,0,.27V5l0,.13v.24l0,.26,0,.3a3,3,0,0,0,0,.34l0,.11a.88.88,0,0,1,0,.24l0,.21,0,.26a.88.88,0,0,0,0,.24l0,.21,0,.16v.27l-.05.24v.31l0,.11,0,.27,0,.21,0,.18V9.7l0,.19,0,.08c0,.11,0,.17.08.19A.6.6,0,0,0,26.89,10.21Z"/><path class="cls-2" d="M37,18.53l-.13-.13a1.61,1.61,0,0,1-.21-.4l-.11-.29,0-.21-.06-.72,0-.16a1.19,1.19,0,0,0,0-.31l-.06-.64,0-.26v-.24l0-.24v-.88l0-.18a.58.58,0,0,0,0-.37l0-.27,0-.18a.61.61,0,0,0,0-.38l0-.13a.86.86,0,0,1,0-.32l0-.18,0-.43-.05-.31,0-.56a1,1,0,0,0,0-.29l-.16-.53-.16-.45-.11-.27a.47.47,0,0,1,0-.16l-.05-.32-.16-.39L35.37,8l-.08-.18a.76.76,0,0,1-.08-.32V7.34A1.66,1.66,0,0,0,35.08,7l0-.1c-.06-.13-.09-.21-.11-.24l-.08-.24-.13-.32-.13-.45-.11-.32-.16-.45-.13-.26L34.1,4.4,34,4.14l-.18-.45-.08-.3s0,0,0-.08a.19.19,0,0,0,0-.08L33.59,3l-.05-.16-.21-.61-.11-.39,0-.22a1.13,1.13,0,0,1,0-.31.44.44,0,0,1,.11-.24l.13-.21.26-.3.19-.1a1,1,0,0,1,.45-.11h.21a1,1,0,0,1,.69.21l.19.19.31.42.08.14.22.42a1.19,1.19,0,0,1,.1.37v0a3.69,3.69,0,0,0,.16.4l0,.07a.64.64,0,0,1,.08.3l.06.21.1.37.22.4.15.37.14.37.13.4.19.69.23.47.14,0a.34.34,0,0,0,.2-.12,1.57,1.57,0,0,0,.22-.33l.27-.61.18-.4.16-.34L39,4.11,39,4l.08-.16,0-.08.06-.1,0-.11.19-.58.08-.14s.05-.15.1-.34l0-.11a1.59,1.59,0,0,1,.11-.26l.1-.19.08-.16.16-.42a.69.69,0,0,1,.13-.21l.24-.35A1.36,1.36,0,0,1,40.7.5l0,0a.94.94,0,0,1,.39-.14l.14,0,.21,0h.08a1.33,1.33,0,0,1,.34.11l.48.21.13.13a.7.7,0,0,1,.16.35l.06.16,0,.18v.11a1.42,1.42,0,0,1,0,.26l-.16.56L42.32,3l-.08.19-.13.18,0,.06a.21.21,0,0,1,0,.13l-.11.26-.19.38-.18.45L41.42,5l-.11.34-.05.19-.11.18-.08.16L41,6l-.11.21-.08.13-.1.22-.14.29-.05.24-.13.26-.11.16-.18.4-.19.37-.16.42L39.64,9l-.4.82-.05.19a1.08,1.08,0,0,0-.08.42l0,.64v.4l0,.24V12l0,.27,0,.45v.82l0,.24a.51.51,0,0,0,0,.21v.3l0,.39,0,.4v.42l0,.38,0,.39v.4l0,.4,0,.53A1.55,1.55,0,0,1,39,18l-.27.45-.1.1a1.29,1.29,0,0,1-.4.22h0l-.32,0h-.24A.89.89,0,0,1,37,18.53Z"/><path class="cls-2" d="M49.61,18.88a1,1,0,0,1-.56-.16l-.32-.21-.13-.16a.81.81,0,0,1-.21-.37l-.11-.37a1.87,1.87,0,0,1,0-.27v-.58l-.06-.43,0-.21a.58.58,0,0,0,0-.37l0-.27v-.37l0-.18a.44.44,0,0,0,0-.19.58.58,0,0,0,0-.21l0-.11a.92.92,0,0,1,0-.23l0-.24V13.5l0-.32v-.51l0-.39,0-.22v-.23l0-.19,0-.21,0-.37-.05-.27v-.48l.05-.47v-.4l0-.4v-.5l0-.27V7.9l-.05-.32V7.4l0-.35V6.66l-.06-.24V6.15l0-.18a1,1,0,0,0,0-.35l0-.16,0-.48,0-.55s0-.07,0-.11a.2.2,0,0,0,0-.13V4.14l0-.3L48,3.5c0-.09-.09-.17-.22-.24a1.35,1.35,0,0,0-.49-.13h-.21l-.77.08h-.72a.92.92,0,0,1-.53-.16L45,3l-.16-.11a.69.69,0,0,1-.27-.34.84.84,0,0,1-.1-.32l0-.37V1.75a1.12,1.12,0,0,1,0-.29v0a1.06,1.06,0,0,1,.15-.37l0,0a1.84,1.84,0,0,1,.4-.26L45.5.58a1.13,1.13,0,0,1,.24,0l.69-.11.53,0h2.3l.32,0h.79a.14.14,0,0,0,.11,0l.14,0a.79.79,0,0,1,.26,0h.35l.24,0h.45a.2.2,0,0,0,.13,0h.05l.24,0,.45,0,.72,0,.24.07s0,0,.08,0a.16.16,0,0,1,.1,0l.13.08.19.14.08,0a.89.89,0,0,1,.21.32l.08.16a1.29,1.29,0,0,1,.11.55.42.42,0,0,1,0,.16.29.29,0,0,0,0,.11l-.08.21a.09.09,0,0,0,0,.07.07.07,0,0,1,0,.06l-.07.11a1,1,0,0,1-.4.29l-.11,0L53.35,3a.84.84,0,0,1-.29,0l-.19,0-.34,0-.06,0-.21,0-.87.08-.19,0a.38.38,0,0,0-.29.21,1,1,0,0,0-.08.37V4.3l0,.15,0,.14a1,1,0,0,1,0,.26l0,.24v.43l0,.42v.34l0,.35.06.85,0,.4V8.3l0,.21a.86.86,0,0,0,0,.32l0,.13a1,1,0,0,1,0,.27l0,.26v.72l0,.32a.34.34,0,0,0,0,.1.35.35,0,0,1,0,.14l0,.07a1.34,1.34,0,0,0,0,.4l0,.08,0,.21v.32l0,.43,0,.37v.87l0,.11a1.34,1.34,0,0,0,0,.4l0,.1a.25.25,0,0,1,0,.12.74.74,0,0,0,0,.12v.32l0,.24a.93.93,0,0,1,0,.29l0,.11a.18.18,0,0,0,0,.13.83.83,0,0,1,0,.13v.61l0,.45,0,.58-.06.83-.13.18-.21.24-.11.11-.18.13a1.15,1.15,0,0,1-.48.16h-.16Z"/><path class="cls-2" d="M57.67,18.93a1,1,0,0,1-.34-.18l-.08-.06-.16-.21a1.24,1.24,0,0,1-.16-.24l-.16-.37a1.08,1.08,0,0,1-.08-.34l0-.59,0-.18a.58.58,0,0,0,0-.32v-.05l0-.22,0-.39v-.45l0-.06v-.42l0-.16v-.21l0-.37,0-.35V13l-.06-.32v-.18l0-.32,0-.29a.91.91,0,0,1,0-.27l0-.1v-.27l-.06-.69,0-.42,0-.21,0-.16V9l0-.34a.87.87,0,0,0,0-.27l0-.1a.5.5,0,0,1,0-.3l0-.26V7.34l0-.31V6.84l0-.29V5.67l0-.31,0-.48,0-.37V3.31l0-.45V2.07l0-.61a.77.77,0,0,1,.05-.29l0-.16A.49.49,0,0,1,56.93.8l0-.08A.81.81,0,0,1,57.4.4l.27-.13a.88.88,0,0,1,.42-.08,1,1,0,0,1,.48.13l.11,0,.16.11a.78.78,0,0,1,.29.34l.16.29a1.23,1.23,0,0,1,.1.43l0,.69,0,.37,0,.4v.39l0,.35v.4l0,.29v.21l0,.32,0,.82,0,.45v.32l0,.42,0,.72,0,.21a.27.27,0,0,0,0,.11c.06.16.32.25.8.29l.21,0h.21l.37,0,.19,0h.11a.79.79,0,0,0,.26,0l.08,0h.21l.19,0h.24l.55-.05H63a.33.33,0,0,0,.26-.16.89.89,0,0,0,.19-.45.46.46,0,0,0,0-.27v-.1l0-.14V6l0-.4,0-.26,0-.19v0l0-.21a.39.39,0,0,1,0-.14.36.36,0,0,0,0-.1V4.32l0-.24V3.63l0-.18a1.14,1.14,0,0,0,0-.37l-.06-.22,0-.18,0-.16V2.41l0-.53a2,2,0,0,1,.05-.32l.11-.39a1.17,1.17,0,0,1,.32-.48l0,0L63.93.5A.65.65,0,0,1,64.3.32a.7.7,0,0,1,.24,0h.26a1,1,0,0,1,.61.27l.06,0,.15.14a1,1,0,0,1,.22.42l0,.05.11.59,0,.63v.8l0,.26a1,1,0,0,1,0,.3v.31l0,.32,0,.16a1,1,0,0,0,0,.35l0,.13a.56.56,0,0,1,0,.32l0,.18L66,6v.42l0,.37v.43l0,.26v.13l0,.3,0,.42V10l0,.16v.08a.78.78,0,0,1,0,.24v.32l0,.18v.16l0,.32,0,.48,0,.34v.32l0,.18v0l.08.29-.06.19a1.34,1.34,0,0,0,0,.4l0,.1a.51.51,0,0,1,0,.21v.27l0,.4,0,.31v.8l0,.45,0,.32-.06.21V17l0,.4a1.5,1.5,0,0,1,0,.35l0,.1a1.39,1.39,0,0,1-.16.35l-.11.18-.24.29-.16.08a.7.7,0,0,1-.42.08l-.51,0-.15-.06a.86.86,0,0,1-.35-.21l0,0-.11-.13a1.27,1.27,0,0,1-.18-.35l-.14-.42a1.83,1.83,0,0,1,0-.19l-.05-.66,0-.19v-.32l0-.21v-.16l0-.34,0-.24a1.65,1.65,0,0,1,0-.27l0-.1v-.29l0-.24,0-.29a.82.82,0,0,0,0-.27l0-.11V13.5l0-.24,0-.16-.05-.8,0-.29,0-.16,0-.29c0-.25-.12-.4-.26-.45a.85.85,0,0,0-.35-.08h-.42l-.48.05h-.42l-.4,0-.37,0h-.51a.93.93,0,0,0-.29,0l-.16.05a.59.59,0,0,0-.25.25,1.33,1.33,0,0,0-.15.55v.45l.08.45v.37l0,.21a.87.87,0,0,0,0,.27l0,.32,0,.21v.53l0,.42,0,.27,0,.18,0,.35,0,.18v.27l0,.13v.24l.06.48,0,.26-.05.37a1,1,0,0,1-.11.32l-.08.16-.1.16a1.25,1.25,0,0,1-.4.27l-.16.05-.64.13Z"/><path class="cls-2" d="M79.09,10l0,.24a.78.78,0,0,1,0,.24l-.05.21,0,.16v1.06l0,.42,0,.35a1.37,1.37,0,0,1,0,.18l-.11.32,0,.4-.16.77-.11.48-.13.37-.16.34-.13.37-.32.59a1.32,1.32,0,0,1-.16.23l-.08.08c0,.06-.12.14-.19.24l-.07.14a.75.75,0,0,1-.27.26l0,0-.16.13-.13.13-.16.13-.34.22-.32.16-.32.18-.06.05-.12.06-.24.08-.82.16-.32.05-.21,0h-.14a1.12,1.12,0,0,1-.29,0l-.18,0-.43-.05-.37-.08-.19,0a.94.94,0,0,1-.34-.18l-.11-.05-.31-.24L71.09,18l-.3-.29-.13-.14-.16-.24-.42-.53L70,16.62l-.16-.26-.08-.16a1.17,1.17,0,0,0-.08-.13l-.08-.16,0-.16V15.7s0-.06,0-.07,0,0,0,0l0-.16-.08-.1-.16-.43,0-.24-.24-.82v-.16a.93.93,0,0,0-.08-.34l0-.14L68.75,13l0-.37,0-.4v-.29a.41.41,0,0,0,0-.21l0-.13,0-.16,0-.35,0-.45-.06-.74v-.8l.06-.47.08-.4,0-.34,0-.38V7.19l0-.22.06-.24.08-.29a1,1,0,0,0,0-.21L69,6l.15-.67L69.26,5l0-.05a.66.66,0,0,0,.11-.24l.13-.47A.89.89,0,0,1,69.63,4l.13-.21a.09.09,0,0,0,0-.07.14.14,0,0,1,0-.07L70,3.31,70.11,3l.18-.34.16-.32.11-.13L71,1.72l.14-.21a1.09,1.09,0,0,1,.31-.29l.08-.05.1-.06.09-.05L72.2.61l.21,0L72.57.5l.13,0a1.13,1.13,0,0,1,.24,0l.21,0,.83,0h.21l.16,0L75,.48l.37.1.64.3L76.2,1l.22.16.58.61a.69.69,0,0,1,.13.16l.35.55.16.29.08.16.1.14.11.15.13.24.08.3,0,.13,0,.21a.2.2,0,0,0,0,.09.1.1,0,0,0,0,.07l.23.61a.32.32,0,0,1,0,.16l.08.42,0,.21v.11a1.66,1.66,0,0,0,0,.24l.06.24.08.34,0,.43.08.39,0,.19v.27l0,.87.13.87Zm-2.78.26,0-.07v-.8l0-.16-.06-.34V8.38l0-.19,0-.16V7.72l0-.16,0-.19,0-.16V7a1.82,1.82,0,0,0,0-.35l0-.08,0-.18,0-.51a.5.5,0,0,0-.08-.29l-.08-.13-.06-.21,0-.22-.05-.18-.11-.29-.08-.24,0-.08s-.06,0-.06,0l0-.11L75,3.55l-.13-.13-.3-.16L74,3.05l-.18,0a1.27,1.27,0,0,0-.35.1l0,0a.81.81,0,0,0-.34.32l-.3.42-.24.32-.07.13-.16.29L72,5.28s0,.07-.05.1a.29.29,0,0,0,0,.14l0,.1a.21.21,0,0,1,0,.12.41.41,0,0,0,0,.09L71.78,6a.4.4,0,0,0-.06.13v0l-.16.64,0,.16-.06.34,0,.22a1,1,0,0,0,0,.26v.29l-.05.19a1.69,1.69,0,0,0,0,.37l0,.24,0,.18a1.68,1.68,0,0,0,0,.38l0,.23v.4l0,.35,0,.24a1,1,0,0,0,0,.29l0,.29v.37l.08.42.05.43.11.58,0,.21.11.3.08.23a1.11,1.11,0,0,1,0,.19l0,.16a1.91,1.91,0,0,0,0,.29l.19.45a.68.68,0,0,0,.16.27l.18.24.29.29a1.11,1.11,0,0,0,.56.29l.27,0h.13a1.9,1.9,0,0,0,.37,0l.11,0,.18-.08a1.18,1.18,0,0,0,.35-.26l0-.06a.17.17,0,0,1,.1-.1l.16-.13a.65.65,0,0,0,.22-.22l.29-.45.13-.26,0-.16.11-.29.16-.69,0-.43.05-.24a.67.67,0,0,0,0-.23v-.24l0-.19,0-.24.06-.21v-.29l0-.19,0-.23,0-.19A.76.76,0,0,0,76.31,10.23Z"/><path class="cls-2" d="M91,2.28l0,.77,0,.4v.32l0,.15,0,.16a1.23,1.23,0,0,0,0,.35l0,.1v1l0,.29V6l0,.29,0,.19v.32l0,.18v.19l0,.69v.71l0,.19,0,.19a.26.26,0,0,1,0,.15.76.76,0,0,0,0,.14l0,.26v.43l0,.26a1.56,1.56,0,0,0,0,.27l0,.13a.71.71,0,0,1,0,.29l0,.13a1.66,1.66,0,0,0,0,.24l0,.27,0,.34L91,12l0,.29v.37L91,13a1,1,0,0,1,0,.26l0,.11v.27l0,.31,0,.27v.24l0,.34v.45l0,.14v.29l-.06.26,0,.16,0,.29,0,.32,0,.56v.24l-.08.5-.08.35-.18.15-.19.14-.34.16a1.28,1.28,0,0,1-.51.13h-.15l-.19-.08a.8.8,0,0,1-.32-.19l-.42-.34-.32-.27-.11-.16a2.39,2.39,0,0,1-.13-.21l-.11-.24-.23-.39-.11-.22-.13-.42-.29-.8-.16-.31-.24-.72-.13-.37-.16-.4-.16-.42-.11-.35L86,12.73l-.13-.4-.19-.4-.16-.37-.07-.32-.14-.34L85,10.16l-.13-.3-.08-.18-.08-.29L84.56,9l-.22-.56-.15-.18h0a1.16,1.16,0,0,1,0,.16,1.32,1.32,0,0,0,0,.29L84.05,9a.62.62,0,0,0,0,.19.66.66,0,0,1,0,.13l.08.58,0,.32v.19l0,.37v.4l0,.31,0,.4,0,.32v.08a.44.44,0,0,0,0,.19l0,.21,0,.18v.32l0,.37,0,.24a1,1,0,0,0,0,.27l.05.16a.93.93,0,0,1,0,.26l0,.27,0,.39v.4l.1.9,0,.27v.18l0,.61a1.44,1.44,0,0,1,0,.35v.05a.89.89,0,0,1-.18.43.66.66,0,0,1-.29.23l-.27.16a.82.82,0,0,1-.42.11l-.16,0-.4,0-.16-.05a.76.76,0,0,1-.26-.16l0,0a.62.62,0,0,1-.24-.29L82,18.19l-.11-.27-.1-.5-.06-.19a2.73,2.73,0,0,1,0-.37l0-.18V16l-.06-.45,0-.34,0-.37,0-.32a.88.88,0,0,0,0-.24l0-.16a.88.88,0,0,1,0-.24l0-.34,0-.19v-.24l0-.18,0-.27,0-.29V12l0-.39,0-.4v-.13l0-.19v-.1a.88.88,0,0,1,0-.24v-.32l0-.32,0-.24a.44.44,0,0,1,0-.32l0-.08a1.75,1.75,0,0,0,0-.29v-.1a.84.84,0,0,0,0-.1.36.36,0,0,1,0-.14l0-.08V8.27l0-.34V7.5l0-.37,0-.37,0-.4V6l0-.16-.06-.24V4.83a.41.41,0,0,0,0-.11.3.3,0,0,1,0-.13l0-.14a1,1,0,0,0,0-.34l0-.08V3.39l0-.16,0-.15V2.73l0-.69a1.84,1.84,0,0,1,0-.26l.08-.27.06-.18A1,1,0,0,1,81.83,1L82,.82l.13-.16A.53.53,0,0,1,82.3.45l.11-.08a1.12,1.12,0,0,1,.34-.13l.37-.08a.64.64,0,0,1,.32,0l.32.06.19,0a.81.81,0,0,1,.34.13L84.4.4a.77.77,0,0,1,.18.18l.19.19.18.29a1.28,1.28,0,0,1,.16.35l.14.66.08.37.08.32,0,.16.16.31v.16a.93.93,0,0,0,0,.24L85.8,4l0,.18c0,.11.08.22.13.35l.06.08.07.26,0,.16,0,.37a.35.35,0,0,0,.06.16l.18.53.08.19.11.18.08.22.1.31.14.37.1.4.14.45.07.24a1,1,0,0,0,.06.19l.16.32.16.58,0,.16.08.16.1.24.08-.06a1.45,1.45,0,0,0,.14-.5l.08-.4,0-.13V8.25l0-.77,0-.4V6.76l0-.4,0-.37V5.57l0-.45V4.88l0-.19,0-.34,0-.21a.78.78,0,0,0,0-.24V3.5l0-.32,0-.21V2.78l.06-.37V1.8l0-.16.06-.31.15-.59a1.38,1.38,0,0,1,.16-.37l.11-.13.16-.08a1.52,1.52,0,0,1,.37-.11l.32,0h.13a1.8,1.8,0,0,1,.37.05,1.49,1.49,0,0,1,.32.19l0,0a1,1,0,0,1,.19.24l.18.35a.73.73,0,0,1,.11.37l0,.63Z"/><path class="cls-3" d="M8.66,22.44l0,.69,0,.36v.29l0,.14,0,.15a.7.7,0,0,0,0,.31l0,.09v.92l0,.26v.14l0,.27,0,.16v.29l0,.17v.17l0,.62v.65l0,.17,0,.17a.32.32,0,0,1,0,.14.57.57,0,0,0,0,.12l0,.24v.38l0,.24a.7.7,0,0,0,0,.24l0,.12a1.22,1.22,0,0,1,0,.27l0,.12a.66.66,0,0,0,0,.21l0,.24,0,.31,0,.17,0,.26v.34l0,.29a1.66,1.66,0,0,1,0,.24l0,.09v.24l0,.29,0,.24v.22l0,.31v.41l0,.12v.26l0,.24,0,.14,0,.27,0,.29.05.5v.22l-.07.45L8.51,37l-.16.15-.17.12-.31.14a1.05,1.05,0,0,1-.46.12H7.27l-.17-.07a.66.66,0,0,1-.29-.17L6.43,37l-.29-.24L6,36.58l-.12-.19-.09-.21-.22-.36-.09-.19-.12-.39-.27-.72L5,34.23l-.22-.64-.12-.34-.14-.36-.15-.38-.09-.31-.15-.32L4,31.52l-.16-.35-.15-.34-.07-.29-.12-.31-.26-.67-.12-.27-.07-.16L3,28.86l-.12-.31-.19-.5-.14-.17h0a.53.53,0,0,1,0,.14,1.14,1.14,0,0,0,0,.27l-.05.19a.33.33,0,0,0,0,.17s0,.08,0,.12l.07.52,0,.29v.17l0,.34v.36l0,.28,0,.36,0,.29v.07a.34.34,0,0,0,0,.17l0,.19,0,.17v.29l0,.33,0,.22a.78.78,0,0,0,0,.24l0,.14a.88.88,0,0,1,0,.24l0,.24,0,.36v.36l.09.82,0,.24v.17l0,.55a1.14,1.14,0,0,1,0,.31v0a.83.83,0,0,1-.16.38.64.64,0,0,1-.27.22l-.24.14a.8.8,0,0,1-.38.1l-.15,0-.36,0L1,37.33a.55.55,0,0,1-.24-.15l0,0a.56.56,0,0,1-.22-.26L.5,36.82l-.09-.24-.1-.45,0-.17a2,2,0,0,1,0-.33l0-.17v-.65l0-.41,0-.31,0-.34,0-.28a.78.78,0,0,0,0-.22l0-.14a.78.78,0,0,1,0-.22l0-.31,0-.17V32.2l0-.17,0-.24,0-.27v-.31l0-.36,0-.36v-.12l0-.16v-.1a.78.78,0,0,1,0-.22v-.28l0-.29,0-.22a.37.37,0,0,1,0-.29l0-.07a1.42,1.42,0,0,0,0-.26v-.1l0-.08a.32.32,0,0,1,0-.13l0-.07v-.24l0-.32v-.38l0-.34,0-.33,0-.36v-.31l0-.15,0-.21v-.72s0-.07,0-.1a.17.17,0,0,1,0-.12l0-.12a.81.81,0,0,0,0-.31l0-.07v-.58l0-.14,0-.15v-.31l0-.62a.78.78,0,0,1,0-.24l.07-.24.05-.17a.93.93,0,0,1,.21-.33l.12-.12L.62,21a.52.52,0,0,1,.2-.19l.09-.07a.94.94,0,0,1,.31-.12l.34-.07a.64.64,0,0,1,.29,0l.28.05.17,0a.81.81,0,0,1,.31.12l.1.05.17.17.17.17.16.26a1.37,1.37,0,0,1,.15.31l.12.6.07.34.07.29,0,.14.14.29v.14a.91.91,0,0,0,0,.22L4,24l0,.17c0,.09.08.2.12.31l0,.07.07.24,0,.15.05.33a.41.41,0,0,0,0,.15l.17.47L4.6,26l.1.17.07.19.1.29L5,27l.09.36.12.4.08.22a.81.81,0,0,0,0,.17l.15.29.14.52,0,.15.07.14.1.22.07,0A1.58,1.58,0,0,0,6,29l.07-.36,0-.12v-.67l0-.69,0-.36v-.29l0-.36,0-.34v-.38l0-.41v-.21l0-.17,0-.31,0-.2a.59.59,0,0,0,0-.21v-.36l0-.29,0-.19v-.17l0-.33V22l0-.14,0-.29L6.38,21a1.1,1.1,0,0,1,.14-.33l.1-.12.14-.07a1.17,1.17,0,0,1,.34-.1l.29-.05h.12a1.56,1.56,0,0,1,.33.05,1.51,1.51,0,0,1,.29.17l0,.05a1.5,1.5,0,0,1,.17.21l.16.31a.72.72,0,0,1,.1.34l.05.58Z"/><path class="cls-3" d="M20.36,29.39l0,.22a.58.58,0,0,1,0,.21l0,.19,0,.15v1l0,.38,0,.31a.81.81,0,0,1,0,.17l-.1.29-.05.36-.14.69-.1.43-.12.34-.14.31-.12.34-.29.53a1,1,0,0,1-.14.21l-.08.07a1.83,1.83,0,0,0-.16.22l-.08.12a.47.47,0,0,1-.24.24l0,0-.14.12-.12.12-.15.12-.31.2-.29.14-.28.17-.06,0a.28.28,0,0,1-.11,0l-.22.07-.74.15-.29.05-.19,0h-.12l-.27,0-.16,0-.39-.05-.33-.07-.17,0a.89.89,0,0,1-.31-.17l-.1,0-.29-.21-.21-.15-.27-.26-.12-.12L12.59,36l-.38-.48-.08-.14L12,35.17,11.92,35a.75.75,0,0,0-.07-.12.55.55,0,0,1-.08-.15l0-.14v0a.08.08,0,0,0,0-.06s0,0,0,0l0-.14-.08-.1-.14-.38,0-.21-.21-.75v-.14a.75.75,0,0,0-.08-.31l0-.12-.05-.2,0-.33,0-.36v-.26a.49.49,0,0,0,0-.2l0-.12,0-.14,0-.31,0-.41-.05-.67V28.6l.05-.43.07-.36L11,27.5l0-.34v-.29l0-.19.05-.22.07-.26a1.06,1.06,0,0,0,0-.19l0-.24.14-.6.12-.29,0-.05a.51.51,0,0,0,.1-.21l.12-.43A.92.92,0,0,1,11.8,24l.12-.19a.14.14,0,0,0,0-.06.06.06,0,0,1,0-.06l.12-.29.14-.26.17-.32.14-.28.1-.12.36-.46.12-.19a.83.83,0,0,1,.29-.26l.07-.05.08-.05.09-.05.48-.41.19,0,.14-.05.12,0a.91.91,0,0,1,.22-.05l.19,0,.74-.05h.19l.15,0,.6.12.33.1.58.26.17.12.19.15.53.55a1,1,0,0,1,.12.14l.31.51.14.26.07.15.1.11.1.15.12.21.07.27,0,.12,0,.19a.19.19,0,0,0,0,.08.16.16,0,0,0,0,.06l.22.56a.28.28,0,0,1,0,.14l.08.38,0,.2v.09a1.5,1.5,0,0,0,0,.22L20,26l.07.31,0,.39.07.36,0,.17v.24l0,.79.12.79Zm-2.52.24,0-.07v-.72l0-.15,0-.31V28l0-.17,0-.14v-.29l0-.14,0-.17,0-.14v-.17a1.4,1.4,0,0,0-.05-.31l0-.08a.8.8,0,0,1,0-.16l-.05-.46a.4.4,0,0,0-.07-.26l-.08-.12,0-.19-.05-.2,0-.16-.09-.27L17,24.31l0-.08s-.05,0-.05,0l0-.1-.29-.5-.12-.12a1.44,1.44,0,0,0-.26-.15l-.48-.19-.17,0a1.21,1.21,0,0,0-.31.1l0,0a.73.73,0,0,0-.31.29l-.27.39-.21.28-.07.12-.15.27-.24.53a.41.41,0,0,1-.05.09.37.37,0,0,0,0,.12l0,.1a.13.13,0,0,1,0,.1.41.41,0,0,1,0,.09l-.07.17a.42.42,0,0,0-.05.12v0l-.14.58,0,.14,0,.32-.05.19a.82.82,0,0,0,0,.24v.26l-.05.17a1.3,1.3,0,0,0,0,.34l0,.21,0,.17a1.34,1.34,0,0,0,0,.33l0,.22v.36l0,.31,0,.22a1.34,1.34,0,0,0,0,.26l.05.27v.33l.07.39.05.38.1.53.05.19.09.26.07.22a.43.43,0,0,1,0,.17l0,.14a1.38,1.38,0,0,0,.05.26l.17.41a.83.83,0,0,0,.14.24l.17.22.26.26a1,1,0,0,0,.51.26l.24.05h.12a1.1,1.1,0,0,0,.33-.05l.1,0,.17-.07a1.28,1.28,0,0,0,.31-.24l.05,0a.13.13,0,0,1,.09-.1l.15-.12a.49.49,0,0,0,.19-.19l.26-.4.12-.24.05-.15.1-.26.14-.63.05-.38,0-.22a.55.55,0,0,0,0-.21v-.22l0-.16,0-.22,0-.19v-.27l0-.16,0-.22,0-.17A.7.7,0,0,0,17.84,29.63Z"/><path class="cls-3" d="M28.37,37.3a.59.59,0,0,1-.36-.14L27.84,37l-.26-.31a.47.47,0,0,1-.14-.19l-.22-.5-.1-.22,0-.14L27,35.41l-.15-.26L26.74,35l-.07-.21-.05-.08-.1-.16,0-.12-.22-.34-.1-.14-.09-.24,0-.07a1.51,1.51,0,0,0-.19-.29l-.05-.07-.09-.12-.12-.24-.17-.29-.26-.43-.1-.1-.09,0a.18.18,0,0,0,0,.2v.07l-.05.24a.7.7,0,0,0,0,.29l.05.38v.19l0,.31V34a.88.88,0,0,0,0,.24l0,.12a.81.81,0,0,1,0,.28l0,.24,0,.22,0,.14,0,.34,0,.5,0,.2-.1.48-.12.16a.22.22,0,0,1-.14.12l-.17.17-.15.07a.74.74,0,0,1-.36.07h-.36a1,1,0,0,1-.33,0h0a.89.89,0,0,1-.33-.32l-.1-.16-.19-.46a1.1,1.1,0,0,1-.07-.26l0-.51v-.36l0-.38,0-.34v-.31l0-.38,0-.38v-.7l0-.36V32l0-.34V31l0-.38,0-.68V29.2l0-.36,0-.43,0-.34v-.38l-.05-.22a.72.72,0,0,0,0-.13.25.25,0,0,1,0-.13l0-.1v-.53l0-.16a2.73,2.73,0,0,0,0-.32l0-.07a.39.39,0,0,0,0-.09.38.38,0,0,1,0-.15l0-.24v-.38l0-.29v-.36l0-.36V23.8l0-.41v-.55a.28.28,0,0,0,0-.09.26.26,0,0,1,0-.12l.05-.19,0-.15v-.12a1,1,0,0,1,.07-.29l.27-.52.07-.17a1.08,1.08,0,0,1,.22-.27l0,0a.89.89,0,0,1,.38-.22l.05,0a.91.91,0,0,1,.22-.05l.53-.05h.24a.5.5,0,0,1,.19,0l.26.05.36,0,.24.05.17.07.48.19.17.1.48.29.28.21.34.27.29.28.17.15a.49.49,0,0,1,.11.14l.15.22.26.31.19.26.2.29.07.12.24.58a.42.42,0,0,1,0,.12l0,.24.1.24.05.19.05.31.07.38,0,.22,0,.17.07.62V27a1.61,1.61,0,0,1,0,.26l-.08.22-.14.74-.1.31a.14.14,0,0,0,0,.06.11.11,0,0,1,0,.06l-.12.22-.08.21a.58.58,0,0,1-.14.27l-.41.5-.43.46a.23.23,0,0,1-.07.07.13.13,0,0,0-.07.05l-.36.24-.1.12a.2.2,0,0,0-.05.14,1.18,1.18,0,0,0,.08.38.47.47,0,0,0,.09.22l.34.5.16.29.24.36.1.17a.51.51,0,0,1,.1.21l.07.2.05.07,0,.09.1.17L29,34l.17.38.12.34.33.69.24.7,0,.24a.41.41,0,0,1,0,.19l-.07.26-.09.15a1,1,0,0,1-.29.24l-.15.07a.74.74,0,0,1-.57.12s-.06,0-.07,0h-.05Zm-3.26-8.41a1.23,1.23,0,0,0,.29,0h.07a.32.32,0,0,0,.17-.05l.43-.14a.9.9,0,0,0,.24-.12l.12-.07a1.47,1.47,0,0,0,.17-.15l.14-.16.26-.31.08-.22,0-.14.07-.7,0-.14,0-.15v-.19l-.07-.62-.07-.24a2.51,2.51,0,0,0-.1-.27l-.05-.07a.75.75,0,0,1-.09-.29,1,1,0,0,0-.17-.33l0,0-.14-.16-.17-.15-.09-.09-.12-.15L26,23.78l-.21-.17-.44-.31-.09,0h0c-.05,0-.11.07-.17.2a1,1,0,0,0-.05.31v.5l0,.34,0,.43,0,.34v.33l0,.38,0,.36v.32l0,.31,0,.38,0,.29,0,.7,0,.38.1.05Z"/><path class="cls-3" d="M40.22,27.69v.41l0,.43v.28l0,.39v.33l0,.36,0,.1,0,.24-.12.31a.29.29,0,0,0,0,.15l0,.26,0,.24,0,.19-.07.19-.08.17,0,.14a1,1,0,0,1-.12.29l0,0-.1.24,0,.1a.23.23,0,0,1-.08.14l-.28.6-.15.26-.16.29-.08.17-.09.19-.19.24-.41.58-.17.26-.14.1a.47.47,0,0,0-.24.24l0,.07-.07.07-.08,0-.24.19-.14.12a.67.67,0,0,1-.17.14l-.14.1-.15.07-.24.1-.5.28-.17,0-.14.05a.65.65,0,0,0-.29.14l-.07,0a.41.41,0,0,1-.22.1l-.19,0-.67.12-.17,0-.55,0a.67.67,0,0,1-.33-.08l-.05,0a1,1,0,0,1-.27-.17l-.24-.24-.12-.16a.63.63,0,0,1-.09-.2l0-.12a1.4,1.4,0,0,1-.05-.31v-.14l-.07-.7v-.19l0-.24,0-.19a.65.65,0,0,0,0-.34l0-.07,0-.21,0-.29.05-.65V32.7l0-.29v-.84l0-.21a.82.82,0,0,0,0-.27l0-.16,0-.12,0-.15v-.19l0-.17,0-.19,0-.31,0-.34,0-.31,0-.36,0-.26v-.22l0-.19,0-.14v-.32l0-.16v-.32l0-.12V26.9l0-.24,0-.27s0-.07,0-.12a.34.34,0,0,0,0-.17l-.05-.21v-.07l0-.17v-.22l0-.12V25.1l.05-.24V24.5l0-.22a.71.71,0,0,1,0-.29l0-.14a.2.2,0,0,0,0-.13s0-.08,0-.11v-.17l-.05-.26,0-.24,0-.19,0-.72,0-.15.1-.5.07-.19.09-.22.1-.09a.6.6,0,0,1,.36-.2h0l.63-.14h.4l.17,0h0l.26-.05.22.05.19,0h.15l.21.05.31.07.34.1.19,0,.13,0a.32.32,0,0,1,.13.05l.27.14.31.14.62.34.29.17a.66.66,0,0,1,.15.09l.16.15.29.21.07.15a.67.67,0,0,0,.27.29l.05,0,.14.21.05.1.21.29.1.14.26.53.17.26a.07.07,0,0,1,0,.06.06.06,0,0,0,0,.06l.09.24a.1.1,0,0,1,0,.08.14.14,0,0,0,0,.07l.1.17.07.21,0,.22.09.36.1.4.1.6V27l0,.17,0,.24Zm-2.5-.48,0-.43-.1-.56a.49.49,0,0,0,0-.19l-.07-.17-.05-.14-.07-.29-.05-.14a.38.38,0,0,0-.09-.19l-.15-.22L37,24.69l-.14-.22-.58-.67L36,23.66l-.16-.1-.19-.17a.94.94,0,0,0-.32-.14l-.5-.14a1.45,1.45,0,0,0-.29-.05l-.19,0,0,.15a1.56,1.56,0,0,0-.05.36l0,.6,0,.21v.19l0,.15a1,1,0,0,0,0,.31l0,.07,0,.19v.31l-.05.27v.21l0,.27v.36l0,.33,0,.2a.62.62,0,0,0,0,.33l0,.27,0,.19v.28l0,.15v.17l0,.24v.48l0,.16v.17l0,.31v.44l0,.19v.17l0,.33,0,.26v.48l0,.27v.19l0,.53v.07l0,.22,0,.14,0,.7,0,.26c0,.08.13.12.29.12a.78.78,0,0,0,.24,0l.17-.09.24-.17.38-.43.15-.22.16-.16.08-.05a.64.64,0,0,0,.21-.27l.1-.16.14-.27.36-.67.15-.31.12-.41.09-.31.1-.41,0-.26,0-.12,0-.12a.89.89,0,0,0,.07-.29v-.12a1.38,1.38,0,0,1,.05-.26l0-.05a1.23,1.23,0,0,0,0-.29v-.22l0-.36,0-.38,0-.21V27.5Z"/><path class="cls-3" d="M44.34,23.83v.07l0,.53,0,.31v.33l-.05.39,0,.31v.69l.08.63,0,.26c0,.19.31.34.77.43l.34.08a.8.8,0,0,1,.52.33l.2.24.07.17a.45.45,0,0,1,0,.19,1.38,1.38,0,0,1,0,.26l-.07.34-.1.17a.56.56,0,0,1-.22.26l-.09.07-.12.1a1.44,1.44,0,0,1-.27.1l-.45.12-.27,0a.43.43,0,0,0-.33.34.87.87,0,0,0,0,.26l0,.44,0,.28v.15l0,.33,0,.17,0,.14v.44l0,.33,0,.17a.78.78,0,0,1,0,.24l0,.14a.27.27,0,0,0,0,.13,1.15,1.15,0,0,1,0,.14l0,.33,0,.36.12.1s.19.09.45.12l.24,0h.22l.21,0h.22l.6.07.45.1.19.07.13,0,.23.16.12.12.08.15a1,1,0,0,1,.07.38v.22a1.58,1.58,0,0,1,0,.29l-.07.24-.1.14-.17.19,0,0a.61.61,0,0,1-.34.17l-.33.1-.27,0-.45,0h-.12l-.22,0h-.08a.3.3,0,0,1-.16,0l-.24,0h-.29l-.74.07h-.22l-.69-.1-.41-.09-.12-.07L42.4,37l-.19-.22-.15-.21a.38.38,0,0,1-.09-.19l0-.15a1.45,1.45,0,0,1-.05-.29v-.62l0-.22v-.19l0-.21v-.44l0-.14,0-.14v-.43l-.05-.34V32.8l0-.32,0-.33v-.24a.45.45,0,0,1,0-.11.2.2,0,0,0,0-.13l0-.12a.79.79,0,0,1,0-.26l0-.2,0-.38V30.3l.05-.21,0-.17v-.6l0-.29v-.22l0-.12,0-.19,0-.21v-.17l0-.17a.9.9,0,0,0,0-.24l0-.14a.88.88,0,0,1,0-.24l0-.19,0-.41,0-.36v-.7l0-.33,0-.39,0-.38,0-.22,0-.19v-.05l0-.16,0-.22,0-.22,0-.36,0-.38,0-.29,0-.45a1.08,1.08,0,0,1,.09-.46l.15-.29a1,1,0,0,1,.21-.28l.15-.15.14-.09a1,1,0,0,1,.38-.1l.48-.05h.08a.26.26,0,0,1,.12,0l.16,0h0l.17,0h.07l.36-.05a1.07,1.07,0,0,1,.29,0l.12,0a1.11,1.11,0,0,0,.29,0l.19,0,.33,0,.36,0,.53.05.41.07a.2.2,0,0,0,.11,0,.27.27,0,0,1,.13.05l.26.12.12.12a1.71,1.71,0,0,1,.17.29v0a1.57,1.57,0,0,1,0,.32l0,.6-.07.12s-.07.12-.17.26l-.07.09c0,.05-.06.09-.1.1l-.07.05-.07,0a.82.82,0,0,1-.33.12l-.51.07h-.77l-.84-.07-.12,0a.71.71,0,0,0-.33.22l0,0-.05.24v.05Z"/><path class="cls-3" d="M53.38,37.59l-.19,0-.21,0-.6-.12a.75.75,0,0,1-.19-.07l-.2-.07-.31-.17L51.44,37l-.17-.12L51,36.63l-.19-.16-.21-.2-.12-.12-.2-.26-.07-.19-.12-.24-.07-.1a.83.83,0,0,1-.14-.24l0-.17-.17-.72v-.14l0-.38a.85.85,0,0,1,.12-.46l.17-.17.14-.14.14-.12a1,1,0,0,1,.46-.14l.17,0h.21l.07,0a.82.82,0,0,1,.41.16l.19.2a.72.72,0,0,1,.17.33l.12.34.22.57.14.22a1,1,0,0,0,.14.17l.08.07a.54.54,0,0,0,.26.21s0,0,0,0,0,0,0,0l.17.07.21,0a.91.91,0,0,0,.27,0l.07,0a1,1,0,0,0,.41-.29l.12-.15a.59.59,0,0,0,.14-.26l.12-.33a.45.45,0,0,0,.05-.17l0-.17a1.25,1.25,0,0,0,0-.24v-.05l0-.21,0-.2a.51.51,0,0,0,0-.16v0l-.08-.27,0-.21,0-.17L54.22,32,54,31.6l-.09-.12-.17-.24-.07-.15a2.31,2.31,0,0,0-.22-.24l-.07,0-.12-.12-.15-.17L52.59,30l-.21-.14-.12-.12L52,29.46,51.47,29l-.29-.24-.24-.21-.51-.43-.16-.17-.17-.24-.1-.12a.69.69,0,0,1-.14-.31l0-.08-.09-.24-.1-.16-.16-.36v-.2a.91.91,0,0,0,0-.31l0-.07a.68.68,0,0,1,0-.33v-.2l0-.33v-.24a.28.28,0,0,1,0-.09l0-.06.17-.62,0-.31a.54.54,0,0,1,0-.15l.07-.19,0-.17.1-.16a.14.14,0,0,0,0-.07.1.1,0,0,1,0-.08l.28-.4.1-.15.24-.21.34-.46a.66.66,0,0,1,.19-.17l.26-.19.27-.22L51.8,21,52,20.9l.28-.1.39-.07.26-.07.19-.05.24,0h.34l.43.05.46.09a.76.76,0,0,1,.33.12l.19.12.32.17s0,0,.06,0a.05.05,0,0,1,.05,0l.2.14.21.15a.34.34,0,0,1,.12.12l.22.26.19.29.12.19.07.14.12.34.1.17a1.1,1.1,0,0,1,.07.26l.07.5V24a.73.73,0,0,1-.12.38l-.09.17a.73.73,0,0,1-.24.29l-.1.09-.14.05A.85.85,0,0,1,56,25h-.29a1,1,0,0,1-.45-.12l-.1-.05a.93.93,0,0,1-.41-.53l-.09-.24-.17-.38a1.06,1.06,0,0,0-.24-.34l-.14-.14-.17-.08a.82.82,0,0,0-.34-.09h-.07l-.34.05a.76.76,0,0,0-.31.12l0,0-.14.15,0,0-.19.21-.14.17,0,.06a.56.56,0,0,0-.05.08l-.17.34,0,.19-.05.17a.78.78,0,0,0,0,.24v.26l0,.32.07.24a.26.26,0,0,0,.05.14L52,26a.85.85,0,0,0,.17.29l.15.14.52.46.24.19.31.24.29.29.53.46.29.19.24.24.29.31.12.09.16.2.1.14.24.26L56,30a.45.45,0,0,1,.12.21l.05.17.09.22.05.09.07.12.1.1a.86.86,0,0,1,.12.34l0,.11.1.34.07.22,0,.14.1.77.07.62a1.26,1.26,0,0,1,0,.26l0,.22,0,.38-.08.2,0,.09a.21.21,0,0,0,0,.12v.12a1.25,1.25,0,0,1-.07.27l-.22.48-.09.21a.73.73,0,0,1-.12.19l-.19.22-.15.17-.09.12-.24.19-.39.33a.46.46,0,0,1-.24.15l-.55.24-.24,0a.38.38,0,0,1-.17,0h-.24l-.26.05Z"/><path class="cls-3" d="M62.93,37.45a.84.84,0,0,1-.5-.15l-.29-.19L62,37a.68.68,0,0,1-.19-.34l-.1-.33a.9.9,0,0,1,0-.24v-.53l-.05-.38,0-.2a.61.61,0,0,0,0-.33l0-.24V34l0-.16a.37.37,0,0,0,0-.17.47.47,0,0,0,0-.19l0-.1a.48.48,0,0,1,0-.22l0-.21v-.41l0-.29v-.45l0-.36,0-.19v-.22l0-.17,0-.19,0-.34,0-.24V29.7l0-.43v-.36l0-.36V28.1l0-.24v-.34l0-.29v-.17l0-.31v-.36l0-.21v-.24l0-.17a.81.81,0,0,0,0-.31l0-.15,0-.43,0-.5a.34.34,0,0,1,0-.1.17.17,0,0,0,0-.12v-.05l0-.26-.05-.31c0-.08-.08-.15-.2-.22a1.34,1.34,0,0,0-.44-.12h-.19l-.7.07h-.65a.84.84,0,0,1-.48-.14l-.09-.05L58.61,23a.61.61,0,0,1-.24-.31.81.81,0,0,1-.09-.29l0-.34V22a1,1,0,0,1,0-.27v0a.85.85,0,0,1,.14-.34l0,0a1.4,1.4,0,0,1,.36-.24l.41-.17a.91.91,0,0,1,.22,0l.62-.09.48-.05h2.09l.29,0h.7a.14.14,0,0,0,.11,0l.12,0a.7.7,0,0,1,.24,0h.31l.22,0H65a.17.17,0,0,0,.12,0h0l.22-.05.41,0,.65,0,.21.07a.09.09,0,0,0,.07,0,.12.12,0,0,1,.1.05l.12.07.17.12.07.05a.92.92,0,0,1,.19.28l.07.15a1.18,1.18,0,0,1,.1.5.28.28,0,0,1,0,.15.29.29,0,0,0,0,.09l-.08.19a.14.14,0,0,0,0,.06.08.08,0,0,1,0,.06l-.08.1a.76.76,0,0,1-.36.26l-.09.05-.53.17a.85.85,0,0,1-.26.05l-.17,0-.31,0,0,0-.19,0-.79.07-.17,0a.4.4,0,0,0-.27.19,1.09,1.09,0,0,0-.07.34v.53l0,.14,0,.12a.9.9,0,0,1,0,.24l0,.22v.38l0,.39v.31l0,.31,0,.77,0,.36v.38l0,.19a.71.71,0,0,0,0,.29l0,.12a.78.78,0,0,1,0,.24l0,.24v.65l0,.28a.31.31,0,0,0,0,.1.26.26,0,0,1,0,.12l0,.07a2.16,2.16,0,0,0,0,.36l0,.07,0,.2v.28l0,.39,0,.33v.79l0,.1a1.09,1.09,0,0,0,0,.36l0,.1a.11.11,0,0,1,0,.1s0,.08,0,.11v.29l0,.22a.79.79,0,0,1,0,.26l0,.09a.17.17,0,0,0,0,.12s0,.09,0,.12V35l0,.4,0,.53,0,.75-.12.16-.19.22-.1.09-.17.12a.85.85,0,0,1-.43.15h-.14Z"/><path class="cls-3" d="M71.71,23.83v.07l0,.53,0,.31v.33l0,.39,0,.31v.69l.07.63,0,.26c0,.19.3.34.76.43l.34.08a.85.85,0,0,1,.53.33l.19.24.07.17a.45.45,0,0,1,0,.19,1.38,1.38,0,0,1,0,.26l-.07.34-.1.17a.54.54,0,0,1-.21.26l-.1.07-.12.1a1.28,1.28,0,0,1-.26.1l-.46.12-.26,0a.43.43,0,0,0-.34.34,1.42,1.42,0,0,0,0,.26l0,.44,0,.28v.15l0,.33,0,.17,0,.14v.44l0,.33,0,.17a.78.78,0,0,1,0,.24l0,.14a.19.19,0,0,0,0,.13.82.82,0,0,1,0,.14l0,.33,0,.36.12.1a.94.94,0,0,0,.45.12l.24,0h.22l.22,0h.21l.6.07.46.1.19.07.12,0,.24.16.12.12.07.15a.81.81,0,0,1,.07.38v.22a1,1,0,0,1,0,.29l-.07.24-.09.14-.17.19,0,0a.58.58,0,0,1-.34.17l-.33.1-.26,0-.46,0h-.12l-.22,0h-.08a.3.3,0,0,1-.16,0l-.24,0h-.28l-.75.07h-.21l-.7-.1-.41-.09L70,37.14,69.76,37l-.19-.22-.14-.21a.39.39,0,0,1-.1-.19l0-.15a1.3,1.3,0,0,1,0-.29v-.62l0-.22v-.19l0-.21v-.44l0-.14,0-.14v-.43l0-.34V32.8l0-.32,0-.33v-.24a.52.52,0,0,1,0-.11.32.32,0,0,0,0-.13l0-.12a.87.87,0,0,1,0-.26l0-.2,0-.38V30.3l0-.21,0-.17v-.6l0-.29v-.22l0-.12,0-.19,0-.21v-.17l0-.17a.88.88,0,0,0,0-.24l0-.14a.9.9,0,0,1,0-.24l0-.19,0-.41,0-.36v-.7l0-.33,0-.39,0-.38,0-.22,0-.19v-.05l0-.16,0-.22,0-.22,0-.36,0-.38,0-.29,0-.45a1,1,0,0,1,.1-.46l.14-.29a1.08,1.08,0,0,1,.22-.28l.14-.15.14-.09a1,1,0,0,1,.39-.1l.48-.05h.07a.26.26,0,0,1,.12,0l.17,0h0l.16,0h.08l.35-.05a1,1,0,0,1,.29,0l.12,0a1.15,1.15,0,0,0,.29,0l.19,0,.34,0,.36,0,.53.05.4.07a.2.2,0,0,0,.11,0,.27.27,0,0,1,.13.05l.27.12.12.12a3.13,3.13,0,0,1,.16.29v0a1.09,1.09,0,0,1,0,.32l0,.6-.08.12a2.64,2.64,0,0,1-.16.26l-.08.09a.22.22,0,0,1-.09.1s-.06,0-.07.05l-.08,0a.76.76,0,0,1-.33.12l-.5.07H73.1l-.84-.07-.12,0a.73.73,0,0,0-.34.22l0,0,0,.24v.05Z"/><path class="cls-4" d="M26.13,58.4a.5.5,0,0,1-.19,0l-.21,0-.6-.12a.56.56,0,0,1-.2-.07l-.19-.07-.31-.17-.24-.12L24,57.65l-.24-.21-.19-.17-.21-.19L23.25,57l-.19-.27L23,56.5l-.12-.24-.07-.09a.63.63,0,0,1-.14-.24l-.05-.17L22.44,55v-.15l0-.38a.79.79,0,0,1,.12-.45l.16-.17.15-.15.14-.12a.91.91,0,0,1,.46-.14l.16,0h.22l.07,0a.86.86,0,0,1,.41.17l.19.19a.76.76,0,0,1,.17.34l.12.33.22.58.14.21a1,1,0,0,0,.14.17l.08.07a.56.56,0,0,0,.26.22s0,0,0,0,0,0,0,0l.17.07.21,0a.72.72,0,0,0,.26,0l.08,0a.87.87,0,0,0,.4-.29l.12-.14a.55.55,0,0,0,.15-.27l.12-.33a.41.41,0,0,0,0-.17l0-.17a1.25,1.25,0,0,0,0-.24v0l0-.22,0-.19a.34.34,0,0,0,0-.17v-.05l-.07-.26,0-.22L27,52.9,27,52.76l-.19-.36-.1-.12L26.52,52l-.08-.14s-.08-.11-.21-.24l-.07,0L26,51.49l-.15-.17-.55-.53-.21-.14L25,50.53l-.24-.26-.56-.48-.28-.24-.24-.22-.51-.43L23,48.73l-.17-.24-.1-.12a.64.64,0,0,1-.14-.31l0-.07-.09-.24-.1-.17-.17-.36V47a.9.9,0,0,0,0-.31l0-.08a.68.68,0,0,1,0-.33v-.19l0-.34v-.24a.19.19,0,0,1,0-.08.09.09,0,0,1,0-.06l.17-.63.05-.31a.46.46,0,0,1,0-.14l.07-.19.05-.17.1-.17a.14.14,0,0,0,0-.07.08.08,0,0,1,0-.07l.28-.41.1-.14.24-.22.33-.46a1,1,0,0,1,.2-.16l.26-.2.26-.21.22-.1.14,0,.29-.09.39-.07.26-.08.19,0,.24,0h.34l.43,0,.45.1a.81.81,0,0,1,.34.12l.19.12.31.16a.09.09,0,0,0,.06,0,.08.08,0,0,1,.06,0l.2.15.21.14a.34.34,0,0,1,.12.12l.22.26.19.29.12.19.07.15.12.33.1.17a2.16,2.16,0,0,1,.07.26l.07.51v.19a.68.68,0,0,1-.12.38l-.1.17a.6.6,0,0,1-.24.29l-.09.1-.15,0a.68.68,0,0,1-.33.1h-.29a1,1,0,0,1-.45-.12l-.1-.05a.9.9,0,0,1-.41-.53l-.09-.24-.17-.38a1.34,1.34,0,0,0-.24-.34L26.8,44,26.64,44a.85.85,0,0,0-.34-.1h-.07l-.34,0a1.22,1.22,0,0,0-.31.12l0,0-.14.14-.05.05-.19.22-.14.16-.05.06-.05.09-.17.33,0,.2,0,.16a.88.88,0,0,0,0,.24V46l-.05.31.08.24a.33.33,0,0,0,0,.14l0,.15a.9.9,0,0,0,.17.28l.14.15.53.45.24.2.31.24.29.28.53.46.29.19.24.24.28.31.12.1.17.19.1.14.24.27.36.5a.53.53,0,0,1,.12.22l.05.17.09.21,0,.1.07.12.1.09a.92.92,0,0,1,.12.34l0,.12.1.33.07.22,0,.14.1.77.07.62a1.47,1.47,0,0,1,0,.27l0,.21-.05.39-.07.19a.47.47,0,0,1,0,.1.37.37,0,0,0,0,.12v.12a1.1,1.1,0,0,1-.07.26l-.22.48-.09.22a1,1,0,0,1-.12.19l-.2.21-.14.17-.09.12-.24.19-.39.34a.43.43,0,0,1-.24.14l-.55.24-.24,0a.41.41,0,0,1-.17.05h-.24l-.26,0Z"/><path class="cls-4" d="M40.11,56.6V57a.76.76,0,0,1,0,.24l0,0a.76.76,0,0,1-.17.36l-.19.19a1,1,0,0,1-.41.17l-.36.07-.19,0-.29,0-.14-.1-.17-.17-.1-.14a.45.45,0,0,1-.12-.21l-.19-.56-.05-.12a.93.93,0,0,0,0-.1.52.52,0,0,1,0-.11v-.05l0-.22-.15-.67v-.14a1.23,1.23,0,0,0-.07-.24l-.05-.12a1.9,1.9,0,0,1-.07-.24l0-.43,0-.12a.52.52,0,0,0-.32-.19l-.19,0-.14,0h-.24l-.12,0a.17.17,0,0,1-.12,0h-.1l-.17,0-.4,0-.17,0a.7.7,0,0,1-.24,0h-.53l-.12.09a.77.77,0,0,0-.21.41l-.08.24a.69.69,0,0,0,0,.17l0,.28-.09.72-.08.65,0,.12-.14.46a.91.91,0,0,1-.12.26l-.15.22a.78.78,0,0,1-.41.33l-.12,0-.14.07a.26.26,0,0,1-.14,0,1,1,0,0,1-.27,0l-.17,0a.85.85,0,0,1-.52-.29l-.15-.19,0-.1a.59.59,0,0,1-.15-.33l0-.2V57a1.66,1.66,0,0,1,0-.24l.1-.43.07-.74.05-.36.07-.29,0-.14,0-.17a1.1,1.1,0,0,1,.07-.26l.05-.1a1.3,1.3,0,0,0,0-.29l0-.14,0-.41.1-.19A.44.44,0,0,0,32,53v0l0-.21.08-.27,0-.12.05-.31,0-.22a.68.68,0,0,0,0-.21v-.24l.05-.38.07-.39.08-.21a.54.54,0,0,0,0-.22l0-.19a.32.32,0,0,1,0-.19l0-.12a1,1,0,0,0,.05-.24v-.12l0-.15,0-.26.1-.31a.37.37,0,0,0,0-.17v-.05l0-.19.12-.72.09-.34,0-.36.07-.31,0-.17v-.19a1,1,0,0,1,0-.24l0-.12,0-.14,0-.19a.91.91,0,0,1,0-.22l.07-.21s0,0,0,0a.08.08,0,0,0,0-.06l0-.24,0-.43.07-.36.14-.67.15-.55.07-.17.14-.31.12-.15a.48.48,0,0,1,.22-.19l.12-.07a.63.63,0,0,1,.16-.1l.36-.14a1.1,1.1,0,0,1,.29-.07l.24,0,.17,0,.14,0,.27,0,.12,0,.19.07.12.05a.35.35,0,0,1,.12.07l.26.27a.9.9,0,0,1,.19.36l.15.52.12.32.12.45.07.7.07.38.15.58a.66.66,0,0,1,0,.19l.07.57.05.29.12.38.07.32.07.4v.15a.88.88,0,0,0,0,.24l.14.62.15.65,0,.41,0,.26a.22.22,0,0,0,0,.1l0,.07.07.19.05.19,0,.22,0,.12,0,.17.05.21v.29a.25.25,0,0,0,0,.19l0,.1.09.31a.5.5,0,0,1,0,.17l0,.28.09.36.17.68,0,.28v.08l0,.21.07.29a.82.82,0,0,1,0,.22v.19a2,2,0,0,0,.05.24l.07.21,0,.29.09.38.08.27a.79.79,0,0,1,0,.17Zm-3.54-5.25a.73.73,0,0,0,0-.22l-.12-.48-.05-.26,0-.12v-.2a.76.76,0,0,0-.07-.31l0-.09-.07-.17,0-.34,0-.19a.65.65,0,0,0,0-.22l-.07-.31L36,48.13l-.1-.45-.12-.6-.12-.34-.07,0-.1.19a.39.39,0,0,0-.05.14l0,.22a1.13,1.13,0,0,0,0,.21v.29l-.07.19a.67.67,0,0,0,0,.17l0,.22a.47.47,0,0,1,0,.17v0l-.1.27,0,.4,0,.34,0,.29s0,.06,0,.08a.09.09,0,0,1,0,.06l0,.19a.91.91,0,0,0,0,.22v.14l0,.17-.12.55,0,.15s.16.11.41.19a.43.43,0,0,0,.15,0l.36,0H36l.24,0h.05a.36.36,0,0,0,.13,0,.29.29,0,0,0,.13-.14A.27.27,0,0,0,36.57,51.35Z"/><path class="cls-4" d="M44,58.18l-.6-.12L43.23,58l-.09,0a.58.58,0,0,1-.32-.24l0,0a.36.36,0,0,0-.07-.1.4.4,0,0,1-.1-.12l-.1-.17-.21-.64,0-.24a.5.5,0,0,0,0-.2l0-.14a1.85,1.85,0,0,1,0-.29v-.17l-.07-.74,0-.36,0-.19a1.23,1.23,0,0,0,0-.29l0-.17,0-.14v-.31l0-.36,0-.36V52l0-.09,0-.17a.83.83,0,0,1,0-.24l0-.22v-.38l0-.29v-.43l0-.34,0-.38v-.31l0-.34,0-.38V48l0-.29v-.22l0-.26V47l0-.27V46.5l0-.33V46s0-.07,0-.11a.2.2,0,0,1,0-.13l0-.07v-.89l0-.29a1.34,1.34,0,0,1,0-.26l0-.07a2.33,2.33,0,0,0,0-.29l-.05-.29,0-.33,0-.29,0-.41a1.15,1.15,0,0,1,.09-.36l.08-.17a.72.72,0,0,1,.38-.43l.17-.1a.39.39,0,0,1,.21,0,1.06,1.06,0,0,1,.27,0l.38.05.12,0a.8.8,0,0,1,.29.24l0,0a.26.26,0,0,1,.12.19l.19.43a.67.67,0,0,1,.08.29l0,.65v1l0,.14,0,.19a.81.81,0,0,0,0,.31l0,.15,0,.38,0,.34v.4l-.05.72.05.17v.22l0,.31v1.41l0,.34v.41l0,.31,0,.36,0,.41v.31l0,.33,0,.46,0,.22v.14l0,.24v.43l0,.46,0,.33,0,.27s0,.07,0,.12a.23.23,0,0,0,0,.14l0,.07V55l0,.19,0,.07a.33.33,0,0,0,.14.26.6.6,0,0,0,.32.15l.19,0h.09l.63,0,.64-.07h.32l.14,0,.26,0,.44,0a1,1,0,0,1,.43.14l.26.19a1.06,1.06,0,0,1,.24.22l0,.09,0,.15a1.47,1.47,0,0,1,0,.33l0,.34a.7.7,0,0,1-.1.29l-.07.19-.09.09a.79.79,0,0,1-.29.17L48,58l-.24,0-.63.05-.21,0a.3.3,0,0,1-.15,0l-.14,0-.17,0h-.19l-.94.07-.62,0-.19,0a.87.87,0,0,1-.26,0Z"/><path class="cls-4" d="M53.28,58.28,53,58.23h0a1,1,0,0,1-.34-.15L52.56,58l-.17-.09a1.14,1.14,0,0,1-.28-.31l-.22-.39-.17-.31-.09-.21-.05-.15-.15-.62-.12-.39-.09-.21a1.12,1.12,0,0,1-.07-.27v0a.74.74,0,0,0-.08-.36l0-.08s0,0,0-.07a.16.16,0,0,0,0-.09l-.12-.65-.07-.29L50.69,53v-.24l0-.12v-.07l-.05-.24-.07-.41,0-.21a.51.51,0,0,0,0-.13l-.1-.21a.51.51,0,0,1-.05-.22l0-.24,0-.31v-.05l0-.14-.05-.22-.1-.33L50,49.5l0-.36,0-.29a.48.48,0,0,0-.08-.29l0-.09a.74.74,0,0,1-.05-.29v-.07a.47.47,0,0,0,0-.19l-.07-.27-.07-.31-.07-.41-.05-.31a.88.88,0,0,0,0-.17l0-.12a1.44,1.44,0,0,1-.05-.24V46a.62.62,0,0,0,0-.21l-.05-.29-.07-.36,0-.46-.07-.36,0-.38-.05-.26L49,43l0-.41V42.5a1.29,1.29,0,0,1,.12-.48l.1-.17.17-.19.14-.15.15,0a.76.76,0,0,1,.31,0l.6,0,.21.15.1.07.1.09a.87.87,0,0,1,.21.32l.12.28.05.1a.3.3,0,0,1,0,.1l.1.57,0,.31.09.43,0,.15a.92.92,0,0,1,0,.29v.26l0,.14.09.56.1.31a.41.41,0,0,1,0,.17l0,.24,0,.31.17.76.07.39v.31l.07.36,0,.17a1.63,1.63,0,0,1,.05.36v.07a2.34,2.34,0,0,0,.07.34l0,.07a.55.55,0,0,1,0,.21v.12a.59.59,0,0,0,.05.22l.07.26,0,.22a2,2,0,0,0,0,.24l.07.21a.56.56,0,0,1,0,.2l0,.21,0,.27a.41.41,0,0,0,.05.16l.07.22,0,.19,0,.31,0,.24a.71.71,0,0,0,0,.27l0,.09a.41.41,0,0,1,0,.17l.05.34.07.33.08.12s0,0,0,0,.12-.06.17-.17l.07-.22.1-.48.19-.77.07-.35,0-.22,0-.14.1-.32.07-.21,0-.15v-.21l0-.19.12-.51,0-.19,0-.24.07-.38.07-.36.1-.27.09-.36.05-.33,0-.31a.46.46,0,0,1,0-.2l.17-.6,0-.19a.56.56,0,0,0,.05-.16V46a2,2,0,0,1,0-.24l.07-.29.07-.26.08-.41,0-.15a.6.6,0,0,0,.08-.28l0-.2,0-.33a.57.57,0,0,1,.05-.17l.07-.19,0-.1v-.09l.19-.77a.17.17,0,0,1,0-.12l.17-.38a.75.75,0,0,1,.21-.29l0,0a1.32,1.32,0,0,1,.29-.19l.19-.07h.26a1.45,1.45,0,0,1,.29.05l.24.07a.78.78,0,0,1,.38.24.69.69,0,0,1,.22.36l0,.07.05.22a.2.2,0,0,1,0,.13s0,.08,0,.11l-.05.53a.41.41,0,0,1,0,.16l-.14.58-.08.36-.07.41-.07.38,0,.26a.42.42,0,0,1,0,.12l-.1.32,0,.28-.07.36-.09.27a.38.38,0,0,0,0,.16v.2a.56.56,0,0,1,0,.16l-.07.29-.09.27a.24.24,0,0,0,0,.12v0l0,.32-.05.33,0,.29,0,.12-.12.33,0,.32L57,50l-.1.41-.07.31-.1.39,0,.24a.33.33,0,0,0,0,.13.4.4,0,0,1,0,.13l0,.12a.5.5,0,0,0,0,.17v0l-.07.24-.05.32-.12.36-.05.4,0,.34-.19.67a1.06,1.06,0,0,0-.05.19l0,.27-.07.14a.62.62,0,0,0-.07.29l0,.21,0,.27a.22.22,0,0,1,0,.12l0,.09-.07.17-.05.12v0l-.17.55,0,.19a.72.72,0,0,1-.1.29l-.16.34a.87.87,0,0,1-.29.31l-.15.12-.33.17-.17.07a.89.89,0,0,1-.36,0H53.5l-.15,0Z"/><path class="cls-4" d="M68.39,56.6V57a1.25,1.25,0,0,1,0,.24l0,0a.67.67,0,0,1-.17.36l-.19.19a1,1,0,0,1-.41.17l-.36.07-.19,0-.28,0-.15-.1-.17-.17-.09-.14a.33.33,0,0,1-.12-.21L66,56.93l0-.12,0-.1a.23.23,0,0,1,0-.11v-.05l0-.22-.14-.67v-.14s0-.1-.07-.24l0-.12a1.9,1.9,0,0,1-.07-.24l-.05-.43,0-.12a.49.49,0,0,0-.31-.19l-.19,0-.15,0h-.24l-.12,0a.17.17,0,0,1-.12,0h-.09l-.17,0-.41,0-.17,0a.62.62,0,0,1-.24,0h-.52l-.12.09a.72.72,0,0,0-.22.41l-.07.24a1,1,0,0,0,0,.17l0,.28-.1.72-.07.65,0,.12-.14.46a.91.91,0,0,1-.12.26l-.14.22a.82.82,0,0,1-.41.33l-.12,0-.14.07a.31.31,0,0,1-.15,0,.88.88,0,0,1-.26,0l-.17,0a.88.88,0,0,1-.53-.29l-.14-.19-.05-.1a.58.58,0,0,1-.14-.33l0-.2V57a.88.88,0,0,1,0-.24l.09-.43.07-.74,0-.36.07-.29,0-.14,0-.17a2.16,2.16,0,0,1,.07-.26l0-.1A1.45,1.45,0,0,0,60,54l0-.14,0-.41.09-.19a.46.46,0,0,0,.08-.24v0l0-.21.07-.27,0-.12,0-.31.05-.22a.76.76,0,0,0,0-.21v-.24l0-.38.07-.39.07-.21a.54.54,0,0,0,.05-.22l0-.19a.41.41,0,0,1,.05-.19l0-.12a2,2,0,0,0,0-.24v-.12l0-.15,0-.26.1-.31a.59.59,0,0,0,0-.17v-.05l0-.19.12-.72.1-.34,0-.36.07-.31,0-.17v-.19a2,2,0,0,1,.05-.24l0-.12,0-.14,0-.19a.79.79,0,0,1,0-.22l.08-.21s0,0,0,0,0,0,0-.06l.05-.24,0-.43.07-.36.15-.67.14-.55.07-.17.15-.31.12-.15a.5.5,0,0,1,.21-.19l.12-.07.17-.1.36-.14a1,1,0,0,1,.29-.07l.24,0,.17,0,.14,0,.26,0,.12,0,.19.07.12.05a.35.35,0,0,1,.12.07l.27.27a1,1,0,0,1,.19.36l.14.52.12.32.12.45.08.7.07.38.14.58a.38.38,0,0,1,0,.19l.07.57,0,.29.12.38.07.32.07.4v.15a1.66,1.66,0,0,0,0,.24l.15.62L67,49l0,.41,0,.26a.13.13,0,0,0,0,.1l0,.07.07.19,0,.19,0,.22,0,.12.05.17a1.44,1.44,0,0,1,0,.21v.29a.32.32,0,0,0,0,.19l0,.1.1.31a1,1,0,0,1,0,.17l0,.28.1.36.16.68,0,.28v.08l0,.21.07.29a.82.82,0,0,1,.05.22v.19a1.35,1.35,0,0,0,0,.24l.08.21,0,.29.1.38.07.27a.43.43,0,0,1,0,.17Zm-3.55-5.25a1.38,1.38,0,0,0,0-.22l-.12-.48,0-.26,0-.12v-.2a.76.76,0,0,0-.07-.31l0-.09a.78.78,0,0,1-.07-.17l0-.34,0-.19a1.18,1.18,0,0,0,0-.22l-.07-.31-.1-.31-.09-.45-.12-.6-.12-.34-.08,0-.09.19a.39.39,0,0,0-.05.14l0,.22,0,.21v.29l-.07.19c0,.1-.05.16-.05.17l0,.22a.88.88,0,0,1,0,.17v0l-.1.27,0,.4,0,.34,0,.29a.19.19,0,0,1,0,.08.16.16,0,0,1,0,.06l0,.19a.91.91,0,0,0,0,.22v.14l0,.17-.12.55,0,.15s.15.11.41.19a.39.39,0,0,0,.14,0l.36,0h.39l.23,0h0a.39.39,0,0,0,.14,0,.44.44,0,0,0,.13-.14A.5.5,0,0,0,64.84,51.35Z"/><path class="cls-4" d="M78.75,48.49v.41l0,.43v.29l0,.38v.34l-.05.36,0,.09,0,.24-.12.32a.39.39,0,0,0,0,.14l0,.26,0,.24,0,.19-.07.2a.62.62,0,0,0-.07.16l0,.15A.68.68,0,0,1,78,53l0,0-.1.24,0,.1a.17.17,0,0,1-.07.14l-.29.6-.14.27-.17.29-.07.16L77,55l-.19.24-.41.58-.17.26-.14.1a.56.56,0,0,0-.24.24l0,.07a.16.16,0,0,1-.07.07l-.07,0-.24.19-.15.12-.16.15-.15.09-.14.08-.24.09-.51.29-.16,0-.15,0a.73.73,0,0,0-.29.15l-.07.05a.53.53,0,0,1-.21.09l-.19.05-.68.12-.16,0-.56,0a.7.7,0,0,1-.33-.07l0,0a1,1,0,0,1-.26-.16l-.24-.24-.12-.17a.41.41,0,0,1-.1-.19l0-.12a1.5,1.5,0,0,1,0-.31v-.15l-.07-.69v-.2l0-.24,0-.19a.62.62,0,0,0,0-.33l0-.08,0-.21,0-.29,0-.65V53.5l0-.28v-.84l.05-.22a.72.72,0,0,0,0-.26l0-.17,0-.12,0-.14v-.2l0-.16,0-.2,0-.31,0-.33,0-.32,0-.36,0-.26v-.22l0-.19,0-.14v-.31l0-.17V48l0-.12V47.7l0-.24,0-.26a.5.5,0,0,1,0-.12.52.52,0,0,0,0-.17l0-.22v-.07l0-.17v-.21l0-.12V45.9l0-.24V45.3l0-.21a.71.71,0,0,1,0-.29l0-.15a.3.3,0,0,0,0-.13.43.43,0,0,1,0-.11v-.16l0-.27,0-.24,0-.19,0-.72,0-.14.1-.51.07-.19.1-.21.09-.1a.6.6,0,0,1,.36-.19h0l.62-.15h.41a.47.47,0,0,0,.17,0h0l.27,0,.21,0a.45.45,0,0,0,.19,0h.15a.76.76,0,0,1,.21,0l.32.07.33.1.19,0,.14,0,.13,0,.26.14.31.15.63.33.28.17a.48.48,0,0,1,.15.1l.17.14.28.22.08.14a.59.59,0,0,0,.26.29l0,0,.14.22,0,.09.22.29.09.15.27.52.16.27A.06.06,0,0,1,78,45,.14.14,0,0,0,78,45l.1.24a.12.12,0,0,1,0,.07.08.08,0,0,0,0,.07l.09.17.07.22,0,.21.1.36.09.41.1.6v.38l0,.17,0,.24ZM76.26,48l-.05-.43-.1-.55a.32.32,0,0,0,0-.19L76,46.67l0-.15-.07-.28-.05-.15a.31.31,0,0,0-.09-.19l-.15-.21-.07-.2-.14-.21-.58-.67-.21-.15-.17-.09-.19-.17a.9.9,0,0,0-.31-.15l-.51-.14a1.45,1.45,0,0,0-.29,0l-.19,0,0,.14a1.2,1.2,0,0,0,0,.36l0,.6,0,.22v.19l0,.14a.7.7,0,0,0,0,.31l0,.08,0,.19v.31l0,.26v.22l0,.26v.36l.05.34-.05.19a.65.65,0,0,0,0,.34l.05.26,0,.19v.29l0,.14v.17l0,.24v.48l0,.17v.17l0,.31v.43l0,.19v.17l0,.33,0,.27v.48l.05.26v.19l-.05.53v.07l0,.22,0,.14.05.7,0,.26c0,.08.12.12.28.12l.24,0,.17-.1a1,1,0,0,0,.24-.17l.39-.43.14-.21.17-.17.07,0a.56.56,0,0,0,.22-.26L75,53.6l.15-.26.36-.68.14-.31.12-.41.09-.31.1-.4L76,51l0-.12.05-.12a.84.84,0,0,0,.07-.29v-.12a1.74,1.74,0,0,1,0-.26l0,0a1.17,1.17,0,0,0,0-.29V49.5l0-.36,0-.39,0-.21V48.3Z"/><path class="cls-4" d="M90,50.19l0,.22a1.09,1.09,0,0,1,0,.22l-.05.19,0,.14v1l0,.38,0,.32s0,.07,0,.16l-.1.29,0,.36-.14.7-.09.43-.13.33-.14.32-.12.33-.29.53a1.76,1.76,0,0,1-.14.22l-.07.07a1.39,1.39,0,0,0-.17.21l-.07.12a.56.56,0,0,1-.24.24l0,0-.14.12-.12.12-.14.12-.32.19-.28.14-.29.17-.06,0-.11.05-.21.07-.75.14-.29,0-.19,0H85a.94.94,0,0,1-.26,0l-.17,0-.38,0L83.81,58l-.17,0a.74.74,0,0,1-.31-.17l-.09,0L83,57.58l-.22-.14-.26-.27-.12-.12-.15-.21-.38-.48-.07-.15L81.6,56l-.07-.14a.88.88,0,0,0-.07-.12.61.61,0,0,1-.07-.14l0-.15v-.05s0,0,0-.06,0,0,0,0l0-.15L81.2,55l-.15-.38,0-.22-.22-.74v-.15a.76.76,0,0,0-.07-.31l0-.12,0-.19-.05-.34,0-.36V52a.41.41,0,0,0,0-.19l0-.12,0-.15,0-.31,0-.41,0-.67V49.4l0-.43.08-.36,0-.31,0-.34v-.28l0-.2,0-.21.07-.27a.88.88,0,0,0,.05-.19l0-.24L81,46a1.81,1.81,0,0,1,.12-.28l0,0a.49.49,0,0,0,.1-.22l.12-.43c0-.11.06-.18.07-.22l.12-.19a.06.06,0,0,0,0-.06.07.07,0,0,1,0-.06l.12-.29.14-.26L82,43.6l.15-.29.09-.12.36-.45.12-.2a1.07,1.07,0,0,1,.29-.26l.07-.05.09,0,.08,0,.48-.41.19,0,.14,0,.12-.05a.79.79,0,0,1,.22,0l.19,0,.75,0h.19l.14,0,.6.12.34.09.57.27.17.12.19.14.53.55.12.15.31.5.15.26.07.15.09.12.1.14.12.22.07.26,0,.12,0,.19a.25.25,0,0,0,0,.09.21.21,0,0,0,0,.06l.21.55a.26.26,0,0,1,0,.14l.07.39,0,.19v.09a.73.73,0,0,0,0,.22l0,.22.08.31,0,.38.07.36,0,.17v.24l0,.79.12.79Zm-2.51.24,0-.07v-.72l0-.14,0-.31v-.44l0-.16,0-.15v-.28l0-.15,0-.17,0-.14v-.17a1.5,1.5,0,0,0,0-.31l0-.07a1.47,1.47,0,0,1,0-.17l-.05-.46a.42.42,0,0,0-.07-.26l-.07-.12L86.88,46l0-.19a.81.81,0,0,0,0-.17l-.1-.26-.07-.22,0-.07a0,0,0,0,1,0,0l0-.1-.29-.5-.12-.12a1.33,1.33,0,0,0-.26-.14l-.48-.2-.17,0a1.07,1.07,0,0,0-.31.09l0,0a.73.73,0,0,0-.31.29l-.26.38-.22.29-.07.12-.15.26L83.6,46a.41.41,0,0,0,0,.09.28.28,0,0,0,0,.13l0,.09a.31.31,0,0,1,0,.11.22.22,0,0,0,0,.08l-.07.17a.24.24,0,0,0,0,.12v0l-.15.57,0,.15,0,.31L83,48a1.66,1.66,0,0,0,0,.24v.27l0,.16A2.44,2.44,0,0,0,83,49l0,.21,0,.17a2.44,2.44,0,0,0,0,.34l0,.21v.36l0,.32,0,.21a.82.82,0,0,0,0,.27l0,.26v.34l.07.38.05.38.09.53.05.19.1.27.07.21a.88.88,0,0,1,0,.17l0,.14a1.31,1.31,0,0,0,0,.27l.17.41a.72.72,0,0,0,.14.23l.17.22.27.26a1,1,0,0,0,.5.27l.24,0h.12a1.55,1.55,0,0,0,.34,0l.09,0,.17-.07A.83.83,0,0,0,86,55.3l0,0a.13.13,0,0,1,.1-.09l.14-.12a.56.56,0,0,0,.19-.19l.27-.41.11-.24,0-.14.1-.27.14-.62,0-.39.05-.21a1.09,1.09,0,0,0,0-.22v-.21l0-.17,0-.22,0-.19V51.3l0-.17,0-.22,0-.16A1,1,0,0,0,87.46,50.43Z"/><path class="cls-4" d="M98,58.11a.61.61,0,0,1-.36-.15l-.16-.16-.27-.31a.48.48,0,0,1-.14-.2l-.22-.5-.09-.22,0-.14-.12-.22L96.43,56l-.08-.14-.07-.22,0-.07-.09-.17,0-.12-.22-.34-.09-.14-.1-.24,0-.07a3.26,3.26,0,0,0-.19-.29l0-.07-.1-.12-.12-.24L95,53.43,94.77,53l-.1-.1-.09,0s-.06.09,0,.19v.07l0,.24a1.4,1.4,0,0,0,0,.29l0,.38v.19l0,.32v.14a1.44,1.44,0,0,0,0,.24l0,.12a1.57,1.57,0,0,1,0,.29l0,.24,0,.21,0,.15,0,.33,0,.51,0,.19-.1.48-.12.17s-.06.08-.14.12l-.17.16-.14.08a1,1,0,0,1-.36.07h-.36a1,1,0,0,1-.34,0h0a.87.87,0,0,1-.34-.31l-.09-.17-.2-.46a2.16,2.16,0,0,1-.07-.26l0-.5V56l0-.39,0-.33V55l0-.39,0-.38v-.7l0-.36v-.38l0-.34v-.67l0-.38,0-.67V50l0-.36,0-.43,0-.33v-.39l0-.21a.76.76,0,0,0,0-.14.27.27,0,0,1,0-.13l0-.09v-.53l0-.17a2.41,2.41,0,0,0,0-.31l0-.07a.46.46,0,0,0,0-.1.32.32,0,0,1,0-.14l0-.24V46l0-.28v-.36l0-.36v-.36l0-.41v-.55a.31.31,0,0,0,0-.1.26.26,0,0,1,0-.12l0-.19,0-.14V43a.71.71,0,0,1,.07-.29l.26-.53.07-.17a1.1,1.1,0,0,1,.22-.26l0,0a1,1,0,0,1,.39-.21l0,0a.68.68,0,0,1,.21,0l.53-.05h.24l.19,0,.26,0,.36,0,.24,0,.17.07.48.2.17.09.48.29.29.22.33.26.29.29.17.14a1,1,0,0,1,.12.15l.14.21.27.31.19.27.19.28.07.12.24.58a.42.42,0,0,1,0,.12l0,.24.09.24,0,.19,0,.31.07.39,0,.21,0,.17.07.62v.34a.94.94,0,0,1,0,.26l-.07.22-.15.74-.09.31a.09.09,0,0,0,0,.06s0,.05,0,.06l-.12.22-.07.22a.71.71,0,0,1-.15.26l-.4.5-.44.46a.12.12,0,0,1-.07.07l-.07,0-.36.24-.09.12a.16.16,0,0,0-.05.14,1.24,1.24,0,0,0,.07.39.51.51,0,0,0,.1.21l.33.51.17.28.24.36.09.17a.62.62,0,0,1,.1.22l.07.19,0,.07.05.1.09.17.17.33.17.38.12.34.34.7.24.69,0,.24a.66.66,0,0,1,0,.19l-.07.27-.1.14a.86.86,0,0,1-.29.24l-.14.07a.75.75,0,0,1-.58.12s0,0-.07,0h0Zm-3.26-8.42.29,0h.07a.41.41,0,0,0,.17-.05l.43-.15a.67.67,0,0,0,.24-.12l.12-.07.17-.14.14-.17.27-.31.07-.22,0-.14.08-.7,0-.14,0-.14v-.2l-.07-.62-.07-.24a2,2,0,0,0-.1-.26l0-.07a1.25,1.25,0,0,1-.1-.29.83.83,0,0,0-.17-.34l0,0-.15-.17L96,45l-.1-.1-.12-.14-.14-.15-.22-.17-.43-.31-.1,0h0s-.11.06-.17.19a1.5,1.5,0,0,0-.05.31v.51l0,.33,0,.43,0,.34v.33l0,.39,0,.36v.31l0,.31,0,.39,0,.28,0,.7,0,.38.09,0Z"/><path class="cls-5" d="M65.38,76.6l-.13-.09a2.81,2.81,0,0,1-.36-.34l-.2-.29,0-.16a2.68,2.68,0,0,1,0-.34,4.22,4.22,0,0,1,.18-.85l.05-.14a4.21,4.21,0,0,1,.4-.7l0,0,.21-.25.22-.33.16-.27.2-.27.45-.61.25-.25.27-.29.2-.25.11-.16a2.74,2.74,0,0,1,.32-.29.52.52,0,0,0,.18-.18l.58-.74.2-.25.43-.54.09-.16a1.22,1.22,0,0,0,.09-.24l.07-.25.11-.29.09-.21a.16.16,0,0,0,0-.13l0-.2a.14.14,0,0,1,0-.06.11.11,0,0,0,0-.08v-.13a2.12,2.12,0,0,1,.09-.38.78.78,0,0,0,0-.16l0-.27,0-.29,0-.41v-.25a.61.61,0,0,0,0-.15l-.14-.54-.13-.39-.14-.27-.4-.58-.11-.09a.79.79,0,0,0-.25-.14l-.09,0-.18,0-.14,0H68l-.16,0a.68.68,0,0,0-.2,0l-.09,0a.84.84,0,0,0-.27.11l0,0a.72.72,0,0,0-.23.27l-.13.25s0,0,0,0l-.11.47,0,.21a2.77,2.77,0,0,1-.06.49.91.91,0,0,1-.21.43l-.27.22a1.75,1.75,0,0,1-.49.21h-.16a.74.74,0,0,1-.31-.07,1.54,1.54,0,0,1-.43-.27,1.12,1.12,0,0,1-.34-.38,2.49,2.49,0,0,1-.15-.5,2,2,0,0,1,0-.52,1,1,0,0,1,0-.22,2.61,2.61,0,0,0,.06-.27,3.59,3.59,0,0,1,.23-.54l0-.14,0-.15a1.05,1.05,0,0,1,.15-.3,2.66,2.66,0,0,1,.34-.45l.18-.2.25-.27.2-.09.09,0,.09-.07.13-.11.36-.18.14-.07.11-.07a2,2,0,0,1,.52-.11l.61-.07h.36l.36.07.65.11.36.09.16.07a1.88,1.88,0,0,1,.42.27l.32.27.11.09c.12.12.23.25.34.38a5.93,5.93,0,0,1,.34.52.35.35,0,0,0,0,.08l.06.08.07.09a2.08,2.08,0,0,1,.24.47l0,.2,0,.14.07.18a4.35,4.35,0,0,1,.14.76l0,.38v.32l0,.18a1.48,1.48,0,0,1,0,.38.52.52,0,0,1,0,.11.47.47,0,0,0,0,.16l0,.09a1.38,1.38,0,0,1,0,.27,1.06,1.06,0,0,1-.07.38.68.68,0,0,0,0,.2v.39a3.69,3.69,0,0,1-.07.49,2.41,2.41,0,0,1-.2.63l0,.16a2.08,2.08,0,0,1-.22.49l-.18.3-.11.15a.49.49,0,0,0-.09.18l0,.09a.93.93,0,0,1-.16.26l-.27.4-.2.24-.16.14-.09.08-.09.08-.11.15-.2.3a6.44,6.44,0,0,1-.45.49l-.2.25-.39.49-.2.16-.07.07a1.58,1.58,0,0,0-.16.21l-.29.4-.09.11,0,0a.49.49,0,0,0-.09.32l.58.13a.32.32,0,0,0,.16,0l.11,0a1.25,1.25,0,0,1,.45,0h.39l.33-.07.21,0a.44.44,0,0,0,.18,0l.31,0a2.48,2.48,0,0,1,.61.07,1.07,1.07,0,0,1,.43.16,1.16,1.16,0,0,1,.27.38l.09.13a1,1,0,0,1,0,.36c0,.18,0,.33,0,.45l-.09.14a.79.79,0,0,1-.11.14l-.18.2-.14.09a2.05,2.05,0,0,1-.43.13l-.54.09-.29,0-.38,0-.32,0-.33,0h-1l-.4,0-.14,0a4.59,4.59,0,0,1-.54,0h-.27l-.38,0A2.84,2.84,0,0,1,65.38,76.6Z"/><path class="cls-5" d="M77.69,76.66l-.36,0L77,76.57l-.34-.06-.32-.14L76,76.24l-.13-.09-.36-.27-.16-.12a3.31,3.31,0,0,1-.52-.58L74.76,75a3.22,3.22,0,0,1-.27-.51l-.13-.3L74.25,74l-.09-.33L74,73.27l-.11-.3a3.93,3.93,0,0,1-.16-.65L73.68,72l0-.29,0-.31,0-.39v-.22l0-.11,0-.16a3.94,3.94,0,0,1,0-.43l0-.38,0-.14a.81.81,0,0,1,0-.31V69l0-.11.06-.79v0l0-.3,0-.29v-.18a1.21,1.21,0,0,1,.07-.4l0-.09s0-.12,0-.39l.06-.13a.74.74,0,0,0,.09-.32v-.06a2.25,2.25,0,0,1,.14-.43l.11-.32.14-.31.15-.29.27-.63.07-.09a.41.41,0,0,1,.06-.11l.08-.14,0-.14a4.31,4.31,0,0,1,.29-.4l.16-.18a.49.49,0,0,0,.11-.14l.07-.11a.89.89,0,0,1,.2-.24l.34-.34,0,0,.14-.16A3.57,3.57,0,0,1,77,61.3l.34-.18.16-.07A1.46,1.46,0,0,1,78,61l.7,0,.15.06a.34.34,0,0,0,.12,0l.11,0,.11,0,.72.36.29.18.21.21.11.13.2.29a1.59,1.59,0,0,0,.25.27,1.3,1.3,0,0,1,.25.45l.11.25.09.16a1.29,1.29,0,0,1,.16.4l.09.21,0,.09a.87.87,0,0,0,0,.13,2.57,2.57,0,0,1,.09.29l.11.34.09.34.11.65,0,.16a.59.59,0,0,1,0,.23c0,.09,0,.17,0,.26l0,.36.06.36,0,.39v.15a2.57,2.57,0,0,1,0,.5l0,.22v.21l0,.11a3.69,3.69,0,0,1-.07.49l0,.32,0,.4-.05.29,0,.36,0,.18v.36a2.11,2.11,0,0,1-.09.45l0,.39-.13.6,0,.21a1,1,0,0,1-.15.42l0,.07-.09.29-.09.32-.31.58a3.18,3.18,0,0,1-.41.54l-.22.23a.48.48,0,0,0-.09.13l-.07.12a.84.84,0,0,1-.27.2,1,1,0,0,0-.25.16l-.09.09a1.76,1.76,0,0,1-.38.22l-.79.29a1.16,1.16,0,0,1-.51.09Zm.24-2.36.3-.13.09,0,.11-.07a.83.83,0,0,0,.27-.24l.07-.09.29-.45.22-.45.12-.32,0-.07.07-.38.06-.31.09-.34,0-.27,0-.36,0-.36,0-.29.07-.3a1.31,1.31,0,0,0,0-.27v-.06l0-.3a.84.84,0,0,0,0-.29l0-.09v-.09l0-.36,0-.18v-.09a1.23,1.23,0,0,0,0-.2l0-.11a.81.81,0,0,1,0-.16,1.27,1.27,0,0,0,0-.2.83.83,0,0,0,0-.27l0-.09a.54.54,0,0,0,0-.11,2.55,2.55,0,0,1,0-.32l-.07-.38,0-.29-.12-.36v-.16a1.1,1.1,0,0,0,0-.25l-.23-.56-.24-.56L79,64a.49.49,0,0,0-.18-.21l-.12-.06a.48.48,0,0,0-.13-.09h0l-.16-.07-.14,0-.13,0a.71.71,0,0,0-.2,0,.52.52,0,0,0-.3.2l-.09.09-.4.52-.11.11a1,1,0,0,0-.18.29l0,.07a1.64,1.64,0,0,1-.18.25l-.06.13-.16.32-.11.31-.16.36-.14.54,0,.14L76,67a.71.71,0,0,1-.07.29,1,1,0,0,0-.07.32v.18l0,.32,0,.15a1.4,1.4,0,0,0,0,.23l0,.18,0,.18,0,.13a1.73,1.73,0,0,1,0,.39l0,.31v.18l0,.22,0,.27v.25l0,.14,0,.31,0,.29.07.34.2.7,0,.18a.68.68,0,0,0,0,.2l.09.25.22.52.14.2.31.38a.83.83,0,0,0,.25.18l.11.07h.16A.86.86,0,0,0,77.93,74.3Z"/><path class="cls-5" d="M84.44,76.6l-.14-.09a2.81,2.81,0,0,1-.36-.34l-.2-.29,0-.16a1.46,1.46,0,0,1,0-.34,4.22,4.22,0,0,1,.18-.85l0-.14a5.28,5.28,0,0,1,.4-.7l0,0,.2-.25.22-.33.16-.27.2-.27.45-.61.25-.25.27-.29.2-.25.12-.16a1.85,1.85,0,0,1,.31-.29.39.39,0,0,0,.18-.18l.59-.74.2-.25.42-.54.09-.16a1.22,1.22,0,0,0,.09-.24l.07-.25.11-.29.09-.21a.16.16,0,0,0,.05-.13l0-.2a.09.09,0,0,1,0-.06.19.19,0,0,0,0-.08v-.13a2.12,2.12,0,0,1,.09-.38.78.78,0,0,0,0-.16l0-.27,0-.29,0-.41v-.25a.34.34,0,0,0,0-.15l-.13-.54-.14-.39-.13-.27L88,63.55l-.11-.09a.79.79,0,0,0-.25-.14l-.09,0-.18,0-.13,0H87l-.15,0a.68.68,0,0,0-.21,0l-.09,0a1.09,1.09,0,0,0-.27.11l0,0a.69.69,0,0,0-.22.27l-.14.25a0,0,0,0,1,0,0l-.11.47,0,.21a2.18,2.18,0,0,1-.07.49.82.82,0,0,1-.2.43l-.27.22a1.83,1.83,0,0,1-.5.21h-.15A.79.79,0,0,1,84.3,66a1.54,1.54,0,0,1-.43-.27,1.17,1.17,0,0,1-.33-.38,2.45,2.45,0,0,1-.16-.5,2.62,2.62,0,0,1,0-.52.69.69,0,0,1,0-.22,2.56,2.56,0,0,0,0-.27,3.59,3.59,0,0,1,.23-.54l0-.14,0-.15a1.06,1.06,0,0,1,.16-.3,3.22,3.22,0,0,1,.33-.45l.18-.2.25-.27.2-.09.09,0,.09-.07.14-.11a2.72,2.72,0,0,1,.36-.18l.13-.07.12-.07A1.75,1.75,0,0,1,86.3,61l.61-.07h.36l.36.07.65.11.36.09.16.07a2.2,2.2,0,0,1,.43.27l.31.27.11.09a4,4,0,0,1,.34.38,4.28,4.28,0,0,1,.34.52.21.21,0,0,0,.06.08.22.22,0,0,1,0,.08l.07.09a2.12,2.12,0,0,1,.25.47l0,.2,0,.14.06.18a4.35,4.35,0,0,1,.14.76l0,.38v.32l0,.18a1.35,1.35,0,0,1,0,.38.45.45,0,0,1,0,.11.3.3,0,0,0,0,.16l0,.09a.87.87,0,0,1,0,.27,1.31,1.31,0,0,1-.06.38.8.8,0,0,0-.05.2v.39a3.69,3.69,0,0,1-.07.49,2.08,2.08,0,0,1-.2.63l0,.16a2.21,2.21,0,0,1-.23.49l-.18.3-.11.15a.49.49,0,0,0-.09.18l-.05.09a.83.83,0,0,1-.15.26l-.27.4-.21.24-.15.14-.09.08-.09.08-.12.15-.2.3a3.83,3.83,0,0,1-.45.49l-.2.25-.38.49-.21.16-.06.07a1.5,1.5,0,0,0-.17.21l-.28.4L87,74l0,0a.67.67,0,0,0-.09.32l.59.13a.3.3,0,0,0,.15,0l.12,0a1.22,1.22,0,0,1,.45,0h.38l.34-.07.2,0a.44.44,0,0,0,.18,0l.31,0a2.43,2.43,0,0,1,.61.07,1.07,1.07,0,0,1,.43.16,1.16,1.16,0,0,1,.27.38l.09.13a1,1,0,0,1,0,.36,3,3,0,0,1,0,.45l-.09.14a.49.49,0,0,1-.11.14l-.18.2-.14.09a2.13,2.13,0,0,1-.42.13l-.54.09-.3,0-.38,0-.31,0-.34,0h-.94l-.41,0-.13,0a4.73,4.73,0,0,1-.54,0h-.27l-.39,0A2.76,2.76,0,0,1,84.44,76.6Z"/><path class="cls-5" d="M96.67,76.73l-.36,0-.15,0-.2,0a1.43,1.43,0,0,1-.28-.07l-.13,0h-.16a1.19,1.19,0,0,1-.43-.18l-.49-.25a2.2,2.2,0,0,1-.43-.27l-.13-.11a2.66,2.66,0,0,1-.34-.43l-.18-.24-.2-.3L93,74.46a2.19,2.19,0,0,1-.2-.61l0-.31v-.12a1.78,1.78,0,0,1,.12-.54,1.58,1.58,0,0,1,.4-.6l.11-.07a1.63,1.63,0,0,1,.52,0,1.26,1.26,0,0,1,.63.18l.14.12a.76.76,0,0,1,.24.29,2.67,2.67,0,0,1,.18.58l.07.18.05.12a.48.48,0,0,0,.09.13s0,0,0,.07l.14.16.13.13a1,1,0,0,0,.36.18l.27.07.2,0,.21,0h0l.16-.05.56-.24.31-.18.16-.16A.49.49,0,0,0,98,73.6l.3-.47L98.4,73a.81.81,0,0,0,.1-.34l0-.11,0-.41,0-.11a.86.86,0,0,0,0-.32l0-.18,0-.33,0-.16a1.15,1.15,0,0,0-.16-.34l0,0-.16-.34L98,70.14a1,1,0,0,0-.22-.27l-.07-.07-.35-.16a.6.6,0,0,0-.34-.06h0l-.2,0a2.16,2.16,0,0,1-.36,0,.94.94,0,0,1-.34-.14.59.59,0,0,1-.27-.27,1.64,1.64,0,0,1-.13-.49,3,3,0,0,1,0-.38l0-.29.06-.14a3.16,3.16,0,0,1,.68-.56l.49-.36,0,0,.11-.09.11-.14s0,0,.05,0l.27-.45,0-.09.07-.16,0-.14.11-.4.07-.36V64.9a.49.49,0,0,0,0-.2l-.11-.45L97.66,64l0-.09,0-.06a.31.31,0,0,0-.1-.13.92.92,0,0,1-.13-.17l-.13-.06a.09.09,0,0,0-.06,0,.07.07,0,0,1-.06,0h0l-.58-.16-.14,0a.23.23,0,0,0-.12,0h-.13l-.2,0a.09.09,0,0,0-.07,0l-.33.11a.83.83,0,0,0-.3.2l0,0-.11.14L95,64a1.07,1.07,0,0,0-.05.16l0,.42,0,.21a1.27,1.27,0,0,1-.12.4,3.12,3.12,0,0,1-.22.32,2.25,2.25,0,0,1-.86.33l-.15,0a.5.5,0,0,1-.34-.13,3.69,3.69,0,0,1-.56-.68h0l0-.11-.07-.29,0-.16a2.45,2.45,0,0,1,0-.34,5.3,5.3,0,0,1,.16-.58.39.39,0,0,0,0-.14l0-.11.09-.27a2.14,2.14,0,0,1,.29-.41l.09-.11a2.48,2.48,0,0,1,.36-.38l.27-.23.27-.24.14-.09a1.54,1.54,0,0,1,.45-.16l.31-.14.29-.11L95.8,61a.49.49,0,0,1,.2,0,1.24,1.24,0,0,1,.31,0l.32,0h.18a4.57,4.57,0,0,1,.81.21l.31.06.14.07a1.49,1.49,0,0,1,.47.27l.22.16L99,62l.12.11a3.36,3.36,0,0,1,.38.45l.09.16a1.33,1.33,0,0,1,.2.43l.07.13c0,.08.09.25.18.52l0,.16s0,.31,0,.79l0,.2V65a3.79,3.79,0,0,1,0,.38l0,.25-.06.54a2.16,2.16,0,0,1-.14.43l-.11.31-.14.27-.24.48,0,.11,0,.09v0a1.05,1.05,0,0,0,.22.47l.39.52.13.27.16.25.09.15c.12.24.19.4.22.48l.14.33,0,.14a.73.73,0,0,1,.05.12c0,.06,0,.12,0,.19a1.15,1.15,0,0,0,0,.2,1.14,1.14,0,0,1,0,.28v.38l0,.13a.45.45,0,0,1,0,.21,1.69,1.69,0,0,1,0,.33v.16l-.11.45-.09.32,0,.15-.16.45-.34.61-.13.29-.2.34-.21.16,0,0a1.66,1.66,0,0,0-.23.27l-.2.18L98.9,76l-.2.09a.09.09,0,0,1-.07,0,.12.12,0,0,0-.09,0l-.27.18h-.09a.37.37,0,0,0-.16,0l-.11,0-.14.07a7,7,0,0,1-.74.16l-.18,0Z"/><rect class="cls-4" x="155.94" y="80.62" width="20.62" height="20.62" rx="9.36"/><path class="cls-6" d="M173.15,86.69a6,6,0,0,1-1.37.39c.22,0,.54-.44.67-.6a2.35,2.35,0,0,0,.45-.82s0-.06,0-.08a.08.08,0,0,0-.07,0,6.78,6.78,0,0,1-1.62.62.11.11,0,0,1-.11,0L171,86a2.65,2.65,0,0,0-.78-.48,2.78,2.78,0,0,0-1.21-.2,3.09,3.09,0,0,0-1.14.32,3.33,3.33,0,0,0-.92.75,2.92,2.92,0,0,0-.55,1.1,3.07,3.07,0,0,0,0,1.17c0,.06,0,.07-.06.06a8.63,8.63,0,0,1-5.56-2.83c-.06-.07-.1-.07-.15,0a2.82,2.82,0,0,0,.48,3.33l.34.3a2.81,2.81,0,0,1-1.07-.3c-.07,0-.1,0-.1,0a1.71,1.71,0,0,0,0,.32A2.84,2.84,0,0,0,162,91.91a1.5,1.5,0,0,0,.36.11,3.31,3.31,0,0,1-1.06,0c-.07,0-.1,0-.07.09A3,3,0,0,0,163.43,94l.3,0,0,0a3.5,3.5,0,0,1-1.51.8,5.41,5.41,0,0,1-2.29.3c-.12,0-.15,0-.18,0s0,0,0,.08l.48.28a7.18,7.18,0,0,0,1.53.61,8.14,8.14,0,0,0,7.92-1.85,8.29,8.29,0,0,0,2.2-6.06c0-.09.1-.14.16-.19a5.23,5.23,0,0,0,1.08-1.12.33.33,0,0,0,.07-.21h0S173.2,86.66,173.15,86.69Z"/><circle class="cls-4" cx="166.34" cy="21.31" r="10.21"/><path class="cls-6" d="M173.32,20.36a7,7,0,0,0-13.93,0h0v1.3h0a7,7,0,0,0,13.93,0h0v-1.3Zm-1.31,0h-2.64a12,12,0,0,0-1-4.67A5.7,5.7,0,0,1,172,20.36Zm-5.65,6.34c-.55,0-1.6-1.77-1.72-5h3.43C168,24.93,166.91,26.7,166.36,26.7Zm-1.72-6.34c.12-3.27,1.17-5,1.72-5s1.59,1.78,1.71,5Zm-.32-4.67a12,12,0,0,0-1,4.67H160.7A5.73,5.73,0,0,1,164.32,15.69Zm-3.62,6h2.64a12,12,0,0,0,1,4.66A5.73,5.73,0,0,1,160.7,21.66Zm7.69,4.66a12,12,0,0,0,1-4.66H172A5.69,5.69,0,0,1,168.39,26.32Z"/><rect class="cls-4" x="155.63" y="45.96" width="20.93" height="20.93" rx="9.5"/><path class="cls-6" d="M169.65,52a.8.8,0,0,0-.8.8.79.79,0,0,0,.8.79.79.79,0,0,0,.79-.79A.79.79,0,0,0,169.65,52Z"/><path class="cls-6" d="M166.11,53.06a3.35,3.35,0,1,0,3.34,3.35A3.35,3.35,0,0,0,166.11,53.06Zm0,5.49a2.15,2.15,0,1,1,2.14-2.14A2.14,2.14,0,0,1,166.11,58.55Z"/><path class="cls-6" d="M168.76,63.19h-5.42a4.08,4.08,0,0,1-4.08-4.07V53.7a4.08,4.08,0,0,1,4.08-4.08h5.42a4.08,4.08,0,0,1,4.08,4.08v5.42A4.08,4.08,0,0,1,168.76,63.19ZM163.34,50.9a2.8,2.8,0,0,0-2.8,2.8v5.42a2.81,2.81,0,0,0,2.8,2.8h5.42a2.8,2.8,0,0,0,2.8-2.8V53.7a2.8,2.8,0,0,0-2.8-2.8Z"/></g></g></svg>