<svg xmlns="http://www.w3.org/2000/svg" viewBox="0 0 295.2 225.1"><defs><style>.cls-1{fill:#e6291a;}.cls-2{fill:#f7931e;}.cls-3{fill:#39b54a;}.cls-4{fill:#182c93;}</style></defs><g id="Camada_2" data-name="Camada 2"><g id="Camada_1-2" data-name="Camada 1"><path class="cls-1" d="M73.9,54.8a4.4,4.4,0,0,1-1-.2c-.1-.1-.3-.1-.5-.2a2.19,2.19,0,0,1-.5-.3,2.36,2.36,0,0,1-.6-.9l-.6-1.4a1.49,1.49,0,0,1-.2-.9L70.3,49V47.7l.1-.5.1-.6-.1-1V43.4l-.1-.9v-.8l.1-.5.1-.7-.1-.6v-.3l-.1-.8-.1-1.2.1-.9V35.1L70.1,34v-.7l.1-.5.1-.5a2.22,2.22,0,0,0,.1-.9l-.2-.9.1-.5.1-.5v-.4l-.1-.9v-.9l-.1-1.1V24.9l.1-.9.1-.3-.1-.6v-.5l-.1-1.2-.1-1,.1-1.2L70.1,18l.1-.9V15.6l-.2-.9.1-.3.1-.5v-.7l-.1-.4a2.22,2.22,0,0,1,.1-.9v-.1a1.27,1.27,0,0,0,.1-.6c0-.3,0-.5-.1-.6l-.1-.2.1-.9V9.3a1.48,1.48,0,0,0,.1-.7l-.1-.7L70.1,7,70,6.5,70.1,5a2.42,2.42,0,0,1,.4-1.3l.2-.5.3-.5q.15-.45,1.2-.9l.3-.2L74.1,1a2.15,2.15,0,0,1,1-.2h1.1a2.51,2.51,0,0,1,1,.1l1.9.6.9.2,2.3.7,1.2.3,1.9.7.5.3.7.5.9.7.8.5c.3.2.5.3.5.4l.5.6.5.5.5.6L91.4,9l.3.5a2.93,2.93,0,0,1,.6,1l.2.6.3.7a1,1,0,0,1,.2.5l.2.9.3,1.2.2.5c.1.4.2.6.2.7l.1.9.1,2.3.2,1.7-.1.5-.1.9L94,23a1.48,1.48,0,0,1-.1.7l-.3.9-.2,1.1-.2,1-.4,1.1L92.3,29l-1.2,2-.6,1.1-.5.7c-.1.1-.2.2-.3.2l-.2.2-.7.5-.9.9L86,36l-1,.6-1.1.6-2.3.9-1,.4-1.2.4a2.43,2.43,0,0,0-1.3,2.3l.1.7.1.8V46l-.1.8v.9l.1.4c.1.2.1.3,0,.4v.3l-.2,1.9-.2,1.6a3.75,3.75,0,0,1-.5,1.4l-.3.5-.6.3c-.1.1-.2.1-.4.1s-.3.1-.4.1l-1.3.2h-.5Zm4.9-25a5,5,0,0,0,1.2-.2l.8-.3.8-.4.5-.3,2.6-2.3.4-.6.3-.6.3-.9.4-1.7a2.22,2.22,0,0,0,.1-.9v-.9l.2-1.2.1-.5v-.3a1.72,1.72,0,0,0-.1-.8l-.2-.5L86,16.3v-.2l-.2-.5-.7-2.1a2.27,2.27,0,0,0-.7-1.1l-.3-.2-.5-.5-.5-.3-1.6-1c-.1,0-.2,0-.2-.1l-.2-.2-.2-.1-2-.7-.4.2a2.37,2.37,0,0,0-.5,1.4l-.1.7.1.7.1.6-.1.8v.7l.1.4v.7l-.1.8-.1.9a2.79,2.79,0,0,0,.1,1l.1.3a1.48,1.48,0,0,1-.1.7l-.1.6-.1.8a1.48,1.48,0,0,0,.1.7l.1.6.1.5v.8l-.2.7v.9l.1.3-.1.8-.1.6-.1.5v1.3l.1.5.1.2c0,.3.1.5.2.5A.74.74,0,0,0,78.8,29.8Z"/><path class="cls-1" d="M108.4,54.2l-.4-.4a4.4,4.4,0,0,1-.6-1.2l-.3-.9-.2-.6-.2-2.1.1-.5a2.22,2.22,0,0,0,.1-.9l-.2-1.9.1-.8v-.7l-.2-.7V40.9l.1-.5a2,2,0,0,0,0-1.1l-.2-.8.2-.5a2,2,0,0,0,0-1.1l-.1-.4a1.39,1.39,0,0,1,0-.9l.1-.5-.1-1.2-.2-.9-.1-1.6a3.71,3.71,0,0,0-.2-.9l-.5-1.6-.5-1.3-.3-.8a1.69,1.69,0,0,1-.2-.5l-.2-.9-.5-1.2-.5-1.1-.2-.5a1.49,1.49,0,0,1-.2-.9v-.3a7.6,7.6,0,0,0-.4-1.1l-.2-.3a2.6,2.6,0,0,1-.3-.7l-.2-.7-.4-.9-.4-1.3-.3-.9-.5-1.3-.4-.8-.2-.5-.2-.8L99,10.8l-.2-.9c-.1-.1-.1-.1-.1-.2s0-.2-.1-.2l-.4-.6L98,8.4l-.6-1.8-.3-1.2L97,4.8a5.07,5.07,0,0,1,.2-.9,1.54,1.54,0,0,1,.3-.7l.4-.6.8-.9.5-.3a3.08,3.08,0,0,1,1.3-.3h.6a2.81,2.81,0,0,1,2,.6l.5.5.9,1.2.2.4.6,1.2a3.63,3.63,0,0,1,.3,1.1v.1a6.12,6.12,0,0,0,.5,1.2l.2.2a1.69,1.69,0,0,1,.2.9l.2.6.3,1.1.6,1.2.5,1.1.4,1.1.4,1.2.5,2,.7,1.4.4.1c.2,0,.3-.1.6-.3a4.31,4.31,0,0,0,.7-1l.8-1.8.5-1.2.5-1,.2-.9.2-.5.2-.5.2-.2.2-.3.1-.3.5-1.7.2-.4a2.26,2.26,0,0,0,.3-1l.1-.3a2.71,2.71,0,0,0,.3-.8l.3-.5.2-.5.5-1.2a.92.92,0,0,1,.4-.6l.7-1a2.34,2.34,0,0,1,.7-.7l.1-.1a2.35,2.35,0,0,1,1.2-.4l.4-.1.6-.1h.2a3.26,3.26,0,0,1,1,.3l1.4.6.4.4a1.91,1.91,0,0,1,.5,1l.2.5.1.5v.3a1.72,1.72,0,0,1-.1.8l-.5,1.6-.7,1.9-.2.5-.4.5-.1.2a.52.52,0,0,1-.2.4l-.3.8-.5,1.1-.5,1.3-.4.9-.3,1-.2.5-.3.5-.2.5-.2.5-.3.6-.2.4-.3.6-.4.9-.2.7-.4.8-.3.5-.5,1.2-.5,1.1-.5,1.2-.4.9-1.2,2.4-.2.5a2.54,2.54,0,0,0-.2,1.2l.2,1.9v1.2l-.1.7V35l.1.8.1,1.3v2.4l-.2.7c-.1.1-.1.3-.1.6v.9l.1,1.2-.1,1.2v1.2l.2,1.1.1,1.2v1.2l-.1,1.2-.2,1.6a3.37,3.37,0,0,1-.4,1.2l-.8,1.3-.3.3a3.26,3.26,0,0,1-1.2.6h-.1a2.22,2.22,0,0,1-.9.1h-.7A4,4,0,0,1,108.4,54.2Z"/><path class="cls-1" d="M145.4,55.2a2.77,2.77,0,0,1-1.6-.5l-.9-.6-.4-.5a2.38,2.38,0,0,1-.6-1.1l-.3-1.1a2,2,0,0,1-.1-.8V48.9l-.2-1.2.1-.6a2,2,0,0,0,0-1.1l-.2-.8V44.1l.2-.5a.75.75,0,0,0,.1-.5c0-.3,0-.5-.1-.6l-.1-.3c-.1-.1-.1-.3-.1-.7l.1-.7V39.5l.1-.9V37.1l-.1-1.2.1-.6v-.7l-.1-.5-.1-.6.1-1.1-.2-.8V30.2l.2-1.4V27.6l-.1-1.2V24.9l.1-.8V23l-.2-.9v-.5l.1-1V19.4l-.2-.7v-.8l.1-.5a1.7,1.7,0,0,0,0-1l-.1-.5-.1-1.4.2-1.6V12l-.2-.9-.2-1a1.2,1.2,0,0,0-.7-.7,5.73,5.73,0,0,0-1.4-.4H138l-2.3.2h-2.1a3,3,0,0,1-1.6-.5l-.3-.2-.5-.3a1.89,1.89,0,0,1-.8-1,2.3,2.3,0,0,1-.3-.9L130,5.2V4.9a2.48,2.48,0,0,1,.1-.9V3.9a3.45,3.45,0,0,1,.5-1.1l.1-.1a4.13,4.13,0,0,1,1.2-.8l1.3-.5a2.54,2.54,0,0,1,.7-.2l2-.3,1.6-.2h6.8l.9.1h2.6l.4-.1a1.72,1.72,0,0,1,.8-.1h1l.7-.1h1.9l.7-.2,1.3-.1,2.1.1.7.2c.1.1.1.1.2.1s.2.1.3.2l.4.2.5.4.2.2a2.36,2.36,0,0,1,.6.9l.2.5a2.61,2.61,0,0,1,.3,1.6.9.9,0,0,1-.1.5.77.77,0,0,0-.1.3l-.2.6c-.1.1-.1.1-.1.2s0,.1-.1.2l-.2.3a3.09,3.09,0,0,1-1.2.9l-.3.2-1.7.5a2.92,2.92,0,0,1-.9.2l-.5.1-1-.1-.2-.1-.6.1-2.6.2-.5.1a1.46,1.46,0,0,0-.9.6,2.15,2.15,0,0,0-.2,1.1v1.7l.1.5.1.4a2,2,0,0,1,.1.8l-.1.7v1.2l-.1,1.2v1l.1,1,.2,2.5-.1,1.2v1.2l-.1.6a1.39,1.39,0,0,0,0,.9l.1.4a2,2,0,0,1,.1.8l-.1.8v2.1l.1.9v.7l-.1.2a2.44,2.44,0,0,0,0,1.2l.1.2.1.6v.9l-.1,1.2.1,1.1v2.6l-.1.3a2.44,2.44,0,0,0,0,1.2l.1.3a.19.19,0,0,1,0,.3v1.2l.1.7a2.22,2.22,0,0,1-.1.9l-.1.3c-.1.1-.1.2,0,.4v2.2l.1,1.3-.1,1.7-.2,2.4-.4.5-.6.7-.3.3-.5.4a3.17,3.17,0,0,1-1.4.5h-.3Z"/><path class="cls-1" d="M169,55.4a3.09,3.09,0,0,1-1-.5l-.2-.2-.5-.6c-.2-.3-.4-.5-.5-.7l-.5-1.1a2.17,2.17,0,0,1-.2-1l-.2-1.7.2-.5a1.39,1.39,0,0,0,0-.9V48l-.1-.6-.1-1.2V44.9l.1-.2V43.5l-.1-.5v-.6l.2-1.1.1-1V38l-.2-.9v-.5l.1-.9-.1-.9a1.72,1.72,0,0,1,.1-.8l.1-.3v-.8l-.2-2-.1-1.2.1-.6.1-.5V26.3l.1-1a1.72,1.72,0,0,0-.1-.8l-.1-.3a1.35,1.35,0,0,1,0-.9l.1-.8v-1l-.2-.9v-.5l.1-.9V16.6l-.1-.9.1-1.4-.1-1.1V9.7l.2-1.3V6.1l.1-1.8a3.71,3.71,0,0,1,.2-.9l.2-.5a1.63,1.63,0,0,1,.3-.6l.2-.2a1.93,1.93,0,0,1,1.2-.9l.8-.4a2.17,2.17,0,0,1,1.2-.2,2.5,2.5,0,0,1,1.4.4l.3.2.5.3a3,3,0,0,1,.9,1l.5.9a3.46,3.46,0,0,1,.3,1.2l.1,2,.1,1.1-.1,1.2v1.2l.1,1v1.2l-.1.9v.6l.2.9.1,2.4-.1,1.3v.9l-.1,1.2-.1,2.1.1.6c0,.2,0,.3.1.3.2.5.9.8,2.3.9l.6.1h.6l1.1-.1.5.1h.3a1.72,1.72,0,0,0,.8-.1l.2-.1h.6l.5.1h.7l1.6-.2h.2a1,1,0,0,0,.8-.5,2.35,2.35,0,0,0,.5-1.3c.1-.2,0-.4-.1-.8v-.3l-.1-.4V17.6l.1-1.2.1-.8-.1-.5v-.2l-.2-.6c-.1-.2-.1-.3,0-.4V12.6l-.1-.7V10.6l.1-.5a2,2,0,0,0,0-1.1l-.2-.6.1-.5.1-.5V7.1l-.1-1.6a5.07,5.07,0,0,1,.2-.9l.3-1.2a3.26,3.26,0,0,1,.9-1.4l.1-.1.4-.5a1.61,1.61,0,0,1,1.1-.5,1.48,1.48,0,0,1,.7-.1h.8a2.9,2.9,0,0,1,1.8.8l.2.1.5.4a2.28,2.28,0,0,1,.6,1.2l.1.2.3,1.7.2,1.9V9.4l.1.8a2.22,2.22,0,0,1-.1.9V12l.1.9-.1.5a1.7,1.7,0,0,0,0,1l.1.4a1.35,1.35,0,0,1,0,.9l-.1.5-.1,1.2v1.2l.1,1.1v1.2l.1.8v.4l-.1.9.1,1.2v4.9l.1.5v.2a1.48,1.48,0,0,1-.1.7v.9l.1.5v.5l-.1.9.1,1.4-.1,1v.9l.1.5v.1l.2.9-.2.5a2.44,2.44,0,0,0,0,1.2l.1.3c.1.1.1.3.1.6v.8l-.1,1.2.1.9v2.3l.1,1.3-.1.9-.2.6v.9l.1,1.2a2.51,2.51,0,0,1-.1,1l-.1.3a3.13,3.13,0,0,1-.5,1l-.3.5-.7.9-.5.2c-.2.2-.6.2-1.2.2l-1.5-.1-.5-.2a4.37,4.37,0,0,1-1-.6l-.2-.2-.3-.4a3.13,3.13,0,0,1-.5-1l-.4-1.2a4.2,4.2,0,0,0-.2-.5l-.2-1.9.1-.5v-.9l-.1-.6v-.5l.1-1-.1-.7a1.72,1.72,0,0,1,.1-.8l.1-.3v-.9l-.1-.7.1-.9a1.72,1.72,0,0,0-.1-.8l-.1-.3v-.7l.1-.7.1-.5-.2-2.3.1-.9-.1-.5-.1-.9c-.1-.7-.4-1.2-.8-1.3a1.64,1.64,0,0,0-1-.2h-1.2l-1.4.2H180l-1.2-.1-1.1.1h-1.5a2.22,2.22,0,0,0-.9.1l-.5.2a1.2,1.2,0,0,0-.7.7,3.41,3.41,0,0,0-.4,1.6V36l.2,1.3v1.1l-.2.6a1.72,1.72,0,0,0-.1.8l.1.9.2.6v1.6l-.1,1.2-.1.8.1.5.1,1,.1.5v.8l-.1.4v.7l.2,1.4-.1.8-.2,1.1a2.19,2.19,0,0,1-.3.9l-.2.5-.3.5a3.08,3.08,0,0,1-1.2.8,1.69,1.69,0,0,1-.5.2l-1.9.4Z"/><path class="cls-1" d="M231.8,29.1l-.1.7a1.48,1.48,0,0,1-.1.7l-.2.6-.1.5v3.1l-.1,1.2-.1,1c0,.1-.1.2-.2.5l-.3.9-.2,1.2-.5,2.3-.3,1.4-.4,1.1-.5,1-.4,1.1-.9,1.7a2.49,2.49,0,0,1-.5.7l-.2.2a4.23,4.23,0,0,0-.5.7l-.2.4a2,2,0,0,1-.8.8l-.1.1-.5.4-.4.4-.5.4-1,.6-.9.5-.9.5-.2.2c-.1.1-.2.1-.3.2l-.7.2-2.4.5-.9.2-.6.1h-.4a2.48,2.48,0,0,1-.9-.1L214,55l-1.2-.2-1.1-.2-.5-.1a3.09,3.09,0,0,1-1-.5l-.2-.3-.9-.7-.7-.5-.9-.9-.4-.4-.5-.7-1.2-1.6-.2-.5-.5-.8-.2-.5c-.1-.1-.1-.2-.2-.4s-.2-.3-.2-.5l-.1-.5v-.2c0-.1,0-.2-.1-.2a.1.1,0,0,1-.1-.1l-.2-.5-.2-.3-.5-1.2-.2-.7-.7-2.4v-.5a4.4,4.4,0,0,0-.2-1l-.2-.4-.2-.6-.2-1.1-.1-1.2v-.9a1.42,1.42,0,0,0-.2-.6l-.1-.4-.1-.5-.1-1,.1-1.3-.2-2.2V26.1l.2-1.4.2-1.2.2-1,.1-1.1v-.9l.1-.6.2-.7.2-.9a3.93,3.93,0,0,0,.2-.6l.1-.8.5-1.9c.1-.2.2-.5.4-.9l.2-.2a.91.91,0,0,0,.3-.7l.4-1.4c.1-.4.2-.6.2-.7l.4-.6c.1-.1.1-.1.1-.2s0-.1.1-.2l.4-.9.5-.9.5-1,.5-.9.3-.4L208,4.5l.4-.6a3.82,3.82,0,0,1,.9-.9l.2-.2c.1-.1.2-.1.3-.2s.2-.1.3-.2l1.6-1.3.6-.2.5-.2.4-.2a2.54,2.54,0,0,1,.7-.2l.6-.1,2.4-.2h.6l.5.1,1.9.4,1.1.3,1.9.9.5.4.6.5,1.7,1.8c.2.2.3.4.4.5l1,1.6.5.9.2.5.3.4.3.5.4.7.2.9.1.4.1.6v.3c0,.1.1.1.1.2l.7,1.8a.75.75,0,0,1,.1.5l.2,1.2.1.6v.3a1.48,1.48,0,0,0,.1.7l.2.7.2,1,.1,1.2.2,1.2.1.5v.8l.1,2.6.4,2.6Zm-8.1.8-.1-.2V27.4l-.1-.5-.2-1V24.5l-.1-.5-.1-.5v-.9l-.1-.5-.1-.5-.1-.5v-.5a4.4,4.4,0,0,0-.2-1l-.1-.2a4.2,4.2,0,0,0-.2-.5l-.2-1.5a2.39,2.39,0,0,0-.2-.9l-.2-.4-.2-.6-.2-.6c0-.1-.1-.2-.2-.5l-.3-.9-.2-.7-.1-.2a.22.22,0,0,1-.2-.2l-.1-.3-.9-1.6-.4-.4a4.43,4.43,0,0,0-.9-.5L216.4,9l-.5.1a3,3,0,0,0-1,.3l-.2.1a3,3,0,0,0-1,.9l-.9,1.2-.7.9-.2.4-.5.9-.8,1.7c-.1.1-.1.2-.2.3s-.1.2-.1.4l-.1.3c0,.2,0,.3-.1.3s-.1.2-.2.3l-.2.5c-.1.2-.2.3-.2.4v.2l-.5,1.9-.1.5-.2,1-.2.6a2,2,0,0,0-.1.8v.9l-.2.5a3.11,3.11,0,0,0-.1,1.1l.1.7-.2.5a3.11,3.11,0,0,0-.1,1.1l.1.7v1.2l.1,1-.1.7a2.22,2.22,0,0,0,.1.9l.2.9v1.1l.2,1.2.2,1.2.3,1.7.2.6.3.9.2.7a.9.9,0,0,1,.1.5l.1.5a8.14,8.14,0,0,0,.2.9l.5,1.3a2.8,2.8,0,0,0,.5.8l.5.7.9.9a4.17,4.17,0,0,0,1.6.9l.8.2h.4a5.16,5.16,0,0,0,1.1-.2l.3-.1.5-.2a2.72,2.72,0,0,0,1-.8l.2-.2q.15-.3.3-.3l.5-.4a1.7,1.7,0,0,0,.6-.6l.9-1.3.4-.8.2-.5.3-.9.5-2,.2-1.2.2-.7a1.48,1.48,0,0,0,.1-.7v-.7l.1-.5.1-.7.2-.6V32.7l-.1-.5.1-.7.1-.5C223.7,30.4,223.7,30.1,223.7,29.9Z"/><path class="cls-1" d="M266.6,6.6l-.1,2.3.1,1.2V11l-.1.5-.1.5a4.59,4.59,0,0,0-.1,1l.1.3v3l.1.9v.5l-.1.9-.1.5V20l.1.5V21l-.2,2v2.1l.1.5.1.5a.45.45,0,0,1,0,.5c-.1.2,0,.3,0,.4l-.1.8V29l-.1.8a1.72,1.72,0,0,0,.1.8l.1.4a1.38,1.38,0,0,1,0,.9l-.1.4a1.48,1.48,0,0,0-.1.7l.1.8.1,1,.1.5-.1.9v1.1l.1.9a2,2,0,0,1-.1.8l-.1.3v.8l.1.9-.1.8v.7l.1,1v1.3l.1.4v.9l-.2.8-.1.5.1.9.1.9.2,1.6v.7l-.2,1.5-.2,1-.5.5-.5.4-1,.5a2.82,2.82,0,0,1-1.5.4h-.5l-.5-.2a1.93,1.93,0,0,1-.9-.5l-1.2-1-.9-.8-.3-.5a2.09,2.09,0,0,1-.4-.6l-.3-.7-.7-1.2-.3-.6-.4-1.2-.9-2.3-.5-.9-.9-2.6-.4-1.1-.5-1.2-.5-1.2-.3-1-.5-1-.4-1.2-.5-1.2-.5-1.1-.2-.9-.4-1-.9-2.2-.4-.9-.2-.5-.2-.9-.4-1-.6-1.6-.5-.5h-.1a1.34,1.34,0,0,1-.1.5,2.48,2.48,0,0,0-.1.9l-.2.6a.45.45,0,0,0,0,.5v.4l.2,1.7.1.9v.5l-.1,1.1v1.2l.1.9-.1,1.2.1.9v.2c0,.3,0,.4.1.5l.2.6.1.5v.9l-.1,1.1-.1.7a2,2,0,0,0,.1.8l.2.5a2,2,0,0,1,.1.8l-.1.8.1,1.2v1.2l.3,2.6-.1.8v.5l.2,1.8a2.51,2.51,0,0,1-.1,1v.2a3.34,3.34,0,0,1-.5,1.2,2.18,2.18,0,0,1-.9.7l-.8.5a2.66,2.66,0,0,1-1.2.3l-.5.1-1.2-.1-.5-.2a2.18,2.18,0,0,1-.8-.5l-.1-.1a2.18,2.18,0,0,1-.7-.9l-.2-.2-.3-.8-.3-1.5-.2-.5a8.92,8.92,0,0,1-.2-1.1l.1-.5V46.7l-.2-1.3-.1-1,.1-1.1.1-.9a1.48,1.48,0,0,0-.1-.7l-.1-.5a1.48,1.48,0,0,1-.1-.7l.1-1-.1-.5v-.7l.1-.5.1-.8-.1-.9v-1l.1-1.2-.1-1.2v-.4l-.1-.5v-.3a1.48,1.48,0,0,1,.1-.7v-.9l-.1-.9-.2-.7a1.39,1.39,0,0,1,0-.9l.1-.2a2.22,2.22,0,0,0-.1-.9v-1l.1-.2v-.8l-.1-1V22.1l-.1-1.1.1-1.1.1-1.2v-1l-.1-.5-.2-.7v-3l.1-.4a1.7,1.7,0,0,0,0-1l-.1-.2V10l-.1-.5L238,9V8l.1-2a2,2,0,0,1,.1-.8l.2-.8.2-.5a4.13,4.13,0,0,1,.7-1.1l.4-.4.4-.5a1.7,1.7,0,0,1,.6-.6l.3-.2a6.89,6.89,0,0,1,1-.4l1.1-.2a3.44,3.44,0,0,1,.9-.1l.9.2.5.1c.5.1.9.2,1,.4l.3.2c.2.2.4.3.5.5l.5.5.5.9a7.91,7.91,0,0,1,.5,1l.4,1.9.2,1.1.2.9.2.5.5.9V10a2.54,2.54,0,0,0,.2.7l.4,1,.1.5a6.89,6.89,0,0,0,.4,1l.2.2.2.8.1.5.2,1.1a1.69,1.69,0,0,0,.2.5l.5,1.6.2.5.3.5.2.6.3.9.4,1.1.3,1.2.4,1.3.2.7c0,.1.1.2.2.5l.5.9.5,1.7.2.5.2.5.3.7.2-.2a6.27,6.27,0,0,0,.4-1.5l.2-1.2.1-.4V24l-.2-2.3.1-1.2v-.8l.1-1.2.1-1.1V16.2l.1-1.3v-.7l-.1-.5-.2-1,.2-.6a1.48,1.48,0,0,0,.1-.7V10.2l-.1-.9-.1-.6V8.2l.2-1.1V5.3l.1-.5.2-.9.5-1.7a3.7,3.7,0,0,1,.5-1.1l.3-.4.5-.2a5.31,5.31,0,0,1,1.1-.3l.9-.2h.4a5.16,5.16,0,0,1,1.1.2c.5.3.8.4.9.5l.2.2a4.23,4.23,0,0,1,.5.7l.5,1a2.61,2.61,0,0,1,.3,1.1l.2,1.9v1Z"/><path class="cls-2" d="M25.4,65.6l-.1,2,.1,1.1v.8l-.1.4-.1.4a3.44,3.44,0,0,0-.1.9l.1.3v2.7l.1.8v.4l-.1.8-.1.5v.8l.1.5v.5l-.1,1.8v1.9l.1.5.1.5c0,.1.1.3,0,.4V84l-.1.7v1.1l-.1.7c0,.3,0,.6.1.7l.1.4v.8l-.1.4c0,.2-.1.4-.1.6l.1.7.1.9.1.5-.1.8v1l.1.8a1.48,1.48,0,0,1-.1.7l-.1.3v.7l.1.8-.1.7v.6l.1.9V100l.1.4v.8l-.1.7-.1.4.1.8.1.8.1,1.5v.6l-.2,1.3-.2.9-.5.4-.5.4-.9.4a3.82,3.82,0,0,1-1.3.4h-.4l-.5-.2a2.18,2.18,0,0,1-.8-.5l-1.1-.9-.8-.7-.3-.4c-.1-.2-.3-.4-.4-.6l-.3-.6-.6-1.1-.3-.6-.4-1.1-.8-2.1-.4-.8-.6-1.9-.4-1-.4-1.1L13,95.1l-.3-.9-.4-.9-.4-1.1-.5-1.1-.4-1-.2-.8-.4-.9-.8-2-.4-.8L9,85.1l-.2-.8-.4-.9-.6-1.5-.4-.5H7.3a1,1,0,0,1-.1.4c0,.2-.1.5-.1.8l-.1.6c0,.2-.1.4,0,.5v.4l.2,1.5.1.8v.5l-.1,1V89l.1.8-.1,1.1.1.8v.2a.75.75,0,0,0,.1.5l.1.6.1.5v.8l-.1,1-.1.6a1.48,1.48,0,0,0,.1.7l.1.4c0,.2.1.4.1.7l-.1.7.1,1.1v1.1L8,103l-.1.7v.5l.1,1.6a2.22,2.22,0,0,1-.1.9v.1a2.81,2.81,0,0,1-.5,1.1,1.24,1.24,0,0,1-.8.6l-.7.4a2,2,0,0,1-1.1.3l-.4.1-1.1-.1-.4-.1a1.61,1.61,0,0,1-.7-.4l-.1-.1a1.24,1.24,0,0,1-.6-.8l-.1-.2-.3-.7-.3-1.3-.1-.5a4.59,4.59,0,0,1-.1-1l.1-.5v-1.9l-.1-1.2-.1-.9.1-1,.1-.8a1.27,1.27,0,0,0-.1-.6l-.1-.4c0-.2-.1-.4-.1-.6l.1-.9-.1-.5v-.6l.1-.5L.6,93l-.1-.8v-.9l.1-1.1L.5,89.1v-.4l-.1-.5v-.3a1.27,1.27,0,0,1,.1-.6v-.8l-.1-.8-.1-.6a1.1,1.1,0,0,1,0-.8l.1-.2a1.72,1.72,0,0,0-.1-.8v-.9l.1-.2v-.7l-.1-.9V79.5l-.1-1,.1-1,.1-1.1v-.9l-.1-.4-.1-.6V71.7l.1-.4v-.9l-.1-.2V68.5l-.1-.4L0,67.7v-.9L.1,65a1.48,1.48,0,0,1,.1-.7l.2-.7.1-.5a3.33,3.33,0,0,1,.6-1l.4-.4.4-.4a1.7,1.7,0,0,1,.6-.6l.3-.2a3.55,3.55,0,0,1,.9-.4l1-.2a3.22,3.22,0,0,1,.8-.1l.8.1.5.1c.5.1.8.2.9.4l.3.1a1.21,1.21,0,0,1,.5.5l.5.5.5.8a2.52,2.52,0,0,1,.4.9l.4,1.8.2,1,.2.8.1.4.4.8v.4a1.49,1.49,0,0,0,.1.6l.4.9.1.5a3.55,3.55,0,0,0,.4.9l.1.2.2.7.1.4.1,1a.76.76,0,0,0,.1.4l.5,1.4.2.5.3.5.2.6.3.8.4,1,.3,1.1.4,1.2.2.6a1.75,1.75,0,0,0,.1.5l.4.8.4,1.5.1.4.2.4.3.6.2-.1a4.79,4.79,0,0,0,.4-1.3l.2-1.1L18,83V81l-.1-2,.1-1.1v-.8l.1-1.1.1-1V73.9l.1-1.2v-.6l-.1-.5-.1-.9.1-.6c0-.1.1-.4.1-.6V68.4l-.1-.8-.1-.6v-.5l.1-1V63.9l.1-.4.1-.8.4-1.5a3,3,0,0,1,.4-1l.3-.4.4-.2a4.05,4.05,0,0,1,1-.3l.8-.1h.4a3.75,3.75,0,0,1,1,.1,2.13,2.13,0,0,1,.8.5l.1.1c.1.1.3.4.5.6l.5.9a2.24,2.24,0,0,1,.3,1l.1,1.7v1.5Z"/><path class="cls-2" d="M59.7,86l-.1.6c0,.3,0,.5-.1.6l-.1.6-.1.4V91l-.1,1.1-.1.9a1.75,1.75,0,0,1-.1.5l-.3.8-.1,1.1-.4,2-.3,1.3-.4,1-.4.9-.4,1-.8,1.5a5.92,5.92,0,0,1-.4.6l-.2.2c-.1.1-.3.4-.5.6l-.2.4a1.58,1.58,0,0,1-.7.7l-.1.1-.4.4-.4.4-.4.4-.9.6-.8.4-.8.5a.35.35,0,0,1-.2.1c-.1,0-.2.1-.3.1l-.6.2-2.2.4-.8.1-.6.1H45a2,2,0,0,1-.8-.1l-.5-.1-1.1-.1-1-.2-.5-.1a2.06,2.06,0,0,1-.9-.5l-.3-.1-.8-.6-.6-.4-.8-.8-.4-.4-.4-.6L35.8,104l-.2-.4-.4-.7-.2-.4c0-.1-.1-.2-.2-.4a.76.76,0,0,1-.2-.4l-.1-.4v-.1c0-.1,0-.2-.1-.2l-.1-.1-.1-.4-.2-.3-.4-1.1-.1-.6-.6-2.2v-.4a2.92,2.92,0,0,0-.2-.9l-.1-.4-.1-.6-.1-1-.1-1.1v-.8a1.27,1.27,0,0,0-.1-.6l-.1-.4-.1-.4-.1-.9.1-1.2-.1-2V83.7l.1-1.3.2-1.1.1-.9.1-1v-.8l.1-.6.1-.6.2-.8a1.76,1.76,0,0,0,.1-.6l.1-.7.4-1.8a5.44,5.44,0,0,1,.4-.8l.1-.1.3-.6.4-1.3a3.93,3.93,0,0,0,.2-.6l.4-.6a.35.35,0,0,0,.1-.2c0-.1,0-.1.1-.2l.4-.8.4-.8.5-.9.4-.8.3-.4,1.1-1.3.4-.6a6,6,0,0,1,.8-.8l.2-.1a15734929547254.52,15734929547254.52,0,0,0,.4-.2l1.4-1.2.6-.1.4-.1.4-.1a1.76,1.76,0,0,1,.6-.1l.6-.1,2.2-.1h.6l.4.1,1.8.4,1,.3,1.7.8.5.4.6.4,1.5,1.6.4.4.9,1.5.4.8.2.4.3.4.3.4.4.6.2.8.1.4.1.6v.2c0,.1.1.1.1.2l.6,1.6c0,.1.1.2.1.4l.2,1.1.1.6v.3a1.27,1.27,0,0,0,.1.6l.1.6.2.9.1,1.1.2,1.1.1.5v.7l.1,2.3.4,2.3Zm-7.4.7-.1-.2V84.4l-.1-.4-.1-.9V81.8l-.1-.5-.1-.4v-.8l-.1-.4-.1-.5-.1-.4v-.5a3.44,3.44,0,0,0-.1-.9l-.1-.2a1.34,1.34,0,0,1-.1-.5l-.1-1.3a1.88,1.88,0,0,0-.2-.8l-.2-.4-.1-.6-.1-.6a1.75,1.75,0,0,0-.1-.5l-.3-.8-.2-.6-.1-.2c-.1,0-.1,0-.1-.1l-.1-.3L48.8,69l-.4-.4a4.77,4.77,0,0,0-.8-.4l-1.4-.6-.5.1a2.19,2.19,0,0,0-.9.3l-.1.1a2.36,2.36,0,0,0-.9.8L43,70l-.6.8-.2.4-.4.8-.7,1.5c0,.1-.1.2-.1.3s-.1.2-.1.4l-.1.3a.37.37,0,0,1-.1.3.31.31,0,0,0-.1.2l-.2.5a.76.76,0,0,0-.1.4V76l-.4,1.7-.1.4-.1.9-.1.6c0,.2-.1.4-.1.7v.8l-.1.5c0,.2-.1.5-.1,1l.1.6-.1.5c0,.2-.1.5-.1,1l.1.6v1.1l.1.9-.1.6a1.72,1.72,0,0,0,.1.8l.1.8v1l.2,1.1.1,1.1.3,1.5.1.6.3.8.2.6a4.33,4.33,0,0,1,.1.5l.1.4a3.22,3.22,0,0,0,.1.8l.5,1.2c0,.1.1.3.4.7l.5.6.8.8a3.61,3.61,0,0,0,1.5.8l.7.1h.4a3.75,3.75,0,0,0,1-.1l.3-.1.5-.2a2.18,2.18,0,0,0,.9-.7l.1-.1q0-.15.3-.3l.4-.4a1.7,1.7,0,0,0,.6-.6l.8-1.2.4-.7.1-.4.3-.8.4-1.8.1-1.1.1-.6c0-.1.1-.4.1-.6v-.7l.1-.5.1-.6.1-.6v-.8l-.1-.5.1-.6.1-.5A9.2,9.2,0,0,1,52.3,86.7Z"/><path class="cls-2" d="M83.2,109.2a1.86,1.86,0,0,1-1.1-.4l-.5-.5-.8-.9c-.2-.2-.4-.4-.4-.6l-.6-1.5-.3-.6-.1-.4-.4-.6-.4-.8-.2-.4-.2-.6-.1-.2-.3-.5-.1-.4-.6-1-.3-.4-.3-.7-.1-.2a3.28,3.28,0,0,0-.6-.8l-.1-.2-.3-.4-.4-.7-.5-.8-.8-1.3-.3-.3-.3.1a.56.56,0,0,0-.1.6v.2l-.1.7v.8l.1,1.1v.6l-.1.9v.4a1.48,1.48,0,0,0,.1.7l.1.4a5.38,5.38,0,0,1,.1.8l-.1.7.1.6.1.4-.1,1,.1,1.5-.1.6-.3,1.4-.4.5c0,.1-.2.3-.4.4l-.5.5-.4.2a3.09,3.09,0,0,1-1.1.2H69a2.79,2.79,0,0,1-1-.1h-.1a2,2,0,0,1-1-.9l-.3-.5-.6-1.3c-.1-.4-.2-.7-.2-.8l-.1-1.5v-1.1l-.1-1.1.1-1v-.9L65.6,99l.1-1.1v-2l.1-1.1V93.7l-.1-1v-2l-.1-1.1.1-2v-2l-.1-1.1-.1-1.3.1-1V81.1l-.1-.6v-.8l.1-.3V77.9l.1-.5a2.22,2.22,0,0,0-.1-.9l-.1-.2v-.7l.1-.7V73.8l-.1-.8V71.7l-.1-1.1V69.5l.1-1.2V66l.1-.6.1-.4v-.4a3.09,3.09,0,0,1,.2-.8l.8-1.5.2-.5a5,5,0,0,1,.6-.8l.1-.1a2.38,2.38,0,0,1,1.1-.6l.1-.1a1.76,1.76,0,0,1,.6-.1l1.5-.1h.7a1.27,1.27,0,0,1,.6.1l.8.1,1.1.1.7.1a4.2,4.2,0,0,0,.5.2l1.4.6.5.3,1.4.8.8.6,1,.8.8.8.5.4.4.4.4.6.8.9.6.8.6.8.2.4.7,1.7a.76.76,0,0,1,.1.4l.1.7.3.7.1.6.1.9.2,1.1-.1.6.1.5.2,1.8v1a2,2,0,0,1-.1.8l-.2.6-.4,2.2-.3.9a.35.35,0,0,0-.1.2c0,.1,0,.1-.1.2l-.4.6-.2.6a2,2,0,0,1-.4.8l-1.2,1.5-1.3,1.3a.22.22,0,0,1-.2.2.35.35,0,0,0-.2.1l-1.1.7-.3.4c-.1.1-.1.2-.1.4a5.16,5.16,0,0,0,.2,1.1.86.86,0,0,0,.3.6l1,1.5.5.8.7,1.1.3.5.3.6.2.6.1.2.1.3.3.5.5,1,.5,1.1.4,1,1,2,.7,2-.1.7c0,.3,0,.5-.1.6l-.2.8-.3.4a3,3,0,0,1-.8.7l-.4.2a2.44,2.44,0,0,1-1.7.4c-.1,0-.2-.1-.2,0h-.1ZM73.6,84.5a2,2,0,0,0,.8-.1h.2a1.09,1.09,0,0,0,.5-.1l1.3-.4a1.61,1.61,0,0,0,.7-.4l.4-.2c.2-.2.4-.3.5-.4l.4-.5.8-.9.2-.6.1-.4.2-2,.1-.4.1-.4v-.6l-.2-1.8-.2-.7a2.19,2.19,0,0,0-.3-.8l-.1-.2a6.89,6.89,0,0,0-.3-.8,1.87,1.87,0,0,0-.5-1l-.1-.1-.4-.5-.5-.4-.3-.3-.4-.4-.4-.4-.6-.5-1.3-.9-.3-.1h-.1c-.1,0-.3.2-.5.6a3.44,3.44,0,0,0-.1.9v1.5l.1,1-.1,1.3-.1,1v1l-.1,1.1.1,1.1v.9l.1.9-.1,1.1-.1.8.1,2-.1,1.1.3.1h.2Z"/><path class="cls-2" d="M117.9,81v1.2l-.1,1.3v.8l-.1,1.1v1l-.1,1.1-.1.3-.1.7-.4.9a.76.76,0,0,0-.1.4l-.1.8-.1.7-.1.6-.2.6c-.1.3-.2.4-.2.5l-.1.4c-.1.5-.3.8-.4.8l-.1.1-.3.7-.1.3a.76.76,0,0,1-.2.4l-.8,1.8-.4.8-.5.8-.2.5-.3.6-.6.7-1.2,1.7-.5.8-.4.3a1.58,1.58,0,0,0-.7.7l-.1.2a.22.22,0,0,1-.2.2.35.35,0,0,0-.2.1l-.7.6-.4.4c-.2.2-.4.4-.5.4l-.4.3-.4.2-.7.3-1.5.8-.5.1-.4.1a1.23,1.23,0,0,0-.8.4l-.2.1a1.63,1.63,0,0,1-.6.3l-.6.1-2,.4-.5.1-1.6-.1a3,3,0,0,1-1-.2l-.1-.1c-.4-.2-.6-.4-.8-.5l-.7-.7-.4-.5a1.63,1.63,0,0,1-.3-.6l-.1-.4a3.44,3.44,0,0,1-.1-.9v-.4l-.2-2v-.6l.1-.7.1-.6a1.7,1.7,0,0,0,0-1l-.1-.2-.1-.6.1-.8.1-1.9v-1l-.1-.8V92.4l.1-.6a1.72,1.72,0,0,0-.1-.8l-.1-.5.1-.4.1-.4v-.6l-.1-.5-.1-.6.1-.9.1-1-.1-.9-.1-1.1.1-.8v-.6l-.1-.6-.1-.4v-.9l.1-.5v-.9l-.1-.4v-.3l.1-.7.1-.8v-.9l-.1-.6v-.2l.1-.5v-.6l-.1-.4v-.6l.1-.7v-1l-.1-.6v-.8l.1-.4c0-.1.1-.3,0-.4v-.8l-.1-.8.1-.7.1-.6.1-2.1.1-.4.3-1.5.2-.6.3-.6.3-.3c.1-.2.5-.4,1.1-.6h.1l1.8-.4h1.2a.75.75,0,0,0,.5-.1h.1l.8-.1.6.1a3.54,3.54,0,0,0,.6.1h.4a1.49,1.49,0,0,1,.6.1l.9.2,1,.3.6.1a.76.76,0,0,1,.4.1c.2,0,.3.1.4.1l.8.4.9.4,1.8,1,.8.5a1.38,1.38,0,0,1,.4.3l.5.4.8.6.2.4a1.55,1.55,0,0,0,.8.8l.1.1.4.6.1.3.6.8.3.4.8,1.5.5.8a.35.35,0,0,1,.1.2c0,.1,0,.1.1.2l.3.7a.35.35,0,0,1,.1.2c0,.1,0,.2.1.2l.3.5.2.6.1.6.3,1.1.3,1.2.3,1.8v1.1l.1.5.1.7Zm-7.3-1.4-.1-1.3-.3-1.6a1.27,1.27,0,0,0-.1-.6l-.2-.5-.1-.4-.2-.8-.1-.4a.86.86,0,0,0-.3-.6l-.4-.6-.2-.6-.4-.6-1.7-2-.6-.4-.5-.3-.6-.5a1.88,1.88,0,0,0-.9-.4l-1.5-.4a3.22,3.22,0,0,0-.8-.1l-.6.1-.1.4a4.1,4.1,0,0,0-.1,1.1l.1,1.8.1.6v.6l-.1.4a3.44,3.44,0,0,0-.1.9l.1.2.1.6v.9l-.1.8v.6l.1.8v1.1l.1,1-.1.6a1.7,1.7,0,0,0,0,1l.1.8-.1.6v.8l.1.4v.5l-.1.7v1.4l.1.5v.5l-.1.9v1.3l.1.6v.5l-.1,1-.1.8v1.4l.1.8v.6l-.1,1.5v.2l-.1.6.1.4.1,2,.1.8a.89.89,0,0,0,.8.4,1.48,1.48,0,0,0,.7-.1l.5-.3c.4-.3.7-.4.7-.5l1.1-1.3.4-.6.5-.5.2-.1a1.24,1.24,0,0,0,.6-.8l.3-.5.4-.8,1.1-2,.4-.9.4-1.2.3-.9.3-1.2.1-.8.1-.4.1-.4c.1-.4.2-.7.2-.8v-.4a3.22,3.22,0,0,1,.1-.8l.1-.1c0-.2.1-.5.1-.8v-.6l.1-1.1.1-1.1.1-.6v-.7Z"/><path class="cls-2" d="M130,69.7v.2l.1,1.5.1.9v1l-.1,1.1-.1.9v2l.2,1.8.1.8c.1.6.9,1,2.2,1.3l1,.2a2.05,2.05,0,0,1,1.5,1l.6.7.2.5a1.27,1.27,0,0,1,.1.6,3.22,3.22,0,0,1-.1.8l-.2,1-.3.5a2.41,2.41,0,0,1-.6.8l-.3.2-.4.3a2.19,2.19,0,0,1-.8.3l-1.3.4-.8.1a1.28,1.28,0,0,0-1,1,5.38,5.38,0,0,0-.1.8l.1,1.3-.1.8v.4l.1,1-.1.5-.1.4v1.3l.1,1,.1.5a1.48,1.48,0,0,1-.1.7l-.1.4c0,.1-.1.2,0,.4v.4l.1,1,.1,1.1.4.3a3.19,3.19,0,0,0,1.3.4l.7.1h.6l.6-.1h.6l1.8.2,1.3.3.6.2.4.1.7.5.4.4.2.4a3.59,3.59,0,0,1,.2,1.1v.6a2.49,2.49,0,0,1-.1.8l-.2.7-.3.4-.5.6-.1.1a2.34,2.34,0,0,1-1,.5l-1,.3a5.38,5.38,0,0,1-.8.1l-1.3-.1h-.4l-.6.1h-.7l-.7-.1h-.8l-2.2.2h-.6l-2-.3-1.2-.3-.4-.4c-.4-.3-.7-.4-.7-.5l-.6-.6-.4-.6a1.63,1.63,0,0,1-.3-.6l-.1-.4a3.22,3.22,0,0,1-.1-.8v-1.8l.1-.6v-.6l-.1-.6v-1.3l.1-.4.1-.4V98.2l-.1-1V96.1l.1-.9.1-1V92.8l-.1-.4a5.38,5.38,0,0,1-.1-.8l.1-.6-.1-1.1V88.7l.1-.6.1-.5V85.8L123,85v-.6l.1-.4.1-.6-.1-.6v-.5l.1-.5a1.48,1.48,0,0,0-.1-.7l-.1-.4c0-.2-.1-.4-.1-.7l.1-.6-.1-1.2.1-1.1v-2l.1-1,.1-1.1-.1-1.1.1-.6-.1-.6v-.1l-.1-.5-.1-.6.1-.6-.1-1.1.1-1.1.1-.8-.1-1.3a2.5,2.5,0,0,1,.3-1.3l.4-.8a2.41,2.41,0,0,1,.6-.8l.4-.4.4-.3a3,3,0,0,1,1.1-.3l1.4-.1h.6l.5.1h.1l.5.1h.2l1.1-.1c.4,0,.7,0,.8.1l.4.1c.2,0,.5.1.8.1l.6-.1,1-.1,1.1.1,1.5.1,1.2.2c.1,0,.2.1.3.1a.76.76,0,0,1,.4.1l.8.4.4.4a9.22,9.22,0,0,0,.5.8v.1a3.44,3.44,0,0,1,.1.9l.1,1.8-.2.4a2.8,2.8,0,0,1-.5.8l-.2.3-.3.3a.35.35,0,0,0-.2.1l-.2.1a3.36,3.36,0,0,1-1,.4l-1.5.2h-2.2l-2.5-.2-.4.1a2.66,2.66,0,0,0-1,.6l-.1.1-.1.7v.1Z"/><path class="cls-2" d="M156.5,110a1.27,1.27,0,0,1-.6-.1l-.6-.1-1.8-.4a3.93,3.93,0,0,0-.6-.2l-.6-.2-.9-.5-.7-.4-.5-.4-.7-.6-.5-.4-.6-.6-.4-.4-.6-.8-.2-.6-.4-.7-.2-.3c-.3-.4-.4-.6-.4-.7l-.1-.5-.5-2.1v-.4l-.1-1.1a1.84,1.84,0,0,1,.4-1.3l.5-.5.4-.4.4-.4a2.44,2.44,0,0,1,1.3-.4l.5-.1h.6l.2.1a3.34,3.34,0,0,1,1.2.5l.6.6a1.87,1.87,0,0,1,.5,1l.4,1,.6,1.7.4.6c0,.1.2.3.4.5l.2.2a1.24,1.24,0,0,0,.8.6h.1l.5.2.6.1a1.72,1.72,0,0,0,.8-.1l.2-.1a2.8,2.8,0,0,0,1.2-.8l.4-.4a1.51,1.51,0,0,0,.4-.8l.4-1a1.09,1.09,0,0,0,.1-.5l.1-.5c0-.3,0-.6-.1-.7v.1l-.1-.6-.1-.6a.75.75,0,0,0-.1-.5v-.1l-.2-.8-.1-.6-.1-.5-.1-.4-.6-1.1-.3-.4-.5-.7-.2-.4c0-.1-.3-.3-.6-.7l-.2-.1-.4-.4-.4-.5L154,87.8l-.6-.4L153,87l-.7-.8-1.6-1.4-.8-.7-.7-.6-1.5-1.3-.5-.5-.5-.7-.3-.4a1.88,1.88,0,0,1-.4-.9l-.1-.2-.3-.7-.3-.5-.5-1.1v-.5a2.22,2.22,0,0,0-.1-.9l-.1-.2a2.79,2.79,0,0,1-.1-1V74l-.1-1v-.9c0-.1.1-.1.1-.2l.5-1.8.1-.9c0-.2,0-.3.1-.4l.2-.6.1-.5.3-.5a.35.35,0,0,0,.1-.2c0-.1,0-.2.1-.2l.8-1.2.3-.4.7-.6,1-1.3a3.81,3.81,0,0,1,.6-.5l.8-.6.8-.6.6-.3.4-.1.8-.3,1.1-.2.8-.2.6-.1.7-.1h1l1.3.1,1.3.3a1.88,1.88,0,0,1,1,.4l.6.4.9.5a.35.35,0,0,0,.2.1c.1,0,.1,0,.2.1l.6.4.6.4c.1.1.3.2.4.4l.6.8.6.8.4.6.2.4.4,1,.3.5c.1.4.2.7.2.8l.2,1.5v.6a1.5,1.5,0,0,1-.4,1.1l-.3.5a1.78,1.78,0,0,1-.7.8l-.3.3-.4.1a2.24,2.24,0,0,1-1,.3H163a2.2,2.2,0,0,1-1.3-.4l-.3-.1a2.89,2.89,0,0,1-1.2-1.5l-.3-.7-.5-1.1a3,3,0,0,0-.7-1l-.4-.4-.3-.6a2.24,2.24,0,0,0-1-.3h-.2l-1,.1a1.8,1.8,0,0,0-.9.4l-.1.1-.4.4-.1.1-.6.6-.4.5a.35.35,0,0,0-.1.2.35.35,0,0,1-.1.2l-.5,1-.1.6-.1.5c0,.2-.1.4-.1.7v.8l-.1.9.2.7a.76.76,0,0,0,.1.4l.1.4a1.23,1.23,0,0,0,.5.8l.4.4,1.5,1.3.7.6.9.7.8.8,1.5,1.3.8.6.7.7.8.9.4.3.5.6.3.4.7.8,1.1,1.5a2.09,2.09,0,0,1,.4.6l.1.5.3.6.1.3.2.4.3.3a3,3,0,0,1,.4,1l.1.4.3,1,.2.6.1.4L167,96l.2,1.8a1.72,1.72,0,0,1-.1.8l-.1.6-.1,1.1-.2.6c0,.1-.1.2-.1.3s-.1.2-.1.4v.4c0,.1-.1.4-.2.8l-.6,1.4-.3.6a4.57,4.57,0,0,1-.4.6l-.6.6-.4.5-.3.4-.7.6-1.1,1a1.27,1.27,0,0,1-.7.4l-1.6.7-.7.1a1.09,1.09,0,0,1-.5.1h-.7l-.8.1h-.4Z"/><path class="cls-2" d="M184.4,109.6a2.41,2.41,0,0,1-1.5-.4l-.8-.6-.4-.4a2.07,2.07,0,0,1-.6-1l-.3-1c0-.2-.1-.4-.1-.7V104l-.1-1.1.1-.6a1.7,1.7,0,0,0,0-1l-.1-.7v-1l.1-.5a4.33,4.33,0,0,0,.1-.5,1.27,1.27,0,0,0-.1-.6l-.1-.3a3.54,3.54,0,0,1-.1-.6l.1-.6V95.3l.1-.8V93.2l-.1-1.1.1-.6v-.6l-.1-.5-.1-.6.1-1-.1-.7V86.8l.1-1.3V84.4l-.1-1.1V82l.1-.7v-1l-.1-.8V79l.1-.9V77l-.1-.6v-.7l.1-.5v-.9l-.1-.4-.1-1.3.1-1.5v-.8l-.1-.8-.1-.9q0-.3-.6-.6a5,5,0,0,0-1.3-.4h-.6l-2,.2h-1.9a2.3,2.3,0,0,1-1.4-.4l-.3-.1-.4-.3a1.85,1.85,0,0,1-.7-.9,2.71,2.71,0,0,1-.3-.8l-.1-1V64a2,2,0,0,1,.1-.8v-.1a2.6,2.6,0,0,1,.4-1l.1-.1a3.48,3.48,0,0,1,1.1-.7l1.2-.5a1.76,1.76,0,0,1,.6-.1l1.8-.3,1.4-.1h6.1l.8.1h2.3l.4-.1a5.64,5.64,0,0,1,.7-.1h.9l.6-.1h1.7l.6-.1,1.2-.1,1.9.1.6.2a.35.35,0,0,0,.2.1.37.37,0,0,1,.3.1l.4.2.5.4.2.1a5.55,5.55,0,0,1,.6.8l.2.4a4.94,4.94,0,0,1,.3,1.5.6.6,0,0,1-.1.4.37.37,0,0,0-.1.3l-.2.6a.35.35,0,0,0-.1.2c0,.1,0,.1-.1.2l-.2.3a2.58,2.58,0,0,1-1.1.8l-.3.1-1.5.5a2.2,2.2,0,0,1-.8.1l-.5.1-.9-.1-.1-.1-.6.1-2.3.2-.5.1a1.24,1.24,0,0,0-.8.6,3.55,3.55,0,0,0-.2,1v1.5l.1.4.1.4c0,.2.1.4.1.7l-.1.6v1.1l-.1,1.1v.9l.1.9.1,2.2-.1,1.1v1.1l-.1.6v.8l.1.4c0,.2.1.4.1.7l-.1.7v1.9l.1.8v.7l-.1.2v1.1l.1.2.1.6v.8l-.1,1.1.1,1v2.3l.1.6v1.1l.1.3c0,.1.1.2,0,.3v1.1l.1.6a1.72,1.72,0,0,1-.1.8l-.1.3c0,.1-.1.2,0,.4v2l.1,1.2-.1,1.5-.1,2.2-.4.5-.6.6-.3.3-.5.4a2.83,2.83,0,0,1-1.3.4h-.4Z"/><path class="cls-2" d="M210.2,69.7v.2l.1,1.5.1.9v1l-.1,1.1-.1.9v2l.2,1.8.1.8c.1.6.9,1,2.2,1.3l1,.2a2.05,2.05,0,0,1,1.5,1l.6.7.2.5a1.27,1.27,0,0,1,.1.6,3.22,3.22,0,0,1-.1.8l-.2,1-.3.5a2.41,2.41,0,0,1-.6.8l-.3.2-.4.3a2.19,2.19,0,0,1-.8.3l-1.3.4-.8.1a1.28,1.28,0,0,0-1,1,5.38,5.38,0,0,0-.1.8l.1,1.3-.1.8v.4l.1,1-.1.5-.1.4v1.3l.1,1,.1.5a1.48,1.48,0,0,1-.1.7l-.1.4c0,.1-.1.2,0,.4v.4l.1,1,.1,1.1.4.3a3.19,3.19,0,0,0,1.3.4l.7.1h.6l.6-.1h.6l1.8.2,1.3.3.6.2.4.1.7.5.4.4.2.4a3.59,3.59,0,0,1,.2,1.1v.6a2.49,2.49,0,0,1-.1.8l-.2.7-.3.4-.5.6-.1.1a2.34,2.34,0,0,1-1,.5l-1,.3a5.38,5.38,0,0,1-.8.1l-1.3-.1h-.4l-.6.1h-.7l-.7-.1h-.8l-2.2.2h-.6l-2-.3-1.2-.3-.4-.2c-.4-.3-.7-.4-.7-.5l-.6-.6-.4-.6a1.63,1.63,0,0,1-.3-.6l-.1-.4a3.22,3.22,0,0,1-.1-.8v-1.8l.1-.6v-.6l-.1-.6v-1.3l.1-.4.1-.4V98.4l-.1-1V96.3l.1-.9.1-1V93l-.1-.4a5.38,5.38,0,0,1-.1-.8l.1-.6-.1-1.1V88.7l.1-.6.1-.5V85.8l-.1-.8v-.6l.1-.4.1-.6-.1-.6v-.5l.1-.5a1.48,1.48,0,0,0-.1-.7l-.3-.4c0-.2-.1-.4-.1-.7l.1-.6-.1-1.2.1-1.1v-2l.1-1,.1-1.1-.1-1.1.1-.6-.1-.6v-.1l-.1-.5-.1-.6.1-.6-.1-1.1.1-1.1.1-.8-.1-1.3a2.5,2.5,0,0,1,.3-1.3l.4-.8a2.41,2.41,0,0,1,.6-.8l.4-.4.4-.3a3,3,0,0,1,1.1-.3l1.4-.1h.6l.5.1h.1l.5.1h.2l1.1-.1c.4,0,.7,0,.8.1l.4.1c.2,0,.5.1.8.1l.6-.1,1-.1,1.1.1,1.5.1,1.2.2c.1,0,.2.1.3.1a.76.76,0,0,1,.4.1l.8.4.4.4a9.22,9.22,0,0,0,.5.8v.1a3.44,3.44,0,0,1,.1.9l.1,1.8-.2.4a2.8,2.8,0,0,1-.5.8l-.2.3-.3.3a.35.35,0,0,0-.2.1l-.2.1a3.36,3.36,0,0,1-1,.4l-1.5.2h-2.2l-2.5-.2-.4.1a2.66,2.66,0,0,0-1,.6l-.1.1-.1.7v0Z"/><path class="cls-3" d="M76.6,171a1.27,1.27,0,0,1-.6-.1l-.6-.1-1.8-.4a3.93,3.93,0,0,0-.6-.2l-.6-.2-.9-.5-.7-.4-.5-.4-.7-.6-.6-.5-.6-.6-.4-.4-.6-.8-.2-.6-.4-.7-.2-.3c-.3-.4-.4-.6-.4-.7l-.1-.5-.5-2.1v-.2l-.1-1.1a1.84,1.84,0,0,1,.4-1.3l.5-.5.4-.4.4-.4a2.44,2.44,0,0,1,1.3-.4l.5-.1h.6l.2.1a3.34,3.34,0,0,1,1.2.5l.6.6a1.87,1.87,0,0,1,.5,1l.4,1,.6,1.7.4.6c0,.1.2.3.4.5l.2.2a1.24,1.24,0,0,0,.8.6H75l.5.2.6.1a1.72,1.72,0,0,0,.8-.1l.2-.1a2.8,2.8,0,0,0,1.2-.8l.4-.4a1.51,1.51,0,0,0,.4-.8l.4-1a1.09,1.09,0,0,0,.1-.5l.1-.5c0-.3,0-.6-.1-.7v-.1l-.1-.6-.1-.6a.75.75,0,0,0-.1-.5v-.1l-.2-.8-.1-.6-.1-.5-.1-.4-.6-1.1-.3-.4-.5-.7-.2-.4c0-.1-.3-.3-.6-.7l-.2-.1-.4-.4-.4-.5L74,148.7l-.6-.4-.4-.4-.7-.8-1.6-1.4-.8-.7-.7-.6-1.5-1.3-.5-.5-.5-.7-.3-.4a1.88,1.88,0,0,1-.4-.9l-.1-.2-.3-.7-.3-.5-.5-1.1v-.4a2.22,2.22,0,0,0-.1-.9l-.1-.2a2.79,2.79,0,0,1-.1-1V135l-.1-1v-.9c0-.1.1-.1.1-.2l.5-1.8.1-.9c0-.2,0-.3.1-.4l.2-.6.1-.5.3-.5a.35.35,0,0,0,.1-.2c0-.1,0-.2.1-.2l.8-1.2.3-.4.7-.6,1-1.3a3.81,3.81,0,0,1,.6-.5l.8-.6.8-.6.6-.3.4-.1.8-.3,1.1-.2.8-.2.6-.1.7-.1h1l1.3.1,1.3.3a1.88,1.88,0,0,1,1,.4l.6.4.9.5a.35.35,0,0,0,.2.1c.1,0,.1,0,.2.1l.6.4.6.4c.1.1.3.2.4.4l.6.8.6.8.4.6.2.4.4,1,.3.5c.1.4.2.7.2.8l.2,1.5v.6a1.5,1.5,0,0,1-.4,1.1l-.3.5a1.78,1.78,0,0,1-.7.8l-.3.3-.4.1a2.24,2.24,0,0,1-1,.3H83a2.2,2.2,0,0,1-1.3-.4l-.3-.1a2.89,2.89,0,0,1-1.2-1.5l-.3-.7-.5-1.1a3,3,0,0,0-.7-1l-.4-.4-.5-.2a2.24,2.24,0,0,0-1-.3h-.2l-1,.1a1.8,1.8,0,0,0-.9.4l-.1.1-.4.4-.1.1-.6.6-.4.5a.35.35,0,0,0-.1.2.35.35,0,0,1-.1.2l-.5,1-.1.6-.1.5c0,.2-.1.4-.1.7v.8l-.1.9.2.7a.76.76,0,0,0,.1.4l.1.4a1.23,1.23,0,0,0,.5.8l.4.4,1.5,1.3.7.6.9.7.8.8,1.5,1.3.8.6.7.7.8.9.4.3.5.6.3.4.7.8,1.1,1.5a2.09,2.09,0,0,1,.4.6l.1.5.3.6.1.3.2.4.3.3a3,3,0,0,1,.4,1l.1.4.3,1,.2.6.1.4.3,2.2.2,1.8a1.72,1.72,0,0,1-.1.8l-.1.6-.1,1.1-.2.6c0,.1-.1.2-.1.3s-.1.2-.1.4v.4c0,.1-.1.4-.2.8l-.6,1.4-.3.6a4.57,4.57,0,0,1-.4.6l-.6.6-.4.5-.3.4-.7.6-1.1,1a1.27,1.27,0,0,1-.7.4l-1.6.7-.7.1a1.09,1.09,0,0,1-.5.1h-.7l-.8.1h-.1Z"/><path class="cls-3" d="M117.6,165.7V167c0,.3,0,.6-.1.7l-.1.1a2.81,2.81,0,0,1-.5,1.1l-.6.6a2.25,2.25,0,0,1-1.2.5l-1.1.2-.6.1-.8-.1-.4-.3-.5-.5-.3-.4a2.09,2.09,0,0,1-.4-.6l-.6-1.6-.1-.4c0-.1-.1-.2-.1-.3s-.1-.2-.1-.3v-.1l-.1-.6-.4-2v-.4s-.1-.3-.2-.7l-.1-.4c-.1-.4-.2-.7-.2-.7l-.1-1.3-.1-.4a1.71,1.71,0,0,0-.9-.6l-.6-.1-.4-.1h-.7l-.4.1c-.1,0-.3.1-.4,0h-.3l-.5-.1-1.2-.1-.5.1a5.64,5.64,0,0,1-.7.1h-1.5l-.4.3a2.28,2.28,0,0,0-.6,1.2l-.2.7a1.34,1.34,0,0,0-.1.5l-.1.8-.3,2.1-.2,1.9-.1.4-.4,1.3a1.79,1.79,0,0,1-.4.8l-.4.6a2,2,0,0,1-1.2,1l-.4.1-.4.2c-.1,0-.2.1-.4.1a2,2,0,0,1-.8-.1l-.5-.1a2.19,2.19,0,0,1-1.5-.8l-.4-.6-.1-.3a1.78,1.78,0,0,1-.4-1l-.1-.6v-.4a1.48,1.48,0,0,1,.1-.7l.3-1.3.2-2.2.1-1.1.2-.8.1-.4.1-.5c0-.1.1-.4.2-.8l.1-.3a3.22,3.22,0,0,0,.1-.8l.1-.4.1-1.2.3-.6a1.85,1.85,0,0,0,.2-.7v-.1l.1-.6.2-.8.1-.4.1-.9.1-.6a1.76,1.76,0,0,0,.1-.6v-.7l.1-1.1.2-1.1.2-.6a1.27,1.27,0,0,0,.1-.6l.1-.6a1.27,1.27,0,0,1,.1-.6l.1-.4a2.64,2.64,0,0,0,.1-.7V144l.1-.4.1-.8.3-.9a4.33,4.33,0,0,0,.1-.5v-.1l.1-.6.4-2.1.3-1,.1-1.1.2-.9.1-.5v-.6a2.64,2.64,0,0,1,.1-.7l.1-.4.1-.4.1-.6a1.49,1.49,0,0,1,.1-.6l.2-.6a.1.1,0,0,1,.1-.1.35.35,0,0,0,.1-.2l.1-.7.1-1.3.2-1.1.4-2,.4-1.6.2-.5.4-.9.4-.4a1.7,1.7,0,0,1,.6-.6l.4-.2a5.2,5.2,0,0,0,.5-.3l1.1-.4c.4-.1.7-.2.8-.2l.7-.1.5-.1.4-.1a3.22,3.22,0,0,1,.8.1l.4.1.6.2c.1,0,.2.1.4.1a.76.76,0,0,1,.4.2l.8.8a3,3,0,0,1,.6,1.1l.4,1.5.4.9.4,1.3.2,2,.2,1.1.4,1.7a3.54,3.54,0,0,1,.1.6l.2,1.7.1.8.4,1.1.2.9.2,1.2v.4a1.48,1.48,0,0,0,.1.7l.4,1.8.4,1.9.1,1.2.1.8a.37.37,0,0,0,.1.3l.1.2.2.6.1.6.1.6.1.4.1.5a2.8,2.8,0,0,1,.1.6v.8a1.27,1.27,0,0,0,.1.6l.1.3.3.9a1.34,1.34,0,0,1,.1.5l.1.8.3,1.1.5,2,.1.8v.2l.1.6.2.8a1.76,1.76,0,0,1,.1.6v.6a2.64,2.64,0,0,0,.1.7l.2.6.1.8.3,1.1.2.8a4.33,4.33,0,0,1,.1.5Zm-10.4-15.4a1.27,1.27,0,0,0-.1-.6l-.4-1.4-.1-.8-.1-.4v-.6a2.92,2.92,0,0,0-.2-.9l-.1-.3c-.1-.3-.2-.4-.2-.5l-.1-1,.1-.6c0-.3,0-.5-.1-.6l-.2-.9-.3-.9-.3-1.3-.4-1.8-.4-1-.2-.1-.3.6a.76.76,0,0,0-.1.4l-.1.6a2.8,2.8,0,0,0-.1.6v.8l-.2.6a1.34,1.34,0,0,0-.1.5l-.1.6a.75.75,0,0,1-.1.5v.1l-.3.8-.1,1.2-.1,1-.1.8v.2c0,.1-.1.1-.1.2l-.1.6a1.76,1.76,0,0,0-.1.6v.4l-.1.5-.4,1.6.1.4q0,.15,1.2.6a.76.76,0,0,0,.4.1l1.1.1h1.1l.7-.1h.1a.76.76,0,0,0,.4-.1.78.78,0,0,0,.4-.4C107.2,150.6,107.2,150.5,107.2,150.3Z"/><path class="cls-3" d="M128.9,170.4l-1.8-.4-.4-.1-.3-.1a1.6,1.6,0,0,1-.9-.7l-.1-.1c0-.1-.1-.2-.2-.3a1.38,1.38,0,0,1-.3-.4l-.3-.5-.6-1.9-.1-.7c0-.3,0-.5-.1-.6l-.1-.4c0-.2-.1-.5-.1-.8v-.5l-.2-2.2-.1-1.1.1-.6a2,2,0,0,0-.1-.8l-.1-.5-.1-.4v-.9l.1-1.1.1-1.1v-2l-.1-.3-.1-.5c0-.2-.1-.4-.1-.7l.1-.6V149l.1-.8v-1.3l-.1-1-.1-1.1v-.9l.1-1,.1-1.1v-1.1l-.1-.8v-.6l.1-.8v-.9l.1-.8v-.6l-.1-1v-1.3l.1-.2v-2.6l-.1-.8a1.72,1.72,0,0,1,.1-.8l.1-.2c0-.2.1-.5.1-.8l-.1-.8.1-1,.1-.8.1-1.2a3.63,3.63,0,0,1,.3-1.1l.2-.5a2.45,2.45,0,0,1,1.1-1.3l.5-.3c.1-.1.4-.1.6-.1a2,2,0,0,1,.8.1l1.1.1.4.1a2.3,2.3,0,0,1,.8.7l.1.1a.92.92,0,0,1,.4.6l.6,1.3a3.09,3.09,0,0,1,.2.8l.1,1.9v3l-.1.4-.1.6v.9l.1.4.1,1.1-.1,1v1.2l-.1,2.1.1.5v.6l-.1.9v4.1l-.1,1v1.2l-.1.9.1,1.1-.1,1.2v.9l.1,1-.1,1.3.1.6v.4l-.1.7v1.3l.1,1.3-.1,1-.1.8v.8l.1.2v1.5l.1.6.1.2a1,1,0,0,0,.4.8,1.88,1.88,0,0,0,.9.4,3.54,3.54,0,0,0,.6.1h.3l1.8-.1,1.9-.2h.9l.4.1.8.1,1.3.1a3.32,3.32,0,0,1,1.3.4l.8.6a2.17,2.17,0,0,1,.7.6l.1.3.1.4a3.75,3.75,0,0,1,.1,1l-.1,1a1.6,1.6,0,0,1-.3.8l-.2.6-.3.3a2.18,2.18,0,0,1-.8.5l-.9.3a5.64,5.64,0,0,1-.7.1l-1.8.1-.6.1c-.1,0-.2.1-.4,0h-.4l-.5-.1h-.6l-2.7.2-1.8.1-.6.1a5.38,5.38,0,0,1-.8.1Z"/><path class="cls-3" d="M156.2,170.7a2.64,2.64,0,0,1-.7-.1h-.1a3,3,0,0,1-1-.4l-.4-.4-.5-.3a2.17,2.17,0,0,1-.8-.9l-.6-1.1-.5-.9-.3-.6-.1-.4-.4-1.8-.4-1.1-.3-.6c-.1-.4-.2-.7-.2-.8v-.1a3.59,3.59,0,0,0-.2-1.1l-.1-.2a.35.35,0,0,1-.1-.2.37.37,0,0,0-.1-.3l-.4-1.9-.2-.8-.4-1.3v-.7l-.1-.4v-.2l-.1-.7-.2-1.2-.1-.6a.6.6,0,0,0-.1-.4l-.3-.6a1.27,1.27,0,0,1-.1-.6l-.1-.7-.1-.9v-.1l-.1-.4-.1-.6-.3-1-.1-1.1-.1-1.1-.1-.8a1.29,1.29,0,0,0-.2-.8l-.1-.3a2.49,2.49,0,0,1-.1-.8v-.2a1.27,1.27,0,0,0-.1-.6l-.2-.8-.2-.9-.2-1.2-.1-.9a.75.75,0,0,0-.1-.5l-.1-.4a2.64,2.64,0,0,1-.1-.7v-.4c0-.3,0-.5-.1-.6l-.1-.8-.2-1.1-.1-1.3-.2-1.1-.1-1.1-.1-.8-.3-1.9-.1-1.2v-.3a3,3,0,0,1,.4-1.4l.3-.5.5-.6.4-.4.4-.1a2.22,2.22,0,0,1,.9-.1l1.8-.1.6.4.3.2.3.3a2.36,2.36,0,0,1,.6.9l.4.8c0,.1.1.2.1.3s.1.2.1.3l.3,1.7.1.9.3,1.3.1.4a2.49,2.49,0,0,1,.1.8v.8l.1.4.3,1.6.3.9a1.09,1.09,0,0,1,.1.5l.1.7.1.9.5,2.2.2,1.1v.9l.2,1.1.1.5a4.1,4.1,0,0,1,.1,1.1v.2c0,.1.1.4.2,1l.1.2c0,.1.1.4.1.6v.4a1.49,1.49,0,0,0,.1.6l.2.8.1.6a2.64,2.64,0,0,0,.1.7l.2.6a3.54,3.54,0,0,1,.1.6l.1.6.1.8a1.09,1.09,0,0,0,.1.5l.2.6.1.6.1.9.1.7a2.49,2.49,0,0,0,.1.8l.1.3a1.09,1.09,0,0,1,.1.5l.1,1,.2,1,.2.4a.1.1,0,0,0,.1.1c.2,0,.4-.2.5-.5l.2-.6.3-1.4.6-2.2.2-1.1.1-.6.1-.4.3-.9.2-.6.1-.4v-1.1l.1-.6.4-1.5.1-.6.1-.7.2-1.1.2-1.1.3-.8.3-1.1.1-1,.1-.9c0-.3,0-.5.1-.6l.5-1.8.1-.6a1.34,1.34,0,0,0,.1-.5v-.1a2.64,2.64,0,0,1,.1-.7l.2-.8.2-.8.2-1.2.1-.4a3.09,3.09,0,0,0,.2-.8l.1-.6.1-1a1.75,1.75,0,0,1,.1-.5l.2-.6.1-.3v-.3l.6-2.2a.6.6,0,0,1,.1-.4l.5-1.1a1.83,1.83,0,0,1,.6-.8l.1-.1a5.55,5.55,0,0,1,.8-.6l.6-.2h.8a2.49,2.49,0,0,1,.8.1l.7.2a2.33,2.33,0,0,1,1.1.7,2.38,2.38,0,0,1,.6,1.1l.1.2.1.6c0,.1.1.3,0,.4v.3l-.1,1.5a.75.75,0,0,1-.1.5l-.4,1.7-.2,1.1-.2,1.2-.2,1.1-.1.8a1,1,0,0,1-.1.4l-.3.9-.1.8L169,136l-.3.8a4.33,4.33,0,0,0-.1.5v.6a1.75,1.75,0,0,1-.1.5l-.2.8-.3.8a.76.76,0,0,0-.1.4v.1l-.1.9-.1,1-.1.8-.1.4-.4,1-.1.9-.1,1-.3,1.2-.2.9-.3,1.1-.1.7c0,.1-.1.2-.1.4s-.1.3-.1.4l-.1.4a1.34,1.34,0,0,0-.1.5v.1l-.2.7-.1.9-.4,1.1-.1,1.2-.1,1-.6,2a1.76,1.76,0,0,0-.1.6l-.1.8-.2.4a3.09,3.09,0,0,0-.2.8l-.1.6-.1.8a.6.6,0,0,1-.1.4c0,.1-.1.2-.1.3l-.2.5-.1.4v.1l-.5,1.6-.1.6a2.19,2.19,0,0,1-.3.8l-.5,1a2.36,2.36,0,0,1-.8.9l-.4.4-1,.5-.5.2a4.1,4.1,0,0,1-1.1.1h-.8l-.4.1h-.2Z"/><path class="cls-3" d="M200.4,165.7V167c0,.3,0,.6-.1.7l-.1.1a2.81,2.81,0,0,1-.5,1.1l-.6.6a2.25,2.25,0,0,1-1.2.5l-1.1.2-.6.1-.8-.1-.4-.3-.5-.5-.3-.4a2.09,2.09,0,0,1-.4-.6l-.6-1.6-.1-.4c0-.1-.1-.2-.1-.3s-.1-.2-.1-.3v-.1l-.1-.6-.4-2v-.4s-.1-.3-.2-.7l-.1-.4c-.1-.4-.2-.7-.2-.7l-.1-1.3-.1-.4a1.71,1.71,0,0,0-.9-.6l-.6-.1-.4-.1h-.7l-.4.1c-.1,0-.3.1-.4,0H188l-.5-.1-1.2-.1-.5.1a5.64,5.64,0,0,1-.7.1h-1.5l-.4.3a2.28,2.28,0,0,0-.6,1.2l-.2.7a1.34,1.34,0,0,0-.1.5l-.1.8-.3,2.1-.2,1.9-.1.4-.4,1.3a1.79,1.79,0,0,1-.4.8l-.4.6a2,2,0,0,1-1.2,1l-.4.1-.4.2c-.1,0-.2.1-.4.1a2,2,0,0,1-.8-.1l-.5-.1a2.19,2.19,0,0,1-1.5-.8l-.4-.6-.1-.3a1.78,1.78,0,0,1-.4-1l-.1-.6v-.4a1.48,1.48,0,0,1,.1-.7l.3-1.3.2-2.2.1-1.1.2-.8.1-.4.1-.5c0-.1.1-.4.2-.8l.1-.3a3.22,3.22,0,0,0,.1-.8l.1-.4.1-1.2.3-.6a1.85,1.85,0,0,0,.2-.7v-.1l.1-.6.2-.8.1-.4.1-.9.1-.6a1.76,1.76,0,0,0,.1-.6v-.7l.1-1.1.2-1.1.2-.6a1.27,1.27,0,0,0,.1-.6l.1-.6a1.27,1.27,0,0,1,.1-.6l.1-.4a2.64,2.64,0,0,0,.1-.7V144l.1-.4.1-.8.3-.9a4.33,4.33,0,0,0,.1-.5v-.1l.1-.6.4-2.1.3-1,.1-1.1.2-.9.1-.5v-.6a2.64,2.64,0,0,1,.1-.7l.1-.4.1-.4.1-.6a1.49,1.49,0,0,1,.1-.6l.2-.6a.1.1,0,0,1,.1-.1.35.35,0,0,0,.1-.2l.1-.7.1-1.3.2-1.1.4-2,.4-1.6.2-.5.4-.9.4-.4a1.7,1.7,0,0,1,.6-.6l.4-.2a5.2,5.2,0,0,0,.5-.3l1.1-.4c.4-.1.7-.2.8-.2l.7-.1.5-.1.4-.1a3.22,3.22,0,0,1,.8.1l.4.1.6.2c.1,0,.2.1.4.1a.76.76,0,0,1,.4.2l.8.8a3,3,0,0,1,.6,1.1l.4,1.5.4.9.4,1.3.2,2,.2,1.1.4,1.7a3.54,3.54,0,0,1,.1.6l.2,1.7.1.8.4,1.1.2.9.2,1.2v.4a1.48,1.48,0,0,0,.1.7l.4,1.8.4,1.9.1,1.2.1.8a.37.37,0,0,0,.1.3l.1.2.2.6.1.6.1.6.1.4.1.5a2.8,2.8,0,0,1,.1.6v.8a1.27,1.27,0,0,0,.1.6l.1.3.3.9a1.34,1.34,0,0,1,.1.5l.1.8.3,1.1.5,2,.1.8v.2l.1.6.2.8a1.76,1.76,0,0,1,.1.6v.6a2.64,2.64,0,0,0,.1.7l.2.6.1.8.3,1.1.2.8a4.33,4.33,0,0,1,.1.5ZM190,150.3a1.27,1.27,0,0,0-.1-.6l-.4-1.4-.1-.8-.1-.4v-.6a2.92,2.92,0,0,0-.2-.9l-.1-.3c-.1-.3-.2-.4-.2-.5l-.1-1,.1-.6c0-.3,0-.5-.1-.6l-.2-.9-.3-.9-.3-1.3-.4-1.8-.4-1-.2-.1-.3.6a.76.76,0,0,0-.1.4l-.1.6a2.8,2.8,0,0,0-.1.6v.8l-.2.6a1.34,1.34,0,0,0-.1.5l-.1.6a.75.75,0,0,1-.1.5v.1l-.3.8-.1,1.2-.1,1-.1.8v.2c0,.1-.1.1-.1.2l-.1.6a1.76,1.76,0,0,0-.1.6v.4l-.1.5-.4,1.6.1.4q0,.15,1.2.6a.76.76,0,0,0,.4.1l1.1.1h1.1l.7-.1h.1a.76.76,0,0,0,.4-.1.78.78,0,0,0,.4-.4C190,150.6,190,150.5,190,150.3Z"/><path class="cls-3" d="M230.8,142v1.2l-.1,1.3v.8l-.1,1.1v1l-.1,1.1-.1.3-.1.7-.4.9a.76.76,0,0,0-.1.4l-.1.8-.1.7-.1.6-.2.6c-.1.3-.2.4-.2.5l-.1.4c-.1.5-.3.8-.4.8l-.1.1-.3.7-.1.3a.76.76,0,0,1-.2.4l-.8,1.8-.4.8-.5.8-.2.5-.3.6-.6.7-1.2,1.7-.5.8-.4.3a1.58,1.58,0,0,0-.7.7l-.1.2a.22.22,0,0,1-.2.2.35.35,0,0,0-.2.1l-.7.6-.4.4c-.2.2-.4.4-.5.4l-.4.3-.4.2-.7.3-1.5.8-.5.1-.4.1a1.23,1.23,0,0,0-.8.4l-.2.1a1.63,1.63,0,0,1-.6.3l-.6.1-2,.4-.5.1-1.6-.1a3,3,0,0,1-1-.2l-.1-.1c-.4-.2-.6-.4-.8-.5l-.7-.7-.4-.5a1.63,1.63,0,0,1-.3-.6l-.1-.4a3.44,3.44,0,0,1-.1-.9v-.4l-.2-2v-.6l.1-.7.1-.6a1.7,1.7,0,0,0,0-1l-.1-.2-.1-.6.1-.8.1-1.9v-1l-.1-.8v-2.5l.1-.6a1.72,1.72,0,0,0-.1-.8l-.1-.5.1-.4.1-.4v-.6l-.1-.5-.1-.6.1-.9.1-1-.1-.9-.1-1.1.1-.8v-.6l-.1-.6-.1-.4v-.9l.1-.5v-.9l-.1-.4v-.3l.1-.7.1-.8v-.9l-.1-.6v-.2l.1-.5v-.6l-.1-.4v-.6l.1-.7v-1.1l-.1-.6v-.8l.1-.4c0-.1.1-.3,0-.4v-.8l-.1-.8.1-.7.1-.6.1-2.1.1-.4.3-1.5.2-.6.3-.6.3-.3c.1-.2.5-.4,1.1-.6h.1l1.8-.4H212a.75.75,0,0,0,.5-.1h.1l.8-.1.6.1a3.54,3.54,0,0,0,.6.1h.4a1.49,1.49,0,0,1,.6.1l.9.2,1,.3.6.1a.76.76,0,0,1,.4.1c.2,0,.3.1.4.1l.8.4.9.4,1.8,1,.8.5a1.38,1.38,0,0,1,.4.3l.5.4.8.6.2.4a1.55,1.55,0,0,0,.8.8l.1.1.4.6.1.3.6.8.3.4.8,1.5.5.8a.35.35,0,0,1,.1.2c0,.1,0,.1.1.2l.3.7a.35.35,0,0,1,.1.2c0,.1,0,.2.1.2l.3.5.2.6.1.6.3,1.1.3,1.2.3,1.8v1.1l.1.5.1.7Zm-7.3-1.4-.1-1.3-.3-1.6a1.27,1.27,0,0,0-.1-.6l-.2-.5-.1-.4-.2-.8-.1-.4a.86.86,0,0,0-.3-.6l-.4-.6-.2-.6-.4-.6-1.7-2-.6-.4-.5-.3-.6-.5a1.88,1.88,0,0,0-.9-.4l-1.5-.4a3.22,3.22,0,0,0-.8-.1l-.6.1-.1.4a4.1,4.1,0,0,0-.1,1.1l.1,1.8.1.6v.6l-.1.4a3.44,3.44,0,0,0-.1.9l.1.2.1.6v.9l-.1.8v.6l.1.8v1.1l.1,1-.1.6a1.7,1.7,0,0,0,0,1l.1.8-.1.6v.8l.1.4v.5l-.1.7v1.4l.1.5v.5l-.1.9v1.3l.1.6v.5l-.1,1-.1.8v1.4l.1.8v.6l-.1,1.5v.2l-.1.6.1.4.1,2,.1.8a.89.89,0,0,0,.8.4,1.48,1.48,0,0,0,.7-.1l.5-.3c.4-.3.7-.4.7-.5l1.1-1.3.4-.6.5-.5.2-.1a1.24,1.24,0,0,0,.6-.8l.3-.5.4-.8,1.1-2,.4-.9.4-1.2.3-.9.3-1.2.1-.8.1-.4.1-.4c.1-.4.2-.7.2-.8v-.4a3.22,3.22,0,0,1,.1-.8l.1-.1c0-.2.1-.5.1-.8v-.6l.1-1.1.1-1.1.1-.6v-.7Z"/><path class="cls-3" d="M263.7,147l-.1.6c0,.3,0,.5-.1.6l-.1.6-.1.4V152l-.1,1.1-.1.9a1.75,1.75,0,0,1-.1.5l-.3.8-.1,1.1-.4,2-.3,1.3-.4,1-.4.9-.4,1-.8,1.5a5.92,5.92,0,0,1-.4.6l-.2.2c-.1.1-.3.4-.5.6l-.2.4a1.58,1.58,0,0,1-.7.7l-.1.1-.4.4-.4.4-.4.4-.9.6-.8.4-.8.5a.35.35,0,0,1-.2.1c-.1,0-.2.1-.3.1l-.6.2-2.2.4-.8.1-.6.1H249a2,2,0,0,1-.8-.1l-.5-.1-1.1-.1-1-.2-.5-.1a2.06,2.06,0,0,1-.9-.5l-.3-.1-.8-.6-.6-.4-.8-.8-.4-.4-.4-.6-1.1-1.4-.2-.4-.4-.7-.2-.4c0-.1-.1-.2-.2-.4a.76.76,0,0,1-.2-.4l-.1-.4v-.1c0-.1,0-.2-.1-.2l-.1-.1-.1-.4-.2-.3-.4-1.1-.1-.6-.6-2.2v-.4a2.92,2.92,0,0,0-.2-.9l-.1-.4-.1-.6-.1-1-.1-1.1v-.8a1.27,1.27,0,0,0-.1-.6l-.1-.4-.1-.4-.1-.9.1-1.2-.1-2v-1.9l.1-1.3.2-1.1.1-.9.1-1v-.8l.1-.6.1-.6.2-.8a1.76,1.76,0,0,0,.1-.6l.1-.7.4-1.8a5.44,5.44,0,0,1,.4-.8l.1-.1.3-.6.4-1.3a3.93,3.93,0,0,0,.2-.6l.4-.6a.35.35,0,0,0,.1-.2c0-.1,0-.1.1-.2l.4-.8.4-.8.5-.9.4-.8.3-.4,1.1-1.3.4-.6a6,6,0,0,1,.8-.8l.2-.1a3933732386814.22,3933732386814.22,0,0,1,.4-.2l1.4-1.2.6-.1.4-.1.4-.1a1.76,1.76,0,0,1,.6-.1l.6-.1,2.2-.1h.6l.4.1,1.8.4,1,.3,1.7.8.5.4.6.4,1.5,1.6.4.4.9,1.5.4.8.2.4.3.4.3.4.4.6.2.8.1.4.1.6v.2c0,.1.1.1.1.2l.6,1.6c0,.1.1.2.1.4l.2,1.1.1.6v.3a1.27,1.27,0,0,0,.1.6l.1.6.2.9.1,1.1.2,1.1.1.5v.7l.1,2.3.4,2.3Zm-7.4.7-.1-.2v-2.1l-.1-.4-.1-.9v-1.3l-.1-.5-.1-.4v-.8l-.1-.4-.1-.5-.1-.4v-.5a3.44,3.44,0,0,0-.1-.9l-.1-.2a1.34,1.34,0,0,1-.1-.5l-.1-1.3a1.88,1.88,0,0,0-.2-.8l-.2-.4-.1-.6-.1-.6a1.75,1.75,0,0,0-.1-.5l-.3-.8-.2-.6-.1-.2c-.1,0-.1,0-.1-.1l-.1-.3-.8-1.5-.4-.4a4.77,4.77,0,0,0-.8-.4l-1.4-.6-.5.1a2.19,2.19,0,0,0-.9.3l-.1.1a2.36,2.36,0,0,0-.9.8L247,131l-.6.8-.2.4-.4.8-.7,1.5c0,.1-.1.2-.1.3s-.1.2-.1.4l-.1.3a.37.37,0,0,1-.1.3.31.31,0,0,0-.1.2l-.2.5a.76.76,0,0,0-.1.4v.1l-.4,1.7-.1.4-.1.9-.1.6c0,.2-.1.4-.1.7v.8l-.1.5c0,.2-.1.5-.1,1l.1.6-.4.5c0,.2-.1.5-.1,1l.1.6v1.1l.1.9-.1.6a1.72,1.72,0,0,0,.1.8l.1.8v1l.2,1.1.1,1.1.3,1.5.1.6.3.8.2.6a4.33,4.33,0,0,1,.1.5l.1.4a3.22,3.22,0,0,0,.1.8l.5,1.2c0,.1.1.3.4.7l.5.6.8.8a3.61,3.61,0,0,0,1.5.8l.7.1h.4a3.75,3.75,0,0,0,1-.1l.3-.1.5-.2a2.18,2.18,0,0,0,.9-.7l.1-.1q0-.15.3-.3l.4-.4a1.7,1.7,0,0,0,.6-.6l.8-1.2.4-.7.1-.4.3-.8.4-1.8.1-1.1.1-.6c0-.1.1-.4.1-.6v-.7l.1-.5.1-.6.1-.6v-.8l-.1-.5.1-.6.1-.5C256.3,148.2,256.4,147.9,256.3,147.7Z"/><path class="cls-3" d="M287.2,170.2a1.86,1.86,0,0,1-1.1-.4l-.5-.5-.8-.9c-.2-.2-.4-.4-.4-.6l-.6-1.5-.3-.6-.1-.4-.4-.6-.4-.8-.2-.4-.2-.6-.1-.2-.3-.5-.1-.4-.6-1-.3-.4-.3-.7-.1-.2a3.28,3.28,0,0,0-.6-.8l-.1-.2-.3-.4-.4-.7-.5-.8-.8-1.3-.3-.3-.3.1a.56.56,0,0,0-.1.6v.2l-.1.7v.8l.1,1.1v.6l-.1.9v.4a1.48,1.48,0,0,0,.1.7l.1.4a5.38,5.38,0,0,1,.1.8l-.1.7.1.6.1.4-.1,1,.1,1.5-.1.6-.3,1.4-.4.5c0,.1-.2.3-.4.4l-.5.5-.4.2a3.09,3.09,0,0,1-1.1.2H273a2.79,2.79,0,0,1-1-.1h-.1a2,2,0,0,1-1-.9l-.3-.5-.6-1.3c-.1-.4-.2-.7-.2-.8l-.1-1.5v-1.1l-.1-1.1.1-1v-.9l-.1-1.1.1-1.1v-2l.1-1.1v-1.1l-.1-1v-2l-.1-1.1.1-2v-2l-.1-1.1-.1-1.3.1-1v-1.1l-.1-.6v-.8l.1-.3v-1.5l.1-.5a2.22,2.22,0,0,0-.1-.9l-.1-.2v-.7l.1-.7v-1.1l-.1-.8v-1.3l-.1-1.1v-1.1l.1-1.2V127l.1-.6.1-.4v-.4a3.09,3.09,0,0,1,.2-.8l.8-1.5.2-.5a5,5,0,0,1,.6-.8l.1-.1a2.38,2.38,0,0,1,1.1-.6l.1-.1a1.76,1.76,0,0,1,.6-.1l1.5-.1h.7a1.27,1.27,0,0,1,.6.1l.8.1,1.1.1.7.1a4.2,4.2,0,0,0,.5.2l1.4.6.5.3,1.4.8.8.6,1,.8.8.8.5.4.4.4.4.6.8.9.6.8.6.8.2.4.7,1.7a.76.76,0,0,1,.1.4l.1.7.3.7.1.6.1.9.2,1.1-.1.6.1.5.2,1.8v1a2,2,0,0,1-.1.8l-.2.6-.4,2.2-.3.9a.35.35,0,0,0-.1.2c0,.1,0,.1-.1.2l-.4.6-.2.6a2,2,0,0,1-.4.8l-1.2,1.5-1.3,1.3a.22.22,0,0,1-.2.2.35.35,0,0,0-.2.1l-1.1.7-.3.4c-.1.1-.1.2-.1.4a5.16,5.16,0,0,0,.2,1.1.86.86,0,0,0,.3.6l1,1.5.5.8.7,1.1.3.5.3.6.2.6.1.2.1.3.3.5.5,1,.5,1.1.4,1,1,2,.7,2-.1.7c0,.3,0,.5-.1.6l-.2.8-.3.4a3,3,0,0,1-.8.7l-.4.2a2.44,2.44,0,0,1-1.7.4c-.1,0-.2-.1-.2,0h-.1Zm-9.6-24.7a2,2,0,0,0,.8-.1h.2a1.09,1.09,0,0,0,.5-.1l1.3-.4a1.61,1.61,0,0,0,.7-.4l.4-.2c.2-.2.4-.3.5-.4l.4-.5.8-.9.2-.6.1-.4.2-2,.1-.4.1-.4v-.6l-.2-1.8-.2-.7a2.19,2.19,0,0,0-.3-.8l-.1-.2a6.89,6.89,0,0,0-.3-.8,1.87,1.87,0,0,0-.5-1l-.1-.1-.4-.5-.5-.4-.3-.3-.4-.4-.4-.4-.6-.5-1.3-.9-.3-.1h-.1c-.1,0-.3.2-.5.6a3.44,3.44,0,0,0-.1.9v1.5l.1,1-.1,1.3-.1,1v1l-.1,1.1.1,1.1v.9l.1.9-.1,1.1-.1.8.1,2-.1,1.1.3.1h.2Z"/><path class="cls-4" d="M191.6,224.3l-.4-.3a10,10,0,0,1-1.1-1l-.6-.9-.1-.5c0-.2-.1-.5-.1-1a17,17,0,0,1,.5-2.5l.1-.4a7,7,0,0,1,1.2-2l.1-.1.6-.7.7-1,.5-.8.6-.8,1.3-1.8.7-.7.8-.9.6-.7.3-.5a3.61,3.61,0,0,1,.9-.9,1.21,1.21,0,0,0,.5-.5l1.7-2.2.6-.7,1.3-1.6.3-.5a2.6,2.6,0,0,1,.3-.7l.2-.7.3-.9.3-.6c.1-.1.1-.2.1-.4l.1-.6a.31.31,0,0,1,.1-.2c0-.1.1-.1.1-.2v-.4a6.2,6.2,0,0,1,.3-1.1,4.33,4.33,0,0,0,.1-.5l.1-.8.1-.9-.1-1.2v-.7a.9.9,0,0,0-.1-.5l-.4-1.6-.4-1.1-.4-.8-1.2-1.7-.3-.3a2.15,2.15,0,0,0-.7-.4l-.3-.1a4.33,4.33,0,0,0-.5-.1l-.4-.1h-.7l-.5.1a1.76,1.76,0,0,0-.6.1l-.3.1a6.89,6.89,0,0,0-.8.3l-.1.1a2.7,2.7,0,0,0-.7.8l-.4.7a.1.1,0,0,1-.1.1l-.3,1.4.1.6a12.54,12.54,0,0,1-.2,1.5,2.26,2.26,0,0,1-.6,1.3c-.1.1-.4.3-.8.7a7.7,7.7,0,0,1-1.5.6h-.5a2,2,0,0,1-.9-.2,4.58,4.58,0,0,1-1.3-.8,4.07,4.07,0,0,1-1-1.1,13.08,13.08,0,0,1-.5-1.5,6.62,6.62,0,0,1-.1-1.5,2,2,0,0,1,.1-.7c.1-.3.1-.5.2-.8a9.76,9.76,0,0,1,.7-1.6l.1-.4.1-.5a2.62,2.62,0,0,1,.5-.9,11.32,11.32,0,0,1,1-1.3l.5-.6.7-.8.6-.3.3-.1.3-.2.4-.3a3.83,3.83,0,0,1,1.1-.5l.4-.2.3-.2a4.28,4.28,0,0,1,1.5-.3l1.8-.2h1.1l1.1.2,1.9.3,1.1.3.5.2a9.13,9.13,0,0,1,1.3.8l.9.8.3.3a10,10,0,0,1,1,1.1c.3.4.6.9,1,1.5a.22.22,0,0,0,.2.2l.2.2.2.3a6.11,6.11,0,0,1,.7,1.4l.1.6.1.4.2.5a12.63,12.63,0,0,1,.4,2.2l.1,1.1v.9l.1.5a5.38,5.38,0,0,1,.1,1.1v.8l.1.3a5.38,5.38,0,0,1,.1.8,4.25,4.25,0,0,1-.2,1.1,1.76,1.76,0,0,0-.1.6v1.1c0,.2-.1.7-.2,1.5a6.36,6.36,0,0,1-.6,1.8l-.1.5a4.5,4.5,0,0,1-.7,1.4l-.5.9-.3.5a2.19,2.19,0,0,0-.3.5l-.1.3a2.8,2.8,0,0,1-.5.8c-.3.4-.5.8-.8,1.2l-.6.7-.5.4c-.1.1-.2.2-.3.2s-.2.1-.3.2l-.3.5-.6.9c-.2.3-.7.8-1.3,1.5l-.6.7-1.1,1.4-.6.5-.2.2a3.81,3.81,0,0,0-.5.6c-.2.3-.5.7-.8,1.2l-.3.3-.1.1a2.3,2.3,0,0,0-.3.9l1.7.4a.75.75,0,0,0,.5-.1l.3-.1a4.51,4.51,0,0,1,1.3-.1h1.1l1-.2.6.1a4.33,4.33,0,0,0,.5.1l.9-.1a11,11,0,0,1,1.8.2,3.2,3.2,0,0,1,1.3.5,3.13,3.13,0,0,1,.8,1.1l.3.4a2.81,2.81,0,0,1,.1,1.1,4.51,4.51,0,0,1-.1,1.3l-.3.4c0,.1-.2.2-.3.4a2.65,2.65,0,0,0-.5.6l-.4.3a6.83,6.83,0,0,1-1.3.4l-1.6.3-.9.1-1.1.1-.9-.1-1,.1h-2.8l-1.2.1-.4.1c-.2,0-.7.1-1.6.1h-.8l-1.1.1C194,225.2,193,224.9,191.6,224.3Z"/><path class="cls-4" d="M227.7,224.5l-1.1-.1-1.1-.2-1-.2-.9-.4-.9-.4-.4-.3-1.1-.8-.5-.3a6.73,6.73,0,0,1-1.5-1.7l-.3-.4a11.55,11.55,0,0,1-.8-1.5l-.4-.9-.3-.8-.3-1-.3-1.1-.3-.9a14.68,14.68,0,0,1-.5-1.9l-.3-1-.1-.9-.1-.9-.1-1.1V207l-.1-.3-.1-.5c0-.3-.1-.7-.1-1.3l.1-1.1-.1-.4v-1.7l-.1-.3.2-2.3V199l.1-.9.1-.9v-.5a6,6,0,0,1,.2-1.2l.1-.3a10.5,10.5,0,0,1,.1-1.1l.2-.4a2.3,2.3,0,0,0,.3-.9v-.2a6.32,6.32,0,0,1,.4-1.3l.3-.9.4-.9.5-.9.8-1.8.2-.3c0-.1.1-.2.2-.3s.1-.3.2-.4l.1-.4a8.66,8.66,0,0,1,.9-1.2l.5-.5c.2-.2.3-.3.3-.4l.2-.3a1.49,1.49,0,0,1,.6-.7,9.43,9.43,0,0,0,1-1l.1-.1.4-.5a14.23,14.23,0,0,1,2.2-1.5l1-.5.5-.2a5.21,5.21,0,0,1,1.4-.2l2,.1.5.2c.1,0,.2.1.3.1s.2.1.3.1l.3.1c.1,0,.8.4,2.1,1.1l.9.5.6.6.3.4.6.9c.1.1.3.4.7.8a3.16,3.16,0,0,1,.7,1.3l.3.7.3.5a4.33,4.33,0,0,1,.5,1.2l.3.6.1.3a1,1,0,0,0,.1.4,4.65,4.65,0,0,1,.3.9l.3,1,.3,1,.3,1.9.1.5c0,.2.1.5,0,.7v.8l.1,1.1.2,1.1.1,1.1v.5a7.57,7.57,0,0,1-.1,1.5l-.1.7v.6l.1.3c0,.2-.1.7-.2,1.4l-.1.9-.1,1.2-.1.9-.1,1.1-.1.5V209a5.34,5.34,0,0,1-.3,1.3l-.1,1.1-.4,1.8-.1.6a2.66,2.66,0,0,1-.5,1.3l-.1.2-.3.9-.3.9-.9,1.7a9.24,9.24,0,0,1-1.2,1.6l-.7.7a1.38,1.38,0,0,0-.3.4l-.2.3a1.83,1.83,0,0,1-.8.6c-.4.2-.6.3-.7.5l-.3.3a5.18,5.18,0,0,1-1.1.7l-2.3.9a3.34,3.34,0,0,1-1.5.3h-.5Zm.7-6.9.9-.4.3-.1.3-.2a3,3,0,0,0,.8-.7l.2-.3.9-1.3.7-1.3.3-.9.1-.2.2-1.1.2-.9.3-1,.1-.8.1-1.1.1-1.1.1-.9.2-.9a5.38,5.38,0,0,0,.1-.8v-.2l.1-.9a3.44,3.44,0,0,0,.1-.9l-.1-.3V201l.1-1.1.1-.5v-.3a1.27,1.27,0,0,0-.1-.6l-.1-.3c0-.1-.1-.3,0-.5v-.6c0-.4,0-.7-.1-.8l-.1-.3v-1.2l-.2-1.1-.1-.9-.3-1.1v-.5a2.25,2.25,0,0,0-.1-.7l-.7-1.6-.7-1.6-.3-.3a3.81,3.81,0,0,0-.5-.6l-.3-.2a1.38,1.38,0,0,0-.4-.3h-.1l-.5-.2-.4-.1-.4-.1a1.76,1.76,0,0,0-.6.1,1.46,1.46,0,0,0-.9.6l-.3.3-1.2,1.5-.3.3a3.05,3.05,0,0,0-.5.9l-.1.2c0,.1-.2.3-.5.7l-.2.4-.5.9-.3.9-.5,1.1-.4,1.6-.1.4-.1.4a5.07,5.07,0,0,1-.2.9,2.92,2.92,0,0,0-.2.9v.5l-.1.9-.1.5c0,.2-.1.4-.1.7l-.1.5.1.5.1.4c0,.2.1.6.1,1.1l-.1.9v.5l.1.7.1.8v.7l.1.4.1.9.1.9.2,1,.6,2,.1.5a1.76,1.76,0,0,0,.1.6l.3.7.7,1.5.4.6.9,1.1a3,3,0,0,0,.7.5l.3.2h.5A.7.7,0,0,0,228.4,217.6Z"/><path class="cls-4" d="M247.5,224.3l-.4-.3a10,10,0,0,1-1.1-1l-.6-.9-.1-.5c0-.2-.1-.5-.1-1a17,17,0,0,1,.5-2.5l.1-.4a7,7,0,0,1,1.2-2l.1-.1.6-.7.7-1,.5-.8.6-.8,1.3-1.8.7-.7.8-.9.6-.7.3-.5a3.61,3.61,0,0,1,.9-.9,1.21,1.21,0,0,0,.5-.5l1.7-2.2.6-.7,1.3-1.6.3-.5a2.6,2.6,0,0,1,.3-.7l.2-.7.3-.9.3-.6c.1-.1.1-.2.1-.4l.1-.6a.31.31,0,0,1,.1-.2c0-.1.1-.1.1-.2v-.4a6.2,6.2,0,0,1,.3-1.1,4.33,4.33,0,0,0,.1-.5l.1-.8.1-.9-.1-1.2v-.7a.9.9,0,0,0-.1-.5l-.4-1.6-.4-1.1-.4-.8-1.2-1.7-.3-.3a2.15,2.15,0,0,0-.7-.4l-.3-.1a4.33,4.33,0,0,0-.5-.1l-.4-.1H255l-.5.1a1.76,1.76,0,0,0-.6.1l-.3.1a6.89,6.89,0,0,0-.8.3l-.1.1a2.7,2.7,0,0,0-.7.8l-.4.7a.1.1,0,0,1-.1.1l-.3,1.4.1.6a12.54,12.54,0,0,1-.2,1.5,2.26,2.26,0,0,1-.6,1.3c-.1.1-.4.3-.8.7a7.7,7.7,0,0,1-1.5.6H248a2,2,0,0,1-.9-.2,4.58,4.58,0,0,1-1.3-.8,4.07,4.07,0,0,1-1-1.1,13.08,13.08,0,0,1-.5-1.5,6.62,6.62,0,0,1-.1-1.5,2,2,0,0,1,.1-.7c.1-.3.1-.5.2-.8a9.76,9.76,0,0,1,.7-1.6l.1-.4.1-.5a2.62,2.62,0,0,1,.5-.9,11.32,11.32,0,0,1,1-1.3l.5-.6.7-.8.6-.3.3-.1.3-.2.4-.3a3.83,3.83,0,0,1,1.1-.5l.4-.2.3-.2a4.28,4.28,0,0,1,1.5-.3l1.8-.2h1.1l1.1.2,1.9.3,1.1.3.5.2a9.13,9.13,0,0,1,1.3.8l.9.8.3.3a10,10,0,0,1,1,1.1c.3.4.6.9,1,1.5a.22.22,0,0,0,.2.2l.2.2.2.3a6.11,6.11,0,0,1,.7,1.4l.1.6.1.4.2.5a12.63,12.63,0,0,1,.4,2.2l.1,1.1v.9l.1.5a5.38,5.38,0,0,1,.1,1.1v.8l.1.3a5.38,5.38,0,0,1,.1.8,4.25,4.25,0,0,1-.2,1.1,1.76,1.76,0,0,0-.1.6v1.1c0,.2-.1.7-.2,1.5a6.36,6.36,0,0,1-.6,1.8l-.1.5a4.5,4.5,0,0,1-.7,1.4l-.5.9-.3.5a2.19,2.19,0,0,0-.3.5l-.1.3a2.8,2.8,0,0,1-.5.8c-.3.4-.5.8-.8,1.2l-.6.7-.5.4c-.1.1-.2.2-.3.2s-.2.1-.3.2l-.3.5-.6.9c-.2.3-.7.8-1.3,1.5l-.6.7-1.1,1.4-.6.5-.2.2a3.81,3.81,0,0,0-.5.6c-.2.3-.5.7-.8,1.2l-.3.3-.1.1a2.3,2.3,0,0,0-.3.9l1.7.4a.75.75,0,0,0,.5-.1l.3-.1a4.51,4.51,0,0,1,1.3-.1h1.1l1-.2.6.1a4.33,4.33,0,0,0,.5.1l.9-.1a11,11,0,0,1,1.8.2,3.2,3.2,0,0,1,1.3.5,3.13,3.13,0,0,1,.8,1.1l.3.4a2.81,2.81,0,0,1,.1,1.1,4.51,4.51,0,0,1-.1,1.3l-.3.4c0,.1-.2.2-.3.4a2.65,2.65,0,0,0-.5.6l-.4.3a6.83,6.83,0,0,1-1.3.4l-1.6.3-.9.1-1.1.1-.9-.1-1,.1h-2.8l-1.2.1-.4.1c-.2,0-.7.1-1.6.1h-.8l-1.1.1A5.31,5.31,0,0,1,247.5,224.3Z"/><path class="cls-4" d="M283.3,224.7l-1.1-.1-.5-.1a1.76,1.76,0,0,1-.6-.1,1.88,1.88,0,0,1-.8-.2c-.1,0-.2-.1-.4-.1h-.5a5.84,5.84,0,0,1-1.3-.5l-1.5-.7a9.13,9.13,0,0,1-1.3-.8l-.4-.3a8.51,8.51,0,0,1-1-1.3l-.5-.7-.6-.9-.5-.9a4.78,4.78,0,0,1-.6-1.8l-.1-.9V215a6.13,6.13,0,0,1,.3-1.6,4.72,4.72,0,0,1,1.2-1.8l.3-.2a5,5,0,0,1,1.5-.1,4.07,4.07,0,0,1,1.8.5l.4.3a2.18,2.18,0,0,1,.7.9,13.35,13.35,0,0,1,.5,1.7l.2.5.1.3a1.38,1.38,0,0,0,.3.4.31.31,0,0,0,.1.2l.4.5.4.4a1.87,1.87,0,0,0,1.1.5l.8.2a3.54,3.54,0,0,0,.6.1c.3,0,.5,0,.6-.1h.1l.5-.1,1.6-.7.9-.5.5-.5c.2-.2.3-.3.3-.4l.9-1.4.2-.4a2.24,2.24,0,0,0,.3-1l.1-.3.1-1.2.1-.3V210l-.1-.5-.1-1-.1-.5a3.09,3.09,0,0,0-.5-1l-.1-.1-.5-1-.3-.5a2.7,2.7,0,0,0-.7-.8l-.2-.2-1-.5a2.4,2.4,0,0,0-1-.2h-.1l-.6.1h-1.1a2.6,2.6,0,0,1-1-.4,1.55,1.55,0,0,1-.8-.8,4.82,4.82,0,0,1-.4-1.5,5.38,5.38,0,0,1-.1-1.1l.1-.9.2-.4a6.7,6.7,0,0,1,2-1.6l1.5-1.1.1-.1.3-.3.3-.4c0-.1,0-.1.1-.1l.8-1.3.1-.3.2-.5.1-.4.3-1.2.2-1.1v-.5c0-.3,0-.5-.1-.6l-.3-1.3-.2-.6-.1-.3-.1-.2a.54.54,0,0,0-.3-.4,2.18,2.18,0,0,1-.4-.5l-.4-.2a.35.35,0,0,0-.2-.1c-.1,0-.1,0-.2-.1h-.1L282,185l-.4-.1c-.1,0-.2-.1-.4,0h-.4l-.6.1c-.1,0-.2,0-.2.1l-1,.3a2.36,2.36,0,0,0-.9.6l-.1.1-.3.4-.2.5a1.34,1.34,0,0,0-.1.5l-.1,1.3-.1.6a10.38,10.38,0,0,1-.3,1.2,5.35,5.35,0,0,1-.7.9,6.23,6.23,0,0,1-2.5,1l-.5-.1a1.28,1.28,0,0,1-1-.4,8.43,8.43,0,0,1-1.6-2h-.1l-.1-.3-.2-.9-.1-.5a5.13,5.13,0,0,1,.1-1,6.4,6.4,0,0,1,.5-1.7.76.76,0,0,0,.1-.4l.1-.3.3-.8a8.66,8.66,0,0,1,.9-1.2l.3-.3a5.7,5.7,0,0,1,1.1-1.1l.8-.7.8-.7.4-.3a8.5,8.5,0,0,1,1.3-.5l.9-.4.9-.3,1.4-.4a3.54,3.54,0,0,1,.6-.1,2.22,2.22,0,0,1,.9.1l.9-.1h.5a12.58,12.58,0,0,1,2.4.6l.9.2.4.2a5.29,5.29,0,0,1,1.4.8l.7.5.8.6.3.3a9.65,9.65,0,0,1,1.1,1.3l.3.5a5.35,5.35,0,0,1,.6,1.3l.2.4a8.09,8.09,0,0,1,.5,1.5l.1.5c0,.1,0,.9.1,2.3l.1.6v.3a3.75,3.75,0,0,1-.1,1.1l-.1.7-.2,1.6a6.47,6.47,0,0,1-.4,1.3l-.3.9-.4.8-.7,1.4-.1.3-.1.3v.1a2.87,2.87,0,0,0,.7,1.4l1.1,1.5.4.8.5.7.3.5c.4.7.6,1.2.7,1.4l.4,1,.1.4c0,.1.1.2.1.4s.1.3.1.6a1.76,1.76,0,0,0,.1.6,2,2,0,0,1,.1.8v1.1l.1.4a3.54,3.54,0,0,1,.1.6,3.08,3.08,0,0,1-.1,1v.5l-.3,1.3-.3.9-.1.5-.5,1.3-1,1.8-.4.9-.6,1-.6.5-.1.1c-.1,0-.3.3-.7.8l-.6.5-.9.8-.6.3a.35.35,0,0,1-.2.1.37.37,0,0,0-.3.1l.1.6h-.3a1.09,1.09,0,0,0-.5.1l-.3.1-.4.2s-.8.2-2.2.5l-.5.1Z"/></g></g></svg>